<svg width="7200" height="256" viewBox="0 0 7200 256" fill="none" xmlns="http://www.w3.org/2000/svg">
<path d="M5166.86 137.894H5202.38V153.564C5190.96 153.564 5161.73 153.564 5151.8 153.564V86.7031H5067.72L5068.02 136.85H5101.92V153.565H5052.3V86.7031H4967.15V137.894H5002.67V153.564H4949.65V86.7031H4865.57L4865.86 136.85H4899.77V153.565H4850.14V86.7031H4765V137.894H4800.52V170.28H4817.24V121.179H4781.72V103.419H4833.43V170.28H4916.49V120.134H4882.48L4882.39 103.419H4932.94V170.28H5019.39V121.179H4983.87V103.419H5035.58V170.28H5118.64V120.134H5084.63L5084.54 103.419H5135.09V170.28C5151.76 170.28 5203.58 170.28 5219.09 170.28V121.179H5183.57V103.419H5235.29V170.28H5252V86.7031H5166.86V137.894Z" fill="#C9A227"/>
<path d="M5252 37.6016H4765V54.3176H5252V37.6016Z" fill="#C9A227"/>
<path d="M5252 202.666H4765V288.332H5252V202.666Z" fill="#C9A227"/>
<path d="M2244.86 136.894H2280.38V152.564C2268.96 152.564 2239.73 152.564 2229.8 152.564V85.7031H2145.72L2146.02 135.85H2179.92V152.565H2130.3V85.7031H2045.15V136.894H2080.67V152.564H2027.65V85.7031H1943.57L1943.86 135.85H1977.77V152.565H1928.14V85.7031H1843V136.894H1878.52V169.28H1895.24V120.179H1859.72V102.419H1911.43V169.28H1994.49V119.134H1960.48L1960.39 102.419H2010.94V169.28H2097.39V120.179H2061.87V102.419H2113.58V169.28H2196.64V119.134H2162.63L2162.54 102.419H2213.09V169.28C2229.76 169.28 2281.58 169.28 2297.09 169.28V120.179H2261.57V102.419H2313.29V169.28H2330V85.7031H2244.86V136.894Z" fill="#C9A227"/>
<path d="M2330 36.6016H1843V53.3176H2330V36.6016Z" fill="#C9A227"/>
<path d="M2330 201.666H1843V287.332H2330V201.666Z" fill="#C9A227"/>
<path d="M1270.86 137.894H1306.38V153.564C1294.96 153.564 1265.73 153.564 1255.8 153.564V86.7031H1171.72L1172.02 136.85H1205.92V153.565H1156.3V86.7031H1071.15V137.894H1106.67V153.564H1053.65V86.7031H969.57L969.864 136.85H1003.77V153.565H954.145V86.7031H869V137.894H904.521V170.28H921.236V121.179H885.716V103.419H937.43V170.28H1020.49V120.134H986.482L986.385 103.419H1036.94V170.28H1123.39V121.179H1087.87V103.419H1139.58V170.28H1222.64V120.134H1188.63L1188.54 103.419H1239.09V170.28C1255.76 170.28 1307.58 170.28 1323.09 170.28V121.179H1287.57V103.419H1339.29V170.28H1356V86.7031H1270.86V137.894Z" fill="#C9A227"/>
<path d="M1356 37.6016H869V54.3176H1356V37.6016Z" fill="#C9A227"/>
<path d="M1356 202.666H869V288.332H1356V202.666Z" fill="#C9A227"/>
<path d="M6627.86 136.894H6663.38V152.564C6651.96 152.564 6622.73 152.564 6612.8 152.564V85.7031H6528.72L6529.02 135.85H6562.92V152.565H6513.3V85.7031H6428.15V136.894H6463.67V152.564H6410.65V85.7031H6326.57L6326.86 135.85H6360.77V152.565H6311.14V85.7031H6226V136.894H6261.52V169.28H6278.24V120.179H6242.72V102.419H6294.43V169.28H6377.49V119.134H6343.48L6343.39 102.419H6393.94V169.28H6480.39V120.179H6444.87V102.419H6496.58V169.28H6579.64V119.134H6545.63L6545.54 102.419H6596.09V169.28C6612.76 169.28 6664.58 169.28 6680.09 169.28V120.179H6644.57V102.419H6696.29V169.28H6713V85.7031H6627.86V136.894Z" fill="#C9A227"/>
<path d="M6713 36.6016H6226V53.3176H6713V36.6016Z" fill="#C9A227"/>
<path d="M6713 201.666H6226V287.332H6713V201.666Z" fill="#C9A227"/>
<path d="M3705.86 135.894H3741.38V151.564C3729.96 151.564 3700.73 151.564 3690.8 151.564V84.7031H3606.72L3607.02 134.85H3640.92V151.565H3591.3V84.7031H3506.15V135.894H3541.67V151.564H3488.65V84.7031H3404.57L3404.86 134.85H3438.77V151.565H3389.14V84.7031H3304V135.894H3339.52V168.28H3356.24V119.179H3320.72V101.419H3372.43V168.28H3455.49V118.134H3421.48L3421.39 101.419H3471.94V168.28H3558.39V119.179H3522.87V101.419H3574.58V168.28H3657.64V118.134H3623.63L3623.54 101.419H3674.09V168.28C3690.76 168.28 3742.58 168.28 3758.09 168.28V119.179H3722.57V101.419H3774.29V168.28H3791V84.7031H3705.86V135.894Z" fill="#C9A227"/>
<path d="M3791 35.6016H3304V52.3176H3791V35.6016Z" fill="#C9A227"/>
<path d="M3791 200.666H3304V286.332H3791V200.666Z" fill="#C9A227"/>
<path d="M4679.86 137.894H4715.38V153.564C4703.96 153.564 4674.73 153.564 4664.8 153.564V86.7031H4580.72L4581.02 136.85H4614.92V153.565H4565.3V86.7031H4480.15V137.894H4515.67V153.564H4462.65V86.7031H4378.57L4378.86 136.85H4412.77V153.565H4363.14V86.7031H4278V137.894H4313.52V170.28H4330.24V121.179H4294.72V103.419H4346.43V170.28H4429.49V120.134H4395.48L4395.39 103.419H4445.94V170.28H4532.39V121.179H4496.87V103.419H4548.58V170.28H4631.64V120.134H4597.63L4597.54 103.419H4648.09V170.28C4664.76 170.28 4716.58 170.28 4732.09 170.28V121.179H4696.57V103.419H4748.29V170.28H4765V86.7031H4679.86V137.894Z" fill="#C9A227"/>
<path d="M4765 37.6016H4278V54.3176H4765V37.6016Z" fill="#C9A227"/>
<path d="M4765 202.666H4278V288.332H4765V202.666Z" fill="#C9A227"/>
<path d="M1757.86 136.894H1793.38V152.564C1781.96 152.564 1752.73 152.564 1742.8 152.564V85.7031H1658.72L1659.02 135.85H1692.92V152.565H1643.3V85.7031H1558.15V136.894H1593.67V152.564H1540.65V85.7031H1456.57L1456.86 135.85H1490.77V152.565H1441.14V85.7031H1356V136.894H1391.52V169.28H1408.24V120.179H1372.72V102.419H1424.43V169.28H1507.49V119.134H1473.48L1473.39 102.419H1523.94V169.28H1610.39V120.179H1574.87V102.419H1626.58V169.28H1709.64V119.134H1675.63L1675.54 102.419H1726.09V169.28C1742.76 169.28 1794.58 169.28 1810.09 169.28V120.179H1774.57V102.419H1826.29V169.28H1843V85.7031H1757.86V136.894Z" fill="#C9A227"/>
<path d="M1843 36.6016H1356V53.3176H1843V36.6016Z" fill="#C9A227"/>
<path d="M1843 201.666H1356V287.332H1843V201.666Z" fill="#C9A227"/>
<path d="M783.855 137.894H819.375V153.564C807.959 153.564 778.734 153.564 768.805 153.564V86.7031H684.723L685.016 136.85H718.921V153.565H669.296V86.7031H584.153V137.894H619.673V153.564H566.653V86.7031H482.57L482.864 136.85H516.768V153.565H467.145V86.7031H382V137.894H417.521V170.28H434.236V121.179H398.716V103.419H450.43V170.28H533.485V120.134H499.482L499.385 103.419H549.939V170.28H636.389V121.179H600.869V103.419H652.581V170.28H735.637V120.134H701.634L701.535 103.419H752.089V170.28C768.764 170.28 820.583 170.28 836.091 170.28V121.179H800.571V103.419H852.285V170.28H869V86.7031H783.855V137.894Z" fill="#C9A227"/>
<path d="M869 37.6016H382V54.3176H869V37.6016Z" fill="#C9A227"/>
<path d="M869 202.666H382V288.332H869V202.666Z" fill="#C9A227"/>
<path d="M296.855 137.894H332.375V153.564C320.959 153.564 291.734 153.564 281.805 153.564V86.7031H197.723L198.016 136.85H231.921V153.565H182.296V86.7031H97.153V137.894H132.673V153.564H79.653V86.7031H-4.43L-4.136 136.85H29.768V153.565H-19.855V86.7031H-105V137.894H-69.479V170.28H-52.764V121.179H-88.284V103.419H-36.57V170.28H46.485V120.134H12.482L12.385 103.419H62.939V170.28H149.389V121.179H113.869V103.419H165.581V170.28H248.637V120.134H214.634L214.535 103.419H265.089V170.28C281.764 170.28 333.583 170.28 349.091 170.28V121.179H313.571V103.419H365.285V170.28H382V86.7031H296.855V137.894Z" fill="#C9A227"/>
<path d="M382 37.6016H-105V54.3176H382V37.6016Z" fill="#C9A227"/>
<path d="M382 202.666H-105V288.332H382V202.666Z" fill="#C9A227"/>
<path d="M6140.86 136.894H6176.38V152.564C6164.96 152.564 6135.73 152.564 6125.8 152.564V85.7031H6041.72L6042.02 135.85H6075.92V152.565H6026.3V85.7031H5941.15V136.894H5976.67V152.564H5923.65V85.7031H5839.57L5839.86 135.85H5873.77V152.565H5824.14V85.7031H5739V136.894H5774.52V169.28H5791.24V120.179H5755.72V102.419H5807.43V169.28H5890.49V119.134H5856.48L5856.39 102.419H5906.94V169.28H5993.39V120.179H5957.87V102.419H6009.58V169.28H6092.64V119.134H6058.63L6058.54 102.419H6109.09V169.28C6125.76 169.28 6177.58 169.28 6193.09 169.28V120.179H6157.57V102.419H6209.29V169.28H6226V85.7031H6140.86V136.894Z" fill="#C9A227"/>
<path d="M6226 36.6016H5739V53.3176H6226V36.6016Z" fill="#C9A227"/>
<path d="M6226 201.666H5739V287.332H6226V201.666Z" fill="#C9A227"/>
<path d="M3218.86 135.894H3254.38V151.564C3242.96 151.564 3213.73 151.564 3203.8 151.564V84.7031H3119.72L3120.02 134.85H3153.92V151.565H3104.3V84.7031H3019.15V135.894H3054.67V151.564H3001.65V84.7031H2917.57L2917.86 134.85H2951.77V151.565H2902.14V84.7031H2817V135.894H2852.52V168.28H2869.24V119.179H2833.72V101.419H2885.43V168.28H2968.49V118.134H2934.48L2934.39 101.419H2984.94V168.28H3071.39V119.179H3035.87V101.419H3087.58V168.28H3170.64V118.134H3136.63L3136.54 101.419H3187.09V168.28C3203.76 168.28 3255.58 168.28 3271.09 168.28V119.179H3235.57V101.419H3287.29V168.28H3304V84.7031H3218.86V135.894Z" fill="#C9A227"/>
<path d="M3304 35.6016H2817V52.3176H3304V35.6016Z" fill="#C9A227"/>
<path d="M3304 200.666H2817V286.332H3304V200.666Z" fill="#C9A227"/>
<path d="M5653.86 137.894H5689.38V153.564C5677.96 153.564 5648.73 153.564 5638.8 153.564V86.7031H5554.72L5555.02 136.85H5588.92V153.565H5539.3V86.7031H5454.15V137.894H5489.67V153.564H5436.65V86.7031H5352.57L5352.86 136.85H5386.77V153.565H5337.14V86.7031H5252V137.894H5287.52V170.28H5304.24V121.179H5268.72V103.419H5320.43V170.28H5403.49V120.134H5369.48L5369.39 103.419H5419.94V170.28H5506.39V121.179H5470.87V103.419H5522.58V170.28H5605.64V120.134H5571.63L5571.54 103.419H5622.09V170.28C5638.76 170.28 5690.58 170.28 5706.09 170.28V121.179H5670.57V103.419H5722.29V170.28H5739V86.7031H5653.86V137.894Z" fill="#C9A227"/>
<path d="M5739 37.6016H5252V54.3176H5739V37.6016Z" fill="#C9A227"/>
<path d="M5739 202.666H5252V288.332H5739V202.666Z" fill="#C9A227"/>
<path d="M2731.86 136.894H2767.38V152.564C2755.96 152.564 2726.73 152.564 2716.8 152.564V85.7031H2632.72L2633.02 135.85H2666.92V152.565H2617.3V85.7031H2532.15V136.894H2567.67V152.564H2514.65V85.7031H2430.57L2430.86 135.85H2464.77V152.565H2415.14V85.7031H2330V136.894H2365.52V169.28H2382.24V120.179H2346.72V102.419H2398.43V169.28H2481.49V119.134H2447.48L2447.39 102.419H2497.94V169.28H2584.39V120.179H2548.87V102.419H2600.58V169.28H2683.64V119.134H2649.63L2649.54 102.419H2700.09V169.28C2716.76 169.28 2768.58 169.28 2784.09 169.28V120.179H2748.57V102.419H2800.29V169.28H2817V85.7031H2731.86V136.894Z" fill="#C9A227"/>
<path d="M2817 36.6016H2330V53.3176H2817V36.6016Z" fill="#C9A227"/>
<path d="M2817 201.666H2330V287.332H2817V201.666Z" fill="#C9A227"/>
<path d="M7114.86 136.894H7150.38V152.564C7138.96 152.564 7109.73 152.564 7099.8 152.564V85.7031H7015.72L7016.02 135.85H7049.92V152.565H7000.3V85.7031H6915.15V136.894H6950.67V152.564H6897.65V85.7031H6813.57L6813.86 135.85H6847.77V152.565H6798.14V85.7031H6713V136.894H6748.52V169.28H6765.24V120.179H6729.72V102.419H6781.43V169.28H6864.49V119.134H6830.48L6830.39 102.419H6880.94V169.28H6967.39V120.179H6931.87V102.419H6983.58V169.28H7066.64V119.134H7032.63L7032.54 102.419H7083.09V169.28C7099.76 169.28 7151.58 169.28 7167.09 169.28V120.179H7131.57V102.419H7183.29V169.28H7200V85.7031H7114.86V136.894Z" fill="#C9A227"/>
<path d="M7200 36.6016H6713V53.3176H7200V36.6016Z" fill="#C9A227"/>
<path d="M7200 201.666H6713V287.332H7200V201.666Z" fill="#C9A227"/>
<path d="M4192.86 135.894H4228.38V151.564C4216.96 151.564 4187.73 151.564 4177.8 151.564V84.7031H4093.72L4094.02 134.85H4127.92V151.565H4078.3V84.7031H3993.15V135.894H4028.67V151.564H3975.65V84.7031H3891.57L3891.86 134.85H3925.77V151.565H3876.14V84.7031H3791V135.894H3826.52V168.28H3843.24V119.179H3807.72V101.419H3859.43V168.28H3942.49V118.134H3908.48L3908.39 101.419H3958.94V168.28H4045.39V119.179H4009.87V101.419H4061.58V168.28H4144.64V118.134H4110.63L4110.54 101.419H4161.09V168.28C4177.76 168.28 4229.58 168.28 4245.09 168.28V119.179H4209.57V101.419H4261.29V168.28H4278V84.7031H4192.86V135.894Z" fill="#C9A227"/>
<path d="M4278 35.6016H3791V52.3176H4278V35.6016Z" fill="#C9A227"/>
<path d="M4278 200.666H3791V286.332H4278V200.666Z" fill="#C9A227"/>
</svg>
