<svg width="334" height="334" viewBox="0 0 334 334" fill="none" xmlns="http://www.w3.org/2000/svg">
<circle cx="166.875" cy="166.875" r="166.875" fill="#BF681B"/>
<g clip-path="url(#clip0_52_350)">
<path d="M90.0937 118.644C75.6286 119.795 63.7519 132.466 65.1053 147.35C66.267 160.125 77.561 170.609 90.7794 169.206C101.863 168.03 110.956 158.104 109.485 146.547C108.289 137.158 99.7123 129.44 89.8065 131.017C82.116 132.241 75.7567 139.511 77.5114 147.782C78.1474 150.778 79.8681 153.378 82.3181 155.142C84.7681 156.905 88.1835 157.77 91.5109 156.711C93.6906 156.017 95.4305 154.624 96.61 152.623C97.7894 150.621 98.1722 147.502 96.5952 145.025C95.3239 143.027 94.1571 142.632 92.326 142.324C91.4109 142.17 90.1308 142.113 88.7684 142.999C87.4061 143.886 86.6842 145.718 86.6842 147.014C86.6716 148.003 87.0544 148.956 87.7489 149.66C87.3854 149.555 87.0248 149.409 86.6428 149.133C85.7506 148.491 84.982 147.325 84.7525 146.244C83.9684 142.548 87.144 138.939 90.9682 138.33C96.4086 137.463 101.44 141.995 102.139 147.48C103.051 154.641 97.1468 161.083 89.9968 161.841C81.1305 162.782 73.2808 155.496 72.4789 146.678C71.5179 136.114 80.1909 126.859 90.6809 126.025C90.7742 126.018 90.8682 126.013 90.9615 126.008H239.041C239.134 126.015 239.228 126.018 239.32 126.025C249.81 126.859 258.483 136.114 257.522 146.679C256.72 155.498 248.871 162.783 240.004 161.842C232.854 161.083 226.95 154.641 227.862 147.482C228.56 141.996 233.592 137.465 239.033 138.331C242.857 138.94 246.033 142.549 245.248 146.246C245.018 147.326 244.25 148.493 243.358 149.135C242.976 149.41 242.617 149.557 242.254 149.661C242.947 148.957 243.329 148.004 243.316 147.015C243.316 145.719 242.596 143.887 241.234 143.001C239.872 142.114 238.592 142.172 237.677 142.326C235.846 142.634 234.678 143.03 233.406 145.026C231.83 147.502 232.213 150.622 233.393 152.624C234.572 154.626 236.312 156.019 238.492 156.712C241.819 157.771 245.233 156.907 247.683 155.143C250.133 153.38 251.854 150.779 252.49 147.783C254.244 139.513 247.885 132.243 240.195 131.018C230.29 129.442 221.712 137.159 220.517 146.548C219.045 158.106 228.14 168.031 239.224 169.207C252.442 170.609 263.735 160.127 264.897 147.351C266.25 132.467 254.373 119.795 239.908 118.645C239.607 118.599 239.33 118.617 239.042 118.611H90.9622C90.6742 118.594 90.3699 118.627 90.0945 118.646L90.0937 118.644ZM76.1528 81.6055C74.1086 81.6055 72.4508 83.2632 72.4508 85.3075V92.7114C72.4508 93.6932 72.841 94.635 73.5355 95.3287L88.3434 110.137C89.0379 110.831 89.979 111.221 90.9608 111.221H239.04C240.022 111.221 240.964 110.831 241.658 110.137L256.466 95.3287C257.16 94.6343 257.55 93.6932 257.55 92.7114V85.3075C257.55 83.2632 255.893 81.6055 253.848 81.6055C253.848 81.6055 76.1528 81.6055 76.1528 81.6055ZM79.8548 89.0094H250.146V91.1773L237.506 103.817H92.4934L79.8548 91.1773V89.0094ZM120.577 140.837C118.532 140.837 116.875 142.495 116.875 144.539V248.195C116.875 250.24 118.533 251.897 120.578 251.896C121.309 251.896 122.023 251.68 122.631 251.275L143.688 237.235C144.7 236.561 145.316 235.434 145.337 234.219L146.49 166.813C146.49 166.793 146.49 166.772 146.49 166.751C146.49 164.323 153.937 164.254 153.894 166.685C153.894 166.707 153.894 166.729 153.894 166.751V225.983C153.895 228.028 155.552 229.685 157.597 229.684C158.328 229.684 159.042 229.468 159.65 229.063L181.862 214.255C182.892 213.569 183.51 212.413 183.511 211.175V166.751C183.511 164.279 190.914 164.279 190.914 166.751V203.771C190.915 205.816 192.574 207.473 194.619 207.472C195.193 207.472 195.759 207.338 196.273 207.081L211.081 199.677C212.334 199.05 213.126 197.769 213.127 196.366V144.539C213.127 142.494 211.469 140.837 209.425 140.837H120.577L120.577 140.837ZM124.279 148.241H205.722V194.078L198.318 197.78V166.751C198.318 154.41 176.107 154.41 176.107 166.751V209.194L161.299 219.066V166.751V166.816C161.518 154.434 139.088 154.367 139.088 166.751V166.688L137.969 232.152L124.28 241.278V148.241H124.279Z" fill="#F2C14E"/>
</g>
<defs>
<clipPath id="clip0_52_350">
<rect width="200" height="200" fill="white" transform="translate(65 66.75)"/>
</clipPath>
</defs>
</svg>
