<svg width="334" height="334" viewBox="0 0 334 334" fill="none" xmlns="http://www.w3.org/2000/svg">
<circle cx="166.875" cy="166.875" r="166.875" fill="#BF681B"/>
<path d="M126.686 73.9244C123.203 73.8994 119.963 74.6908 117.49 75.8974C113.099 78.0396 109.64 80.5502 106.899 83.2818C108.18 87.8791 110.003 92.0697 112.814 95.5185C108.852 93.3096 105.544 90.7943 103.036 87.906C101.212 90.5486 99.8836 93.3057 98.891 96.0701C100.155 103.562 102.155 110.5 106.423 115.737C102.331 113.456 98.939 110.848 96.4031 107.84C96.0418 111.981 96.1652 115.61 96.1953 118.171C96.2121 119.592 96.2992 120.97 96.4519 122.312C101.913 129.439 107.869 135.544 115.228 138.738C110.143 138.581 105.506 137.84 101.405 136.404C103.952 140.35 107.446 143.932 111.937 147.288C122.463 155.155 138.589 161.419 159.925 166.419C169.927 168.763 184.343 171.955 197.483 173.99C204.053 175.008 210.309 175.732 215.457 175.929C220.604 176.125 224.731 175.64 226.379 174.949C226.462 174.914 228.739 173.371 230.447 170.996C232.155 168.621 233.653 165.405 233.947 161.579C234.535 153.928 230.608 143.004 210.918 130.06C208.555 128.506 206.391 127.777 202.777 127.648C199.176 133.74 195.342 139.638 191.724 145.282L189.602 148.592L173.359 135.416L175.621 132.681C176.355 131.792 177.081 130.896 177.799 129.994C172.894 130.617 167.484 131.303 160.884 132.077C150.189 133.333 138.658 126.546 133.652 116.751C131.149 111.853 130.504 105.851 133.174 100.259C135.498 95.3916 140.08 91.0334 147.218 87.3963C143.239 80.183 138.167 76.5642 133.106 74.94C130.953 74.2494 128.776 73.9396 126.686 73.9244ZM218.397 84.5185C218.139 84.5212 217.881 84.5286 217.623 84.5408C216.221 84.606 214.675 84.8142 212.958 85.2014C206.641 86.6267 204.034 90.1029 202.356 94.6428C201.778 96.2057 201.384 97.8783 201.089 99.5678L204.799 98.0557C212.758 93.7994 221.68 90.7642 230.368 89.6853C229.43 88.6904 228.347 87.7185 227.028 86.8869C224.879 85.531 222.191 84.483 218.397 84.5185H218.397ZM234.537 96.3822C228.362 96.7818 221.654 98.4713 215.261 101.03C213.134 107.854 210.049 114.544 206.529 121.04C209.634 121.548 212.29 122.547 214.78 124.185C215.474 124.641 216.162 125.104 216.845 125.576L219.972 118.939L222.899 119.862C226.236 120.913 228.451 120.793 229.154 120.369C231.38 119.027 234.039 113.36 234.817 107.222C235.206 104.153 235.227 101.033 234.921 98.4935C234.835 97.7828 234.707 97.0778 234.537 96.3822ZM206.321 105.028L199.62 107.759C195.192 117.676 190.028 125.817 183.229 134.368L187.915 138.169C194.78 127.454 201.814 116.216 206.321 105.028H206.321ZM110.32 154.762C116.577 161.966 124.292 168.857 133.498 175.11C137.066 173.118 140.648 171.257 144.136 169.54C130.417 165.504 119.112 160.715 110.32 154.762ZM154.713 172.394C146.126 176.304 136.28 181.286 127.376 187.032C130.633 187.883 133.69 189.329 136.463 191.093C141.289 194.164 144.125 198.619 144.957 203.388C145.79 208.157 144.845 213.095 143.07 217.96C142.124 220.551 140.927 223.14 139.575 225.691C159.74 215.692 178.302 204.478 196.484 193.013C195.967 188.926 195.509 184.832 195.111 180.733C182.011 178.645 168.079 175.552 158.32 173.265C157.116 172.982 155.913 172.692 154.713 172.394V172.394ZM202.306 181.781C204.98 208.421 209.991 234.054 216.372 259.906H244.182L240.17 250.488C240.052 250.264 236.872 247.543 228.331 248.167L224.73 248.429L221.72 182.941C219.711 183.063 217.536 183.045 215.189 182.955C211.261 182.805 206.892 182.38 202.306 181.781ZM120.937 193.207C119.571 193.234 118.177 193.433 116.746 193.829C111.024 195.413 104.225 200.433 96.7488 211.859C91.4777 219.917 85.1805 231.418 82.6566 241.117C81.3949 245.966 81.1324 250.303 81.9887 253.359C82.6586 255.752 83.8344 257.453 86.1625 258.712C87.1879 256.146 88.4883 253.203 90.3594 250.466C92.9176 246.726 96.8472 243.241 102.343 242.519C106.153 242.019 109.846 241.847 113.429 241.91C115.545 241.947 117.622 242.068 119.664 242.247C120.123 241.747 120.564 241.229 120.986 240.695C126.805 233.283 133.437 223.844 136.465 215.549C137.979 211.402 138.557 207.613 138.03 204.597C137.504 201.582 136.098 199.195 132.688 197.026C128.882 194.604 125.036 193.127 120.937 193.207L120.937 193.207ZM112.086 248.935C109.199 248.929 106.261 249.095 103.26 249.49C100.131 249.901 98.0527 251.673 96.1637 254.435C95.2035 255.84 94.3765 257.464 93.6332 259.129L158.456 259.245C158.166 258.767 157.789 258.333 157.132 257.853C155.316 256.526 150.721 254.846 141.646 253.063C132.438 251.253 123.168 249.134 113.32 248.948C112.91 248.94 112.498 248.936 112.086 248.935Z" fill="#F2C14E"/>
</svg>
