<svg width="334" height="334" viewBox="0 0 334 334" fill="none" xmlns="http://www.w3.org/2000/svg">
<circle cx="166.875" cy="166.875" r="166.875" fill="#BF681B"/>
<g clip-path="url(#clip0_52_369)">
<path d="M146.698 173.525C143.205 171.039 140.016 168.722 137.677 166.93C134.412 164.432 130.041 160.712 125.27 156.496C120.495 152.282 115.329 147.579 110.561 143.182C107.075 139.965 103.801 136.913 101.049 134.33L73.9277 227.103L83.7832 227.1L97.0848 189.663H124.67L118.76 207.395L101.025 206.901L85.7531 264.788C85.7531 264.788 145.363 271.438 151.766 252.718C154.712 244.104 157.448 235.392 159.546 228.488L168.47 188.671C164.477 185.939 154.787 179.285 146.698 173.525Z" fill="#F2C14E"/>
<path d="M249.799 250.751C230.585 229.317 252.263 195.569 252.263 148.773C252.263 101.977 214.573 66.75 167.776 66.75C141.755 66.75 114.221 74.5641 92.5607 89.0316C89.8748 90.8266 88.3178 94.9602 93.6334 96.5734C102.269 99.1875 115.553 105.066 125.796 117.842C134.413 115.109 145.686 112.583 157.808 112.573C167.758 112.573 178.299 114.296 188.264 119.137C198.226 123.964 207.55 131.938 214.951 144.086C217.499 148.257 219.244 152.562 220.345 156.862C221.452 161.161 221.911 165.454 221.911 169.622C221.902 181.082 218.459 191.597 215.067 199.296C214.385 200.837 213.703 202.26 213.053 203.561C217.843 205.387 220.932 211.547 222.705 225.624C226.154 252.965 237.479 259.771 245.365 264.787C253.492 269.963 262.375 264.775 249.799 250.751Z" fill="#F2C14E"/>
<path d="M200.537 217.741C199.871 211.088 201.904 206.47 205.115 204.312C206.225 202.351 207.607 199.724 208.983 196.607C212.15 189.453 215.271 179.725 215.261 169.623C215.261 165.945 214.855 162.215 213.907 158.516C212.954 154.814 211.466 151.14 209.277 147.55C202.466 136.409 194.205 129.424 185.357 125.119C176.508 120.816 167.002 119.225 157.809 119.225C147.538 119.215 137.704 121.229 129.855 123.556C131.988 126.96 133.908 130.744 135.509 134.984C135.509 134.984 129.646 138.755 122.551 145.134C124.962 147.316 127.366 149.477 129.668 151.513C134.382 155.677 138.698 159.342 141.718 161.65C143.663 163.138 146.324 165.08 149.276 167.19C152.227 169.304 155.476 171.589 158.616 173.782C164.9 178.165 170.77 182.19 173.065 183.753C173.718 184.203 174.081 184.447 174.081 184.447L175.951 185.72L167.671 222.66C173.743 232.713 186.732 248.657 207.435 247.299C213.842 247.299 213.348 240.402 213.348 240.402C213.348 240.402 201.522 227.594 200.537 217.741Z" fill="#F2C14E"/>
</g>
<defs>
<clipPath id="clip0_52_369">
<rect width="200" height="200" fill="white" transform="translate(65 66.75)"/>
</clipPath>
</defs>
</svg>
