<svg width="3015" height="1683" viewBox="0 0 3015 1683" fill="none" xmlns="http://www.w3.org/2000/svg">
<path d="M2903.79 1547.18H2845.15L2818.96 695.646L2842.61 664.046L2845.22 660.57V656.224V642.05H2868.13V367.835H2928.33V294.262L1507.08 0L85.8394 294.276V367.849H146.038V642.064H170.796V656.238V660.584L173.389 664.06L197.039 695.659L170.852 1547.2H110.359V1591.79H0V1682.09H1507.06H3014.12V1591.79H2903.76V1547.18H2903.79ZM210.147 694.005C228.835 694.005 275.799 694.005 306.459 694.005L332.31 1549.4H268.804H183.847L210.147 694.005ZM2478.1 628.087L2317.99 640.732L2478.1 653.378V655.116H2308.19V626.012H2393.14H2478.1V628.087ZM2334.49 694.005C2353.17 694.005 2400.14 694.005 2430.8 694.005L2456.65 1549.4H2393.14H2308.19L2334.49 694.005ZM2491.08 1547.18L2464.89 695.646L2488.54 664.046L2491.15 660.57V656.224V642.05H2649.2V656.224V660.57L2651.81 664.046L2675.46 695.646L2649.27 1547.18H2491.08ZM2832.17 628.087L2672.05 640.732L2832.17 653.378V655.116H2662.24V626.012H2747.2H2832.17V628.087ZM2688.54 694.005C2707.23 694.005 2754.19 694.005 2784.85 694.005L2810.7 1549.4H2747.2H2662.24L2688.54 694.005ZM2832.17 582.707H181.997V375.924H2832.17V582.707ZM1980.43 694.005C1999.12 694.005 2046.08 694.005 2076.74 694.005L2102.6 1549.4H2039.09H1954.13L1980.43 694.005ZM2124.05 628.087L1963.93 640.732L2124.05 653.378V655.116H1954.12V626.012H2039.07H2124.05V628.087ZM1943.62 1466.91L1943.45 1472.53C1926 1472.9 1907 1473.25 1886.59 1473.49C1854.32 1473.82 1818.69 1474.45 1780.76 1474.93L1780.44 1464.53C1818.48 1465 1854.22 1465.62 1886.59 1465.97C1907.06 1466.2 1926.11 1466.55 1943.62 1466.91ZM1626.38 694.005C1645.07 694.005 1692.03 694.005 1722.69 694.005L1748.54 1549.4H1685.03H1600.06L1626.38 694.005ZM1769.99 628.087L1609.88 640.732L1769.99 653.378V655.116H1600.06V626.012H1685.03H1769.99V628.087ZM1589.66 1463.39L1589.27 1476.04C1562.03 1476.15 1534.59 1476.28 1507.08 1476.39C1480.19 1476.28 1453.37 1476.15 1426.73 1476.04L1426.34 1463.38C1453.1 1463.27 1480.05 1463.14 1507.08 1463.03C1534.72 1463.17 1562.3 1463.28 1589.66 1463.39ZM1272.32 694.005C1291.01 694.005 1337.98 694.005 1368.64 694.005L1394.49 1549.4H1330.98H1246.02L1272.32 694.005ZM1415.94 628.087L1255.82 640.732L1415.94 653.378V655.116H1246.01V626.012H1330.97H1415.92L1415.94 628.087ZM1235.57 1464.51L1235.24 1474.92C1196.62 1474.44 1160.35 1473.82 1127.56 1473.47C1107.89 1473.08 1089.49 1472.73 1072.55 1472.39L1072.38 1467.05C1089.37 1466.71 1107.82 1466.35 1127.56 1465.97C1160.45 1465.62 1196.83 1464.99 1235.57 1464.51ZM918.256 694.005C936.943 694.005 983.908 694.005 1014.57 694.005L1040.42 1549.4H976.912H891.942L918.256 694.005ZM1061.88 628.087L901.769 640.732L1061.88 653.378V655.116H891.956V626.012H976.926H1061.88V628.087ZM880.222 1506.43L880.012 1513.26C857.581 1512.68 837.562 1512.15 820.668 1511.81C779.606 1510.57 756.138 1509.85 756.138 1509.85C756.138 1509.85 779.606 1509.14 820.668 1507.89C837.618 1507.55 857.707 1507.01 880.222 1506.43ZM1073.92 1516.76L1073.5 1502.95C1122.82 1502.15 1175.91 1501.33 1231.35 1501.09C1232.37 1501.09 1233.44 1501.08 1234.44 1501.08L1233.9 1518.66C1233.06 1518.66 1232.17 1518.64 1231.33 1518.64C1176.07 1518.37 1123.12 1517.55 1073.92 1516.76ZM1428.06 1519.58L1427.46 1500.12C1453.93 1500 1480.47 1499.86 1507.08 1499.73C1534.29 1499.86 1561.46 1500 1588.53 1500.12L1587.92 1519.58C1561.05 1519.71 1534.08 1519.85 1507.06 1519.97C1480.68 1519.83 1454.34 1519.71 1428.06 1519.58ZM1782.8 1518.64C1782.57 1518.64 1782.33 1518.64 1782.09 1518.64L1781.54 1501.06C1781.95 1501.06 1782.38 1501.06 1782.8 1501.06C1838.95 1501.27 1892.66 1502.13 1942.5 1502.94L1942.08 1516.76C1892.35 1517.56 1838.78 1518.43 1782.8 1518.64ZM2135.99 1513.23L2135.78 1506.46C2157.55 1507.02 2177 1507.54 2193.48 1507.87C2234.54 1509.14 2258.01 1509.85 2258.01 1509.85C2258.01 1509.85 2234.54 1510.57 2193.48 1511.83C2177.04 1512.15 2157.68 1512.67 2135.99 1513.23ZM366.742 1547.18L340.554 695.646L364.204 664.046L366.798 660.57V656.224V642.05H524.85V656.224V660.57L527.457 664.046L551.108 695.646L524.92 1547.18H366.742ZM564.202 694.005C582.889 694.005 629.853 694.005 660.513 694.005L686.365 1549.4H622.858H537.888L564.202 694.005ZM707.828 628.087L547.715 640.732L707.828 653.378V655.116H537.902V626.012H622.872H707.828V628.087ZM183.847 626.012H268.804H353.76V628.101L193.647 640.746L353.76 653.392V655.116H183.847V626.012ZM659.686 1567.96C775.246 1567.36 910.055 1566.67 1054.49 1565.91C1198.93 1565.63 1353 1565.33 1507.08 1565.03C1661.15 1565.33 1815.22 1565.63 1959.66 1565.91C2104.1 1566.66 2238.9 1567.36 2354.46 1567.95C2585.57 1570.2 2739.64 1571.72 2739.64 1571.72C2739.64 1571.72 2585.57 1573.22 2354.46 1575.49C2238.9 1576.08 2104.1 1576.78 1959.66 1577.52C1815.22 1577.8 1661.15 1578.1 1507.08 1578.4C1353 1578.1 1198.93 1577.8 1054.49 1577.52C910.055 1576.78 775.246 1576.08 659.686 1575.47C428.58 1573.23 274.509 1571.73 274.509 1571.73C274.509 1571.73 428.58 1570.22 659.686 1567.96ZM1507.08 47.8615L2853.6 326.675H160.548L1507.08 47.8615ZM2495.43 1655.17C2360.65 1655.76 2203.42 1656.46 2034.94 1657.21C1866.47 1657.49 1686.77 1657.78 1507.08 1658.09C1327.38 1657.78 1147.68 1657.49 979.211 1657.21C810.743 1656.46 653.504 1655.76 518.723 1655.16C249.177 1652.92 69.465 1651.42 69.465 1651.42C69.465 1651.42 249.163 1649.92 518.723 1647.66C653.504 1647.06 810.729 1646.37 979.211 1645.61C1147.68 1645.33 1327.38 1645.02 1507.08 1644.73C1686.77 1645.02 1866.47 1645.33 2034.94 1645.61C2203.41 1646.36 2360.65 1647.06 2495.43 1647.65C2764.97 1649.9 2944.69 1651.42 2944.69 1651.42C2944.69 1651.42 2764.97 1652.92 2495.43 1655.17ZM2944.69 1611.28C2944.69 1611.28 2764.99 1612.78 2495.43 1615.05C2360.65 1615.64 2203.42 1616.34 2034.94 1617.08C1866.47 1617.36 1686.77 1617.66 1507.08 1617.97C1327.38 1617.66 1147.68 1617.36 979.211 1617.08C810.743 1616.34 653.504 1615.64 518.723 1615.04C249.177 1612.78 69.465 1611.28 69.465 1611.28C69.465 1611.28 249.163 1609.78 518.723 1607.54C653.504 1606.93 810.729 1606.25 979.211 1605.49C1147.68 1605.21 1327.38 1604.9 1507.08 1604.61C1686.77 1604.9 1866.47 1605.21 2034.94 1605.49C2203.41 1606.23 2360.65 1606.93 2495.43 1607.52C2764.97 1609.78 2944.69 1611.28 2944.69 1611.28Z" fill="#C9A227"/>
<path d="M2805.4 402.688H208.744V555.959H2805.4V402.688ZM2653.49 514.196C2584.91 515.009 2486.92 517.028 2369.34 517.925C2251.76 518.752 2114.58 520.673 1967.6 521.009C1820.63 521.43 1663.85 521.893 1507.07 522.341C1350.3 521.879 1193.52 521.43 1046.54 520.995C899.567 520.603 762.389 518.738 644.811 517.897C527.232 516.355 429.252 515.079 360.656 514.182C292.06 512.934 252.876 512.219 252.876 512.219C252.876 512.219 292.074 511.504 360.656 510.257C429.238 509.359 527.232 508.084 644.811 506.542C762.389 505.7 899.567 503.836 1046.54 503.443C1193.52 503.009 1350.3 502.56 1507.07 502.097C1663.85 502.546 1820.63 503.009 1967.6 503.429C2114.58 503.766 2251.76 505.686 2369.34 506.513C2486.92 507.411 2584.9 509.43 2653.49 510.243C2722.09 511.504 2761.27 512.219 2761.27 512.219C2761.27 512.219 2722.07 512.948 2653.49 514.196ZM2653.49 447.311C2584.91 448.124 2486.92 450.142 2369.34 451.04C2251.76 451.867 2114.58 453.787 1967.6 454.124C1820.63 454.544 1663.85 455.007 1507.07 455.456C1350.3 454.993 1193.52 454.544 1046.54 454.11C899.567 453.717 762.389 451.853 644.811 451.012C527.232 449.469 429.252 448.194 360.656 447.297C292.06 446.049 252.876 445.334 252.876 445.334C252.876 445.334 292.074 444.619 360.656 443.371C429.238 442.474 527.232 441.198 644.811 439.656C762.389 438.815 899.567 436.95 1046.54 436.558C1193.52 436.123 1350.3 435.675 1507.07 435.212C1663.85 435.661 1820.63 436.123 1967.6 436.544C2114.58 436.88 2251.76 438.801 2369.34 439.628C2486.92 440.525 2584.9 442.544 2653.49 443.357C2722.09 444.619 2761.27 445.334 2761.27 445.334C2761.27 445.334 2722.07 446.063 2653.49 447.311Z" fill="#C9A227"/>
<path d="M2393.14 279.235L1668.03 108.509L1507.09 75.1855L521.625 279.235H2393.14ZM1386.5 121.323C1393.72 120.748 1404.02 119.542 1416.38 118.799C1441.11 117.103 1474.1 115.981 1507.07 115.939C1540.06 115.981 1573.04 117.089 1597.77 118.785C1610.13 119.528 1620.43 120.748 1627.65 121.323C1634.87 122.038 1639 122.626 1639 122.626C1639 122.626 1634.87 123.215 1627.65 123.93C1620.43 124.505 1610.13 125.725 1597.77 126.468C1573.04 128.164 1540.05 129.272 1507.07 129.314C1474.09 129.272 1441.11 128.15 1416.38 126.454C1404.02 125.697 1393.72 124.505 1386.5 123.93C1379.28 123.229 1375.15 122.64 1375.15 122.64C1375.15 122.64 1379.28 122.024 1386.5 121.323ZM1233.1 171.217C1249.49 170.572 1272.91 169.002 1301.01 168.273C1329.1 167.572 1361.89 166.226 1397.01 165.721C1432.14 165.048 1469.6 164.922 1507.07 164.754C1582.01 164.796 1656.94 166.128 1713.14 168.161C1741.25 169.058 1764.66 170.516 1781.05 171.203C1797.44 172.198 1806.8 172.759 1806.8 172.759C1806.8 172.759 1797.44 173.334 1781.05 174.315C1764.66 175.002 1741.24 176.46 1713.14 177.357C1656.94 179.404 1582.01 180.722 1507.07 180.764C1469.6 180.596 1432.14 180.47 1397.01 179.797C1361.89 179.292 1329.1 177.946 1301.01 177.245C1272.9 176.516 1249.49 174.946 1233.1 174.301C1216.71 173.32 1207.34 172.745 1207.34 172.745C1207.34 172.745 1216.71 172.212 1233.1 171.217ZM1115.55 222.471C1168.93 221.658 1231.23 219.849 1297.96 219.471C1364.7 219.05 1435.89 218.616 1507.07 218.167C1578.26 218.602 1649.45 219.05 1716.18 219.457C1782.93 219.779 1845.22 221.644 1898.6 222.457C1951.99 223.326 1996.48 225.289 2027.64 226.074C2058.79 227.294 2076.58 227.981 2076.58 227.981C2076.58 227.981 2058.77 228.681 2027.64 229.901C1996.48 230.7 1952 232.649 1898.6 233.518C1845.22 234.317 1782.92 236.182 1716.18 236.518C1649.45 236.925 1578.26 237.373 1507.07 237.808C1435.89 237.359 1364.7 236.911 1297.96 236.504C1231.23 236.126 1168.93 234.317 1115.55 233.504C1062.16 232.607 1017.67 230.686 986.515 229.901C955.364 228.696 937.574 227.995 937.574 227.995C937.574 227.995 955.378 227.308 986.515 226.088C1017.67 225.275 1062.15 223.354 1115.55 222.471Z" fill="#C9A227"/>
<path d="M2743.54 1412.45C2744.13 1451.73 2745.4 1484.46 2745.94 1507.38C2746.74 1530.31 2747.2 1543.4 2747.2 1543.4C2747.2 1543.4 2747.66 1530.31 2748.46 1507.38C2748.98 1484.46 2750.27 1451.73 2750.86 1412.45C2751.39 1373.17 2752.6 1327.34 2752.85 1278.23C2753.13 1229.12 2753.42 1176.74 2753.72 1124.37C2753.42 1071.99 2753.13 1019.6 2752.86 970.507C2752.64 921.397 2751.4 875.569 2750.87 836.287C2750.3 797.005 2748.99 764.271 2748.47 741.349C2747.66 718.428 2747.2 705.334 2747.2 705.334C2747.2 705.334 2746.74 718.428 2745.94 741.349C2745.4 764.271 2744.11 797.005 2743.54 836.287C2743.01 875.569 2741.77 921.397 2741.55 970.507C2741.27 1019.62 2740.99 1071.99 2740.69 1124.37C2740.99 1176.74 2741.28 1229.12 2741.56 1278.23C2741.8 1327.32 2743.01 1373.17 2743.54 1412.45Z" fill="#C9A227"/>
<path d="M2714.74 1543.4C2714.74 1543.4 2715.21 1530.3 2716.02 1507.4C2716.78 1484.49 2717.86 1451.76 2719.15 1412.49C2720.07 1373.21 2721.16 1327.38 2722.33 1278.28C2723.15 1229.19 2724.04 1176.8 2724.92 1124.42C2725.36 1072.05 2725.8 1019.66 2726.21 970.547C2726.28 921.438 2726.35 875.595 2726.41 836.3C2726.48 797.004 2725.8 764.255 2725.68 741.334C2725.44 718.412 2725.31 705.318 2725.31 705.318C2725.31 705.318 2724.85 718.412 2724.04 741.32C2723.34 764.227 2721.82 796.948 2720.91 836.229C2719.99 875.511 2718.89 921.34 2717.73 970.435C2716.9 1019.54 2716.03 1071.92 2715.15 1124.3C2714.72 1176.69 2714.27 1229.06 2713.86 1278.17C2713.79 1327.28 2713.72 1373.12 2713.66 1412.42C2713.96 1451.71 2714.21 1484.46 2714.39 1507.38C2714.62 1530.29 2714.74 1543.4 2714.74 1543.4Z" fill="#C9A227"/>
<path d="M2768.58 1124.48C2769.54 1176.85 2770.47 1229.23 2771.93 1278.32C2773.2 1327.42 2775.31 1373.23 2776.65 1412.5C2778.01 1451.77 2780.17 1484.49 2781.19 1507.4C2782.58 1530.29 2783.38 1543.38 2783.38 1543.38C2783.38 1543.38 2783.79 1530.28 2784.47 1507.34C2784.81 1484.42 2785.98 1451.66 2786.16 1412.36C2786.31 1373.07 2787.03 1327.21 2786.82 1278.1C2786.79 1228.98 2786.13 1176.6 2785.51 1124.23C2784.54 1071.85 2783.65 1019.47 2782.18 970.379C2780.93 921.284 2778.78 875.469 2777.45 836.201C2776.11 796.934 2773.93 764.213 2772.89 741.306C2771.49 718.412 2770.69 705.318 2770.69 705.318C2770.69 705.318 2770.29 718.426 2769.59 741.348C2769.25 764.269 2768.06 797.032 2767.9 836.328C2767.75 875.623 2767.01 921.48 2767.23 970.589C2767.29 1019.73 2767.96 1072.1 2768.58 1124.48Z" fill="#C9A227"/>
<path d="M2394.41 1507.38C2394.94 1484.46 2396.21 1451.73 2396.8 1412.45C2397.34 1373.17 2398.54 1327.34 2398.79 1278.23C2399.07 1229.12 2399.37 1176.74 2399.66 1124.37C2399.37 1071.99 2399.07 1019.6 2398.81 970.507C2398.6 921.397 2397.35 875.569 2396.82 836.287C2396.24 797.005 2394.94 764.271 2394.42 741.349C2393.61 718.428 2393.16 705.334 2393.16 705.334C2393.16 705.334 2392.69 718.428 2391.88 741.349C2391.35 764.271 2390.06 797.005 2389.48 836.287C2388.95 875.569 2387.72 921.397 2387.49 970.507C2387.23 1019.62 2386.93 1071.99 2386.64 1124.37C2386.93 1176.74 2387.23 1229.12 2387.51 1278.23C2387.76 1327.34 2388.97 1373.17 2389.5 1412.45C2390.09 1451.73 2391.36 1484.46 2391.9 1507.38C2392.69 1530.31 2393.16 1543.4 2393.16 1543.4C2393.16 1543.4 2393.61 1530.29 2394.41 1507.38Z" fill="#C9A227"/>
<path d="M2371.24 705.318C2371.24 705.318 2370.78 718.412 2369.97 741.32C2369.27 764.227 2367.75 796.948 2366.84 836.229C2365.92 875.511 2364.82 921.34 2363.66 970.435C2362.83 1019.54 2361.96 1071.92 2361.08 1124.3C2360.65 1176.69 2360.2 1229.06 2359.79 1278.17C2359.72 1327.28 2359.65 1373.12 2359.59 1412.42C2359.9 1451.71 2360.14 1484.46 2360.32 1507.38C2360.55 1530.3 2360.69 1543.4 2360.69 1543.4C2360.69 1543.4 2361.15 1530.3 2361.96 1507.4C2362.72 1484.49 2363.8 1451.76 2365.09 1412.49C2366.01 1373.21 2367.11 1327.38 2368.27 1278.28C2369.1 1229.19 2369.98 1176.8 2370.87 1124.42C2371.31 1072.05 2371.75 1019.66 2372.15 970.547C2372.22 921.438 2372.29 875.595 2372.35 836.3C2372.42 797.004 2371.75 764.255 2371.62 741.334C2371.37 718.412 2371.24 705.318 2371.24 705.318Z" fill="#C9A227"/>
<path d="M2414.52 1124.48C2415.49 1176.85 2416.42 1229.23 2417.87 1278.32C2419.15 1327.42 2421.25 1373.23 2422.6 1412.5C2423.96 1451.77 2426.12 1484.49 2427.14 1507.4C2428.53 1530.29 2429.33 1543.38 2429.33 1543.38C2429.33 1543.38 2429.72 1530.28 2430.42 1507.34C2430.76 1484.42 2431.92 1451.66 2432.1 1412.36C2432.26 1373.07 2432.97 1327.21 2432.76 1278.1C2432.73 1228.98 2432.07 1176.6 2431.46 1124.23C2430.49 1071.85 2429.59 1019.47 2428.12 970.379C2426.87 921.284 2424.74 875.469 2423.4 836.201C2422.05 796.934 2419.88 764.213 2418.84 741.306C2417.44 718.412 2416.64 705.318 2416.64 705.318C2416.64 705.318 2416.23 718.426 2415.53 741.348C2415.2 764.269 2414 797.032 2413.85 836.328C2413.7 875.623 2412.95 921.48 2413.18 970.589C2413.22 1019.73 2413.91 1072.1 2414.52 1124.48Z" fill="#C9A227"/>
<path d="M2035.43 1412.45C2036.02 1451.73 2037.29 1484.46 2037.83 1507.38C2038.63 1530.31 2039.09 1543.4 2039.09 1543.4C2039.09 1543.4 2039.55 1530.31 2040.35 1507.38C2040.87 1484.46 2042.16 1451.73 2042.75 1412.45C2043.28 1373.17 2044.49 1327.34 2044.74 1278.23C2045.02 1229.12 2045.31 1176.74 2045.61 1124.37C2045.31 1071.99 2045.02 1019.6 2044.75 970.507C2044.53 921.397 2043.29 875.569 2042.76 836.287C2042.19 797.005 2040.88 764.271 2040.36 741.349C2039.55 718.428 2039.09 705.334 2039.09 705.334C2039.09 705.334 2038.63 718.428 2037.83 741.349C2037.29 764.271 2036 797.005 2035.43 836.287C2034.9 875.569 2033.66 921.397 2033.44 970.507C2033.16 1019.62 2032.88 1071.99 2032.58 1124.37C2032.88 1176.74 2033.17 1229.12 2033.45 1278.23C2033.69 1327.32 2034.9 1373.17 2035.43 1412.45Z" fill="#C9A227"/>
<path d="M2007.89 1507.38C2008.65 1484.48 2009.72 1451.74 2011.02 1412.47C2011.95 1373.19 2013.04 1327.36 2014.2 1278.27C2015.03 1229.17 2015.91 1176.78 2016.8 1124.41C2017.23 1072.03 2017.68 1019.64 2018.09 970.533C2018.16 921.424 2018.23 875.582 2018.28 836.286C2018.35 796.99 2017.68 764.241 2017.55 741.32C2017.32 718.399 2017.19 705.305 2017.19 705.305C2017.19 705.305 2016.73 718.399 2015.91 741.306C2015.21 764.213 2013.7 796.934 2012.79 836.216C2011.86 875.497 2010.77 921.326 2009.6 970.421C2008.78 1019.53 2007.91 1071.91 2007.03 1124.28C2006.59 1176.67 2006.14 1229.05 2005.74 1278.16C2005.67 1327.27 2005.6 1373.11 2005.54 1412.4C2005.85 1451.7 2006.1 1484.45 2006.27 1507.37C2006.49 1530.29 2006.63 1543.39 2006.63 1543.39C2006.63 1543.39 2007.1 1530.31 2007.89 1507.38Z" fill="#C9A227"/>
<path d="M2060.47 1124.48C2061.44 1176.85 2062.36 1229.23 2063.82 1278.32C2065.1 1327.42 2067.2 1373.23 2068.54 1412.5C2069.9 1451.77 2072.06 1484.49 2073.09 1507.4C2074.47 1530.29 2075.27 1543.38 2075.27 1543.38C2075.27 1543.38 2075.68 1530.28 2076.37 1507.34C2076.7 1484.42 2077.87 1451.66 2078.05 1412.36C2078.2 1373.07 2078.92 1327.21 2078.71 1278.1C2078.68 1228.98 2078.02 1176.6 2077.4 1124.23C2076.44 1071.85 2075.54 1019.47 2074.07 970.379C2072.82 921.284 2070.68 875.469 2069.34 836.201C2068 796.934 2065.81 764.213 2064.79 741.306C2063.39 718.412 2062.59 705.318 2062.59 705.318C2062.59 705.318 2062.18 718.426 2061.48 741.348C2061.14 764.269 2059.95 797.032 2059.8 836.328C2059.64 875.623 2058.9 921.48 2059.12 970.589C2059.17 1019.73 2059.85 1072.1 2060.47 1124.48Z" fill="#C9A227"/>
<path d="M1681.38 1412.45C1681.96 1451.73 1683.24 1484.46 1683.77 1507.38C1684.57 1530.31 1685.03 1543.4 1685.03 1543.4C1685.03 1543.4 1685.5 1530.31 1686.3 1507.38C1686.83 1484.46 1688.1 1451.73 1688.69 1412.45C1689.23 1373.17 1690.43 1327.34 1690.68 1278.23C1690.96 1229.12 1691.26 1176.74 1691.55 1124.37C1691.26 1071.99 1690.96 1019.6 1690.7 970.507C1690.49 921.397 1689.24 875.569 1688.71 836.287C1688.13 797.005 1686.83 764.271 1686.31 741.349C1685.5 718.428 1685.05 705.334 1685.05 705.334C1685.05 705.334 1684.59 718.428 1683.77 741.349C1683.25 764.271 1681.95 797.005 1681.38 836.287C1680.84 875.569 1679.61 921.397 1679.38 970.507C1679.1 1019.62 1678.82 1071.99 1678.53 1124.37C1678.82 1176.74 1679.12 1229.12 1679.4 1278.23C1679.64 1327.32 1680.83 1373.17 1681.38 1412.45Z" fill="#C9A227"/>
<path d="M1653.84 1507.38C1654.6 1484.48 1655.68 1451.74 1656.97 1412.47C1657.89 1373.19 1658.99 1327.36 1660.15 1278.27C1660.98 1229.17 1661.86 1176.78 1662.73 1124.41C1663.18 1072.03 1663.61 1019.64 1664.02 970.533C1664.09 921.424 1664.16 875.582 1664.22 836.286C1664.29 796.99 1663.61 764.241 1663.49 741.32C1663.25 718.399 1663.12 705.305 1663.12 705.305C1663.12 705.305 1662.66 718.399 1661.85 741.306C1661.15 764.213 1659.63 796.934 1658.72 836.216C1657.8 875.497 1656.7 921.326 1655.54 970.421C1654.71 1019.53 1653.84 1071.91 1652.96 1124.28C1652.52 1176.67 1652.08 1229.05 1651.67 1278.16C1651.6 1327.27 1651.53 1373.11 1651.47 1412.4C1651.77 1451.7 1652.03 1484.45 1652.2 1507.37C1652.43 1530.29 1652.57 1543.39 1652.57 1543.39C1652.57 1543.39 1653.04 1530.31 1653.84 1507.38Z" fill="#C9A227"/>
<path d="M1706.41 1124.48C1707.38 1176.85 1708.3 1229.23 1709.76 1278.32C1711.04 1327.42 1713.14 1373.23 1714.49 1412.5C1715.85 1451.77 1718.01 1484.49 1719.03 1507.4C1720.42 1530.29 1721.22 1543.38 1721.22 1543.38C1721.22 1543.38 1721.61 1530.28 1722.31 1507.34C1722.65 1484.42 1723.81 1451.66 1723.99 1412.36C1724.15 1373.07 1724.86 1327.21 1724.65 1278.1C1724.62 1228.98 1723.96 1176.6 1723.35 1124.23C1722.38 1071.85 1721.48 1019.47 1720.01 970.379C1718.76 921.284 1716.62 875.469 1715.29 836.201C1713.94 796.934 1711.77 764.213 1710.73 741.306C1709.33 718.412 1708.53 705.318 1708.53 705.318C1708.53 705.318 1708.12 718.426 1707.42 741.348C1707.08 764.269 1705.89 797.032 1705.74 836.328C1705.58 875.623 1704.84 921.48 1705.08 970.589C1705.11 1019.73 1705.79 1072.1 1706.41 1124.48Z" fill="#C9A227"/>
<path d="M1327.32 1412.45C1327.91 1451.73 1329.19 1484.46 1329.72 1507.38C1330.52 1530.31 1330.98 1543.4 1330.98 1543.4C1330.98 1543.4 1331.44 1530.31 1332.24 1507.38C1332.76 1484.46 1334.04 1451.73 1334.64 1412.45C1335.17 1373.17 1336.38 1327.34 1336.63 1278.23C1336.91 1229.12 1337.21 1176.74 1337.5 1124.37C1337.21 1071.99 1336.91 1019.6 1336.65 970.507C1336.43 921.397 1335.19 875.569 1334.65 836.287C1334.08 797.005 1332.78 764.271 1332.26 741.349C1331.44 718.428 1330.98 705.334 1330.98 705.334C1330.98 705.334 1330.52 718.428 1329.72 741.349C1329.19 764.271 1327.9 797.005 1327.32 836.287C1326.79 875.569 1325.56 921.397 1325.33 970.507C1325.05 1019.62 1324.77 1071.99 1324.48 1124.37C1324.77 1176.74 1325.07 1229.12 1325.35 1278.23C1325.57 1327.32 1326.78 1373.17 1327.32 1412.45Z" fill="#C9A227"/>
<path d="M1299.79 1507.38C1300.55 1484.48 1301.63 1451.74 1302.92 1412.47C1303.84 1373.19 1304.93 1327.36 1306.1 1278.27C1306.92 1229.17 1307.81 1176.78 1308.69 1124.41C1309.13 1072.03 1309.57 1019.64 1309.98 970.533C1310.05 921.424 1310.12 875.582 1310.18 836.286C1310.25 796.99 1309.57 764.241 1309.45 741.32C1309.21 718.399 1309.08 705.305 1309.08 705.305C1309.08 705.305 1308.62 718.399 1307.81 741.306C1307.11 764.213 1305.59 796.934 1304.68 836.216C1303.76 875.497 1302.66 921.326 1301.5 970.421C1300.67 1019.53 1299.8 1071.91 1298.92 1124.28C1298.49 1176.67 1298.04 1229.05 1297.63 1278.16C1297.56 1327.27 1297.49 1373.11 1297.43 1412.4C1297.74 1451.7 1297.99 1484.45 1298.16 1507.37C1298.4 1530.29 1298.53 1543.39 1298.53 1543.39C1298.53 1543.39 1298.98 1530.31 1299.79 1507.38Z" fill="#C9A227"/>
<path d="M1352.36 1124.48C1353.33 1176.85 1354.25 1229.23 1355.71 1278.32C1356.99 1327.42 1359.09 1373.23 1360.43 1412.5C1361.79 1451.77 1363.95 1484.49 1364.98 1507.4C1366.36 1530.29 1367.16 1543.38 1367.16 1543.38C1367.16 1543.38 1367.56 1530.28 1368.26 1507.34C1368.59 1484.42 1369.76 1451.66 1369.92 1412.36C1370.08 1373.07 1370.79 1327.21 1370.58 1278.1C1370.56 1228.98 1369.9 1176.6 1369.28 1124.23C1368.31 1071.85 1367.42 1019.47 1365.94 970.379C1364.7 921.284 1362.56 875.469 1361.22 836.201C1359.87 796.934 1357.69 764.213 1356.66 741.306C1355.26 718.412 1354.46 705.318 1354.46 705.318C1354.46 705.318 1354.06 718.426 1353.35 741.348C1353.02 764.269 1351.83 797.032 1351.67 836.328C1351.52 875.623 1350.77 921.48 1351 970.589C1351.05 1019.73 1351.74 1072.1 1352.36 1124.48Z" fill="#C9A227"/>
<path d="M973.268 1412.45C973.857 1451.73 975.132 1484.46 975.665 1507.38C976.464 1530.31 976.927 1543.4 976.927 1543.4C976.927 1543.4 977.389 1530.31 978.189 1507.38C978.721 1484.46 979.997 1451.73 980.586 1412.45C981.118 1373.17 982.324 1327.34 982.576 1278.23C982.857 1229.12 983.151 1176.74 983.446 1124.37C983.151 1071.99 982.857 1019.6 982.59 970.507C982.366 921.397 981.132 875.569 980.6 836.287C980.025 797.005 978.721 764.271 978.203 741.349C977.389 718.428 976.941 705.334 976.941 705.334C976.941 705.334 976.478 718.428 975.665 741.349C975.146 764.271 973.842 797.005 973.268 836.287C972.735 875.569 971.501 921.397 971.277 970.507C970.997 1019.62 970.716 1071.99 970.422 1124.37C970.716 1176.74 971.011 1229.12 971.291 1278.23C971.515 1327.32 972.721 1373.17 973.268 1412.45Z" fill="#C9A227"/>
<path d="M945.733 1507.38C946.49 1484.48 947.555 1451.74 948.845 1412.47C949.784 1373.19 950.863 1327.36 952.027 1278.27C952.854 1229.17 953.737 1176.78 954.621 1124.41C955.069 1072.03 955.504 1019.64 955.91 970.533C955.98 921.424 956.051 875.582 956.107 836.286C956.177 796.99 955.504 764.241 955.378 741.32C955.139 718.399 955.013 705.305 955.013 705.305C955.013 705.305 954.551 718.399 953.737 741.306C953.036 764.213 951.522 796.934 950.611 836.216C949.686 875.497 948.592 921.326 947.429 970.421C946.602 1019.53 945.732 1071.91 944.849 1124.28C944.415 1176.67 943.966 1229.05 943.56 1278.16C943.489 1327.27 943.419 1373.11 943.363 1412.4C943.658 1451.7 943.91 1484.45 944.092 1507.37C944.331 1530.29 944.457 1543.39 944.457 1543.39C944.457 1543.39 944.919 1530.31 945.733 1507.38Z" fill="#C9A227"/>
<path d="M998.293 1124.48C999.26 1176.85 1000.19 1229.23 1001.64 1278.32C1002.92 1327.42 1005.02 1373.23 1006.37 1412.5C1007.73 1451.77 1009.89 1484.49 1010.91 1507.4C1012.3 1530.29 1013.1 1543.38 1013.1 1543.38C1013.1 1543.38 1013.49 1530.28 1014.19 1507.34C1014.53 1484.42 1015.69 1451.66 1015.87 1412.36C1016.03 1373.07 1016.74 1327.21 1016.53 1278.1C1016.5 1228.98 1015.84 1176.6 1015.23 1124.23C1014.26 1071.85 1013.36 1019.47 1011.89 970.379C1010.64 921.284 1008.51 875.469 1007.17 836.201C1005.82 796.934 1003.65 764.213 1002.61 741.306C1001.21 718.412 1000.41 705.318 1000.41 705.318C1000.41 705.318 1000 718.426 999.302 741.348C998.966 764.269 997.774 797.032 997.62 836.328C997.465 875.623 996.722 921.48 996.961 970.589C997.003 1019.73 997.676 1072.1 998.293 1124.48Z" fill="#C9A227"/>
<path d="M624.118 1507.38C624.651 1484.46 625.927 1451.73 626.515 1412.45C627.048 1373.17 628.254 1327.34 628.506 1278.23C628.787 1229.12 629.081 1176.74 629.375 1124.37C629.081 1071.99 628.787 1019.6 628.52 970.507C628.31 921.397 627.062 875.569 626.529 836.287C625.955 797.005 624.651 764.271 624.132 741.349C623.319 718.428 622.87 705.334 622.87 705.334C622.87 705.334 622.408 718.428 621.595 741.349C621.062 764.271 619.772 797.005 619.197 836.287C618.665 875.569 617.431 921.397 617.207 970.507C616.926 1019.62 616.646 1071.99 616.352 1124.37C616.646 1176.74 616.94 1229.12 617.221 1278.23C617.473 1327.34 618.679 1373.17 619.211 1412.45C619.8 1451.73 621.076 1484.46 621.609 1507.38C622.408 1530.31 622.87 1543.4 622.87 1543.4C622.87 1543.4 623.319 1530.29 624.118 1507.38Z" fill="#C9A227"/>
<path d="M600.961 705.318C600.961 705.318 600.498 718.412 599.685 741.32C598.984 764.227 597.47 796.948 596.558 836.229C595.633 875.511 594.54 921.34 593.376 970.435C592.549 1019.54 591.68 1071.92 590.797 1124.3C590.362 1176.69 589.913 1229.06 589.507 1278.17C589.437 1327.28 589.367 1373.12 589.311 1412.42C589.619 1451.71 589.857 1484.46 590.04 1507.38C590.264 1530.3 590.404 1543.4 590.404 1543.4C590.404 1543.4 590.867 1530.3 591.68 1507.4C592.437 1484.49 593.516 1451.76 594.806 1412.49C595.731 1373.21 596.825 1327.38 597.988 1278.28C598.816 1229.19 599.699 1176.8 600.582 1124.42C601.017 1072.05 601.465 1019.66 601.872 970.547C601.942 921.438 602.012 875.595 602.068 836.3C602.138 797.004 601.465 764.255 601.325 741.334C601.101 718.412 600.961 705.318 600.961 705.318Z" fill="#C9A227"/>
<path d="M644.236 1124.48C645.204 1176.85 646.129 1229.23 647.587 1278.32C648.863 1327.42 650.966 1373.23 652.311 1412.5C653.671 1451.77 655.83 1484.49 656.854 1507.4C658.242 1530.29 659.041 1543.38 659.041 1543.38C659.041 1543.38 659.433 1530.28 660.134 1507.34C660.471 1484.42 661.634 1451.66 661.802 1412.36C661.957 1373.07 662.672 1327.21 662.461 1278.1C662.433 1228.98 661.774 1176.6 661.157 1124.23C660.19 1071.85 659.293 1019.47 657.821 970.379C656.573 921.284 654.428 875.469 653.096 836.201C651.751 796.934 649.564 764.213 648.54 741.306C647.138 718.412 646.339 705.318 646.339 705.318C646.339 705.318 645.933 718.426 645.232 741.348C644.895 764.269 643.704 797.032 643.549 836.328C643.395 875.623 642.652 921.48 642.89 970.589C642.947 1019.73 643.619 1072.1 644.236 1124.48Z" fill="#C9A227"/>
<path d="M265.143 1412.45C265.732 1451.73 267.007 1484.46 267.54 1507.38C268.339 1530.31 268.802 1543.4 268.802 1543.4C268.802 1543.4 269.264 1530.31 270.064 1507.38C270.596 1484.46 271.872 1451.73 272.461 1412.45C272.993 1373.17 274.199 1327.34 274.452 1278.23C274.732 1229.12 275.026 1176.74 275.321 1124.37C275.026 1071.99 274.732 1019.6 274.466 970.507C274.255 921.397 273.008 875.569 272.475 836.287C271.9 797.005 270.596 764.271 270.078 741.349C269.264 718.428 268.816 705.334 268.816 705.334C268.816 705.334 268.353 718.428 267.54 741.349C267.021 764.271 265.718 797.005 265.143 836.287C264.61 875.569 263.376 921.397 263.152 970.507C262.886 1019.62 262.591 1071.99 262.297 1124.37C262.591 1176.74 262.886 1229.12 263.166 1278.23C263.404 1327.32 264.61 1373.17 265.143 1412.45Z" fill="#C9A227"/>
<path d="M236.349 1543.4C236.349 1543.4 236.812 1530.3 237.625 1507.4C238.382 1484.49 239.447 1451.76 240.751 1412.49C241.676 1373.21 242.77 1327.38 243.933 1278.28C244.761 1229.19 245.644 1176.8 246.513 1124.42C246.962 1072.05 247.396 1019.66 247.817 970.547C247.887 921.438 247.957 875.595 248.013 836.3C248.083 797.004 247.41 764.255 247.284 741.334C247.046 718.412 246.919 705.318 246.919 705.318C246.919 705.318 246.457 718.412 245.644 741.32C244.943 764.227 243.429 796.948 242.517 836.229C241.592 875.511 240.499 921.34 239.335 970.435C238.508 1019.54 237.639 1071.92 236.756 1124.3C236.321 1176.69 235.872 1229.06 235.466 1278.17C235.396 1327.28 235.326 1373.12 235.27 1412.42C235.564 1451.71 235.816 1484.46 235.999 1507.38C236.209 1530.29 236.349 1543.4 236.349 1543.4Z" fill="#C9A227"/>
<path d="M290.183 1124.48C291.151 1176.85 292.076 1229.23 293.534 1278.32C294.81 1327.42 296.912 1373.23 298.258 1412.5C299.618 1451.77 301.777 1484.49 302.8 1507.4C304.188 1530.29 304.987 1543.38 304.987 1543.38C304.987 1543.38 305.38 1530.28 306.081 1507.34C306.417 1484.42 307.581 1451.66 307.763 1412.36C307.917 1373.07 308.632 1327.21 308.422 1278.1C308.394 1228.98 307.735 1176.6 307.118 1124.23C306.151 1071.85 305.254 1019.47 303.782 970.379C302.534 921.284 300.389 875.469 299.057 836.201C297.712 796.934 295.539 764.213 294.501 741.306C293.099 718.412 292.3 705.318 292.3 705.318C292.3 705.318 291.894 718.426 291.193 741.348C290.856 764.269 289.665 797.032 289.51 836.328C289.356 875.623 288.613 921.48 288.851 970.589C288.893 1019.73 289.566 1072.1 290.183 1124.48Z" fill="#C9A227"/>
</svg>
