<svg width="819" height="2142" viewBox="0 0 819 2142" fill="none" xmlns="http://www.w3.org/2000/svg">
<g clip-path="url(#clip0_52_556)">
<path d="M818.558 202.911C818.558 142.253 796.973 90.2907 756.133 52.6424C719.305 18.6861 670.148 0 617.722 0C558.516 0 503.42 23.5927 462.579 66.4227C421.14 109.884 397.484 170.331 393.406 242.13H-230.561C-239.816 76.0409 -351.092 0.0320061 -454.876 0.0158133H-454.909C-507.335 0.0158133 -556.492 18.7024 -593.304 52.6587C-634.128 90.3073 -655.697 142.269 -655.697 202.928C-655.697 330.575 -562.657 397.371 -470.75 397.371C-461.769 397.371 -452.918 396.739 -444.245 395.492C-470.2 487.047 -518.904 658.301 -565.456 819.112C-634.614 1057.95 -655.681 1185.4 -655.681 1364.55C-655.681 1467.78 -626.814 1579.31 -574.421 1678.59C-513.03 1794.89 -422.369 1893.58 -304.734 1972.17V2083.2C-323.715 2093.6 -339.976 2112.97 -339.976 2144.12V2286.67V2321.93H-304.734H81.4548H467.644H502.886V2286.67V2144.12C502.886 2112.97 486.624 2093.6 467.644 2083.2V1972.17C585.263 1893.58 675.94 1794.89 737.331 1678.59C789.74 1579.31 818.591 1467.78 818.591 1364.55C818.591 1185.4 797.507 1057.95 728.366 819.112C681.813 658.301 633.109 487.047 607.155 395.492C615.812 396.739 624.663 397.371 633.643 397.371C725.518 397.355 818.558 330.575 818.558 202.911ZM467.612 2178.47C467.612 2192.57 467.612 2208.44 467.612 2223.61L-287.113 2245.11L467.612 2266.62C467.612 2278.75 467.612 2286.62 467.612 2286.62H81.4386H-304.75C-304.75 2286.62 -304.75 2177.88 -304.75 2144.07C-304.75 2117.01 -282.194 2110.69 -273.181 2109.24H436.059C444.003 2110.52 462.418 2115.67 466.657 2135.46L-287.113 2156.94L467.612 2178.47ZM-405.751 388.886C-402.208 387.331 -398.098 385.145 -393.001 382.02C-372.661 369.6 -351.723 355.367 -335.332 331.061C-327.42 318.787 -320.122 305.266 -315.123 290.32C-313.892 286.58 -312.453 282.872 -311.433 279.018C-310.51 275.131 -309.589 271.212 -308.666 267.262C-307.614 263.343 -307.129 259.279 -306.611 255.214L-305.818 249.077L-305.43 246L-305.236 244.462L-305.187 244.074L-305.106 242.551L-305.09 241.872C-304.993 238.244 -304.896 234.568 -304.799 230.892C-304.831 226.779 -305.285 221.663 -305.608 217.065C-306.66 207.851 -308.132 199.365 -310.802 190.67C-315.818 173.408 -324.103 156.762 -335.332 142.01C-357.58 112.41 -392.419 90.8739 -430.589 85.2387L-437.74 84.332L-441.317 83.8948L-441.77 83.8459L-443.162 83.7646L-443.939 83.7488L-445.508 83.7165L-451.786 83.5705C-453.631 83.441 -456.931 83.7812 -459.44 83.9106C-470.459 84.4448 -479.52 86.7933 -489.309 89.6918C-508.225 96.1855 -525.587 107.195 -539.163 121.737C-552.56 136.392 -562.851 154.123 -567.496 173.327C-568.612 178.12 -569.777 182.913 -570.197 187.788L-570.634 191.431L-570.845 193.245L-570.958 194.151L-571.039 195.803L-571.152 202.102C-571.006 206.604 -570.796 213.129 -569.777 217.679C-569.049 222.667 -567.657 227.476 -566.217 232.253C-559.842 251.183 -547.803 267.747 -532.302 279.293C-516.704 290.936 -498.5 297.413 -479.245 298.335C-460.669 299.372 -441.236 292.782 -427.207 281.365C-412.936 270.014 -403.098 253.952 -399.684 237.078C-398.664 232.771 -398.292 228.933 -398.016 224.156C-397.871 221.177 -398.049 215.558 -398.81 211.413C-400.202 202.911 -403.324 194.88 -407.757 187.917C-416.577 173.894 -430.557 164.292 -445.233 160.649C-449.1 159.677 -452.142 159.239 -456.705 158.835C-458.356 158.835 -459.601 158.721 -461.543 158.802C-463.565 158.948 -465.782 158.996 -467.578 159.369C-474.973 160.519 -481.866 163.272 -487.756 167.125C-499.616 174.833 -507.189 186.994 -509.584 199.154C-510.782 205.114 -510.992 211.04 -509.746 217.129C-506.38 237.662 -488.711 253.384 -467.239 253.384C-443.372 253.384 -424.02 234.018 -424.02 210.134C-424.02 207.64 -424.343 205.227 -424.748 202.847C-423.065 206.603 -421.754 210.554 -421.268 214.699C-420.977 217.533 -420.864 219.072 -421.171 223.233C-421.463 225.565 -421.868 228.965 -422.709 231.686C-428.307 254.955 -452.239 273.561 -478.144 270.646C-490.491 269.448 -503.856 264.25 -513.953 255.748C-524.308 247.296 -531.914 235.556 -535.619 222.715C-536.379 219.461 -537.221 216.222 -537.512 212.886C-538.079 209.227 -537.916 207.316 -537.998 203.462L-537.61 197.179L-536.816 192.71C-536.396 189.213 -535.344 185.844 -534.421 182.476C-530.603 168.972 -522.076 152.956 -512.303 143.095C-473.388 103.779 -399.554 117.284 -364.312 164.68C-356.448 175.254 -348.358 190.491 -345.3 202.653C-343.633 208.596 -342.84 215.137 -342.371 220.724C-342.339 223.573 -342.031 225.84 -342.047 229.096C-342.242 232.771 -342.451 236.431 -342.646 240.057C-343.083 242.778 -343.536 245.498 -343.972 248.187C-344.426 251.215 -344.83 254.243 -345.753 257.109C-346.513 260.024 -347.273 262.906 -348.018 265.772C-348.843 268.606 -350.057 271.294 -351.011 274.03C-353.001 279.584 -355.461 284.814 -358.18 289.786C-355.591 283.39 -353.81 277.075 -352.403 271.196C-350.785 263.78 -349.928 256.914 -349.717 250.858C-349.296 244.818 -349.62 239.556 -349.911 235.281C-350.154 231.006 -350.737 227.654 -351.077 225.403C-351.464 223.153 -351.675 221.938 -351.675 221.938C-351.675 221.938 -351.998 223.12 -352.581 225.322C-353.066 227.524 -354.021 230.731 -355.105 234.763C-357.386 242.794 -360.963 254.032 -366.675 266.371C-369.749 272.443 -373.212 278.823 -377.516 285.009C-381.884 291.146 -386.706 297.332 -392.548 302.902C-398.276 308.343 -404.975 313.978 -411.593 318.107C-414.586 320.196 -420.007 323.175 -422.935 324.778L-434.764 330.317C-442.757 333.539 -450.848 336.615 -459.083 338.235C-463.161 339.401 -467.271 339.919 -471.365 340.356L-477.481 341.117C-479.52 341.149 -481.543 341.182 -483.549 341.214C-485.572 341.263 -487.578 341.312 -489.568 341.36C-491.558 341.198 -493.516 341.036 -495.458 340.874C-497.416 340.728 -499.374 340.582 -501.283 340.437C-503.193 340.097 -505.069 339.773 -506.93 339.449C-508.807 339.141 -510.668 338.834 -512.48 338.542C-514.276 338.089 -516.056 337.636 -517.804 337.199C-521.364 336.469 -524.745 335.481 -527.949 334.332C-531.234 333.377 -534.26 332.162 -537.188 330.98C-540.166 329.912 -542.949 328.794 -545.49 327.548C-550.651 325.216 -555.149 322.965 -558.79 320.99C-566.104 317.022 -570.197 314.302 -570.197 314.302C-570.197 314.302 -567.77 318.593 -562.042 325.038C-559.162 328.228 -555.586 332.146 -550.893 335.952C-546.314 339.919 -540.862 344.227 -534.276 347.935C-533.726 348.275 -533.046 348.566 -532.48 348.906C-581.476 327.207 -620.471 278.58 -620.471 202.911C-620.471 94.889 -539.534 35.2514 -454.892 35.2676C-362.225 35.2837 -265.123 106.807 -265.123 264.639C-265.123 596.736 -461.883 925.902 -461.883 1216.85C-461.883 1507.8 -229.881 1716.47 81.4225 1716.47C392.726 1716.47 624.728 1507.8 624.728 1216.85C624.728 925.902 427.968 596.736 427.968 264.639C427.968 106.791 525.054 35.2676 617.738 35.2676C701.118 35.2676 780.776 93.2705 783.106 198.281C781.747 190.103 779.983 182.573 778.106 176.031C776.019 168.664 773.657 162.446 771.634 157.378C767.443 147.273 764.239 141.946 764.239 141.946C764.239 141.946 765.259 148.115 766.472 158.705C767.055 164.017 767.508 170.461 768.009 177.78C768.349 185.116 768.446 193.358 768.317 202.248C768.041 211.137 767.103 220.642 765.857 230.504C764.919 235.378 763.996 240.382 762.847 245.401C761.181 250.259 760.34 255.457 758.349 260.332C756.262 265.141 754.902 270.339 752.169 274.905L748.496 282.013C747.25 284.362 745.55 286.466 744.11 288.718C742.557 290.903 741.247 293.251 739.531 295.323L734.176 301.364C730.826 305.801 726.683 308.683 722.929 312.148C719.807 315.678 713.593 318.965 708.82 322.349L705.017 324.875L704.596 325.167L703.933 325.508L702.072 326.446L694.694 330.219C684.856 335.174 674.662 338.607 664.565 340.956C659.549 342.429 654.436 342.397 649.484 343.4C644.501 343.74 639.565 343.853 634.743 343.838C625.165 343.108 615.893 342.089 607.527 339.774C605.424 339.223 603.353 338.688 601.347 338.154C599.372 337.474 597.431 336.81 595.553 336.146C591.686 335.012 588.191 333.474 584.841 332.082C578.207 329.216 572.479 326.333 567.836 323.775C563.257 321.119 559.616 318.982 557.221 317.378C554.826 315.743 553.548 314.869 553.548 314.869C553.548 314.869 556.849 320.196 564.616 327.985C568.531 331.806 573.434 336.454 579.761 340.922C585.376 344.971 591.978 349.343 599.729 352.921C592.415 350.395 584.697 347.076 576.817 342.542C561.8 333.943 546.412 321.038 533.855 303.549C527.853 294.675 522.108 284.944 518.193 273.981C517.238 271.245 516.008 268.557 515.199 265.723C514.455 262.857 513.695 259.975 512.934 257.061C512.012 254.178 511.623 251.166 511.154 248.138C510.717 245.45 510.28 242.729 509.828 240.009C509.634 236.382 509.439 232.722 509.228 229.047C509.213 225.792 509.52 223.525 509.552 220.675C510.022 215.089 510.798 208.547 512.481 202.604C515.539 190.443 523.63 175.206 531.494 164.632C566.736 117.236 640.568 103.747 679.484 143.046C689.257 152.908 697.785 168.923 701.603 182.428C702.526 185.812 703.578 189.164 703.998 192.661L704.791 197.13L705.179 203.413C705.098 207.267 705.276 209.178 704.693 212.838C704.402 216.174 703.561 219.412 702.801 222.667C699.095 235.507 691.474 247.247 681.135 255.7C671.037 264.202 657.672 269.4 645.326 270.598C619.405 273.513 595.489 254.923 589.891 231.637C589.033 228.917 588.645 225.517 588.353 223.185C588.045 219.007 588.159 217.469 588.45 214.651C589.082 209.178 590.861 203.884 593.531 199.188C593.758 198.783 594.081 198.458 594.324 198.054C593.207 201.891 592.415 205.891 592.415 210.085C592.415 233.969 611.767 253.336 635.634 253.336C659.501 253.336 678.852 233.969 678.852 210.085C678.852 203.284 677.137 196.936 674.355 191.204C670.746 181.861 664.193 173.1 654.922 167.077C649.031 163.207 642.138 160.454 634.743 159.321C632.948 158.965 630.731 158.916 628.709 158.754C626.766 158.673 625.521 158.786 623.87 158.786C619.307 159.191 616.249 159.628 612.382 160.6C597.706 164.243 583.726 173.845 574.907 187.868C570.489 194.847 567.35 202.863 565.959 211.364C565.198 215.509 565.021 221.129 565.166 224.108C565.441 228.901 565.813 232.722 566.833 237.03C570.23 253.903 580.085 269.966 594.356 281.317C608.385 292.733 627.818 299.323 646.394 298.287C665.649 297.381 683.836 290.903 699.451 279.245C714.952 267.716 726.991 251.15 733.366 232.205C734.806 227.427 736.197 222.618 736.926 217.63C737.929 213.08 738.155 206.539 738.301 202.054L738.188 195.754L738.107 194.103L737.994 193.197L737.783 191.382L737.346 187.739C736.926 182.849 735.76 178.072 734.645 173.279C730 154.075 719.71 136.327 706.311 121.689C692.72 107.132 675.358 96.1366 656.458 89.6428C646.669 86.7443 637.607 84.3967 626.588 83.8625C624.081 83.7331 620.78 83.3929 618.935 83.5223L612.657 83.6684L611.087 83.6999L610.311 83.7165L608.919 83.7978L608.466 83.8459L604.89 84.2831L597.738 85.1898C559.551 90.8249 524.714 112.362 502.465 141.962C491.235 156.713 482.951 173.359 477.935 190.621C475.265 199.316 473.792 207.802 472.725 217.016C472.401 221.614 471.948 226.747 471.916 230.844C472.013 234.52 472.11 238.179 472.207 241.823L472.223 242.503L472.304 244.025L472.353 244.414L472.547 245.952L472.935 249.029L473.728 255.166C474.246 259.247 474.731 263.294 475.783 267.213C476.705 271.164 477.627 275.083 478.55 278.969C479.569 282.824 481.025 286.531 482.239 290.272C487.223 305.217 494.537 318.738 502.449 331.013C513.468 347.367 526.575 359.107 540.151 368.855C588.305 602.177 753.981 972.764 753.981 1279.99C753.981 1408.07 725.324 1530.04 666.523 1632.85C643.174 1668.83 614.485 1704.82 579.858 1738.06C560.279 1757.04 538.451 1774.68 515.459 1791.65C491.931 1807.9 467.449 1823.86 441.091 1837.62C388.552 1865.36 330.398 1886.52 269.541 1900.47C208.75 1914.98 145.046 1920.87 81.4709 1921.15C66.1315 1920.62 48.8666 1921.05 33.5594 1919.82L10.0324 1918.46L-13.6078 1916.1C-21.5041 1915.43 -29.3357 1914.43 -37.1349 1913.21L-60.5324 1909.77C-75.9689 1906.76 -91.4866 1904.32 -106.616 1900.45C-167.456 1886.45 -225.626 1865.33 -278.149 1837.59C-304.508 1823.84 -328.973 1807.85 -352.5 1791.6C-375.493 1774.63 -397.321 1757.01 -416.9 1738.02C-436.462 1719.04 -454.472 1699.45 -470.264 1679.16C-486.575 1659.26 -500.183 1638.37 -512.852 1618.08C-537.382 1576.98 -554.858 1536.31 -567.268 1499.23C-579.728 1462.1 -586.929 1428.48 -591.54 1400.63C-592.657 1393.63 -593.692 1387.03 -594.679 1380.81C-595.407 1374.54 -596.103 1368.68 -596.734 1363.22C-598.077 1352.3 -599.048 1342.96 -599.388 1335.37C-600.375 1320.18 -600.909 1312.07 -600.909 1312.07C-600.909 1312.07 -601.038 1320.2 -601.297 1335.44C-601.589 1343.06 -601.378 1352.47 -600.941 1363.53C-600.747 1369.07 -600.521 1375.02 -600.294 1381.37C-599.728 1387.71 -599.129 1394.43 -598.482 1401.54C-595.731 1429.93 -590.942 1464.54 -580.165 1503.13C-569.68 1541.7 -554.114 1584.56 -530.408 1628.14C-506.623 1671.53 -475.491 1716.11 -435.395 1756.74C-415.54 1777.24 -393.325 1796.42 -369.765 1814.96C-345.785 1832.94 -320.187 1849.88 -292.906 1864.92C-278.926 1872.59 -264.573 1879.84 -249.881 1886.67C-357.565 1856.26 -435.524 1808.73 -491.445 1745.51C-584.55 1615.76 -620.406 1476.38 -620.406 1364.48C-620.406 1188.14 -599.857 1064.7 -531.574 828.86C-481.834 656.941 -430.12 474.918 -405.751 388.886ZM-154.851 337.102H-118.006V1647.89C-130.596 1643.39 -142.861 1638.42 -154.851 1633.08V337.102ZM-172.472 1624.85C-185.125 1618.62 -197.439 1611.99 -209.316 1604.84V337.102H-172.472V1624.85ZM-100.385 337.102H-63.542V1664.12C-76.0498 1661.07 -88.3798 1657.72 -100.385 1653.88V337.102ZM-45.9211 337.102H-9.07721V1674.66C-21.5526 1672.86 -33.8501 1670.72 -45.9211 1668.18V337.102ZM8.54382 337.102H45.3877V1680.08C32.9446 1679.39 20.6633 1678.35 8.54382 1676.96V337.102ZM63.0087 337.102H99.8527V1680.81C93.7358 1680.99 87.6198 1681.2 81.4386 1681.2C75.2576 1681.2 69.1412 1680.99 63.0248 1680.81L63.0087 337.102ZM117.474 337.102H154.317V1676.96C142.198 1678.35 129.917 1679.39 117.474 1680.08V337.102ZM171.939 337.102H208.782V1668.18C196.711 1670.72 184.414 1672.84 171.939 1674.66V337.102ZM226.403 337.102H263.247V1653.88C251.224 1657.72 238.911 1661.06 226.403 1664.12V337.102ZM280.868 337.102H317.712V1633.08C305.722 1638.42 293.457 1643.39 280.868 1647.89V337.102ZM335.333 337.102H372.177V1604.84C360.3 1611.99 347.986 1618.63 335.333 1624.85V337.102ZM389.798 337.102H393.519H395.672C407.386 488.844 453.081 637.753 497.546 782.403C544.827 936.206 589.502 1081.49 589.502 1216.84C589.502 1377.26 513.516 1511.42 389.798 1593.63V337.102ZM-230.658 337.102H-226.937V1593.63C-350.655 1511.42 -426.641 1377.25 -426.641 1216.84C-426.641 1081.47 -381.981 936.206 -334.685 782.403C-290.22 637.753 -244.525 488.844 -232.81 337.102H-230.658ZM393.519 276.75L-174.057 289.608L393.519 302.465V310.383H-207.228C-205.27 299.842 -202.973 284.037 -203.216 268.832H393.519V276.75ZM81.9889 2006.38C199.041 2006.38 316.078 2000.23 432.386 1988.08V2013.15L-251.143 2034.62L432.386 2056.09V2073.99H-269.508V1987.95C-152.845 2000.18 -35.4357 2006.38 81.9889 2006.38Z" fill="#C9A227"/>
<path d="M-477.466 1291.13C-478.049 1285.95 -478.599 1281.11 -479.1 1276.59C-480.169 1267.56 -480.945 1259.85 -481.187 1253.56C-481.948 1241.02 -482.369 1234.31 -482.369 1234.31C-482.369 1234.31 -482.45 1241.02 -482.612 1253.61C-482.822 1259.92 -482.628 1267.68 -482.207 1276.81C-482.029 1281.4 -481.835 1286.3 -481.609 1291.55C-481.107 1296.78 -480.573 1302.32 -480.006 1308.2C-477.596 1331.63 -473.389 1360.14 -464.554 1391.98C-455.897 1423.79 -443.017 1459.17 -423.373 1495.04C-403.665 1530.8 -377.921 1567.49 -344.831 1600.95C-328.441 1617.82 -310.091 1633.61 -290.658 1648.86C-270.869 1663.63 -249.753 1677.59 -227.261 1689.96C-182.262 1714.57 -132.507 1734.37 -80.0478 1746.48C-67.0222 1749.88 -53.6892 1752.09 -40.4047 1754.76C-27.0231 1756.72 -13.6415 1759.22 -0.098114 1760.45L20.1927 1762.6L40.7586 1763.93C54.7551 1765.04 67.4085 1764.78 81.4536 1765.26C135.951 1764.7 190.626 1759.3 242.939 1746.5C295.381 1734.36 345.137 1714.59 390.136 1689.97C412.644 1677.62 433.727 1663.63 453.516 1648.86C472.95 1633.61 491.299 1617.84 507.69 1600.96C540.78 1567.52 566.507 1530.82 586.232 1495.08C605.892 1459.19 618.739 1423.83 627.413 1392.03C636.247 1360.19 640.455 1331.7 642.882 1308.26C643.448 1302.41 643.982 1296.85 644.483 1291.61C644.694 1286.37 644.888 1281.45 645.082 1276.86C645.486 1267.71 645.697 1259.96 645.486 1253.68C645.325 1241.09 645.243 1234.39 645.243 1234.39C645.243 1234.39 644.839 1241.09 644.079 1253.64C643.836 1259.92 643.059 1267.65 641.991 1276.69C641.49 1281.2 640.939 1286.05 640.357 1291.21C639.58 1296.36 638.739 1301.83 637.865 1307.61C634.208 1330.66 628.513 1358.54 618.157 1389.24C607.914 1419.95 593.449 1453.59 573.255 1487.68C552.738 1521.52 526.573 1555.82 494.017 1587.15C477.82 1602.9 459.779 1617.55 440.75 1631.63C421.301 1645.14 401.01 1658.37 379.214 1669.78C335.719 1692.79 287.582 1710.4 237.178 1721.95C186.84 1733.99 134.09 1738.88 81.4536 1739.13C68.703 1738.7 54.5285 1739.06 41.8104 1738.04L22.3124 1736.9L2.73352 1734.94C-10.3406 1733.84 -23.2043 1731.49 -36.1167 1729.69C-48.8996 1727.2 -61.7473 1725.16 -74.2712 1721.95C-124.658 1710.35 -172.812 1692.79 -216.291 1669.77C-238.103 1658.35 -258.361 1645.1 -277.827 1631.6C-296.855 1617.51 -314.897 1602.89 -331.094 1587.13C-363.65 1555.8 -389.799 1521.51 -410.332 1487.68C-430.526 1453.61 -444.975 1419.94 -455.234 1389.26C-465.589 1358.56 -471.302 1330.69 -474.958 1307.63C-475.848 1301.73 -476.673 1296.28 -477.466 1291.13Z" fill="#C9A227"/>
<path d="M645.748 975.434C650.197 988.856 654.064 1000.59 657.253 1010.22C663.708 1029.54 667.932 1040.51 667.932 1040.51C667.932 1040.51 667.511 1028.82 665.845 1008.43C664.874 998.28 664.307 985.787 662.204 971.742C660.375 957.64 658.369 941.688 655.521 924.416C652.463 907.186 649.291 888.447 645.149 868.803C640.684 849.275 636.363 828.486 630.586 807.42C625.118 786.223 619.065 764.46 612.286 742.551C605.748 720.577 598.338 698.523 591.024 676.485C583.419 654.543 575.862 632.651 567.999 611.292C560.167 589.983 552.481 568.996 545.022 548.691C537.546 528.45 530.33 508.889 523.485 490.349C520.152 481.054 516.916 472.002 513.777 463.258C510.508 454.546 507.401 446.094 504.715 437.901C499.278 421.529 493.729 406.632 489.554 393.289C485.331 379.93 480.978 368.352 478.163 358.524C472.111 339.043 468.146 328 468.146 328C468.146 328 468.357 339.723 469.586 360.094C470.056 370.263 471.334 382.634 473.147 396.835C474.651 411.133 477.16 427.035 480.347 444.296C483.26 461.655 487.37 480.196 491.835 499.838C496.673 519.318 501.835 539.898 508 560.835C513.922 581.903 520.654 603.342 527.611 625.121C534.553 646.868 541.98 668.776 549.294 690.669C564.212 734.228 579.147 777.803 593.143 818.641C600.328 838.997 606.557 858.848 613.127 877.538C619.324 896.319 625.247 914.08 630.943 930.472C636.104 946.972 641.153 962.045 645.748 975.434Z" fill="#C9A227"/>
<path d="M453.485 1740.56C446.785 1743.4 439.553 1746.48 431.819 1749.74C424.133 1753.03 415.945 1756.53 407.337 1760.22C398.697 1763.83 389.279 1766.84 379.667 1770.41C369.991 1773.81 360.04 1777.64 349.555 1781.04C338.973 1784.14 328.035 1787.33 316.788 1790.62C311.19 1792.27 305.51 1793.93 299.767 1795.64C293.908 1796.91 287.971 1798.19 281.968 1799.5C269.945 1801.97 257.858 1805.16 245.431 1807.76C220.27 1811.6 194.477 1816.39 167.876 1818.38C141.437 1821.92 114.317 1821.64 87.3116 1822.65C60.3056 1821.69 33.1865 1821.93 6.74689 1818.4C-19.8545 1816.47 -45.6467 1811.63 -70.808 1807.8C-83.2186 1804.99 -95.419 1802.26 -107.361 1799.55C-113.364 1798.24 -119.286 1796.96 -125.159 1795.69C-130.904 1793.98 -136.583 1792.32 -142.182 1790.67C-153.427 1787.37 -164.366 1784.19 -174.948 1781.11C-185.434 1777.71 -195.384 1773.87 -205.061 1770.48C-214.656 1766.91 -224.106 1763.86 -232.698 1760.3C-241.29 1756.63 -249.428 1753.15 -257.082 1749.88C-264.8 1746.6 -272.034 1743.54 -278.716 1740.71C-285.334 1737.63 -291.289 1734.46 -296.741 1731.78C-307.55 1726.27 -316.256 1722.26 -322.097 1719.4C-327.97 1716.56 -331.094 1715.06 -331.094 1715.06C-331.094 1715.06 -328.31 1717.13 -323.068 1721.02C-317.809 1724.87 -310.237 1730.73 -300.334 1737.77C-295.383 1741.27 -290.01 1745.32 -283.927 1749.42C-277.599 1753.21 -270.756 1757.31 -263.442 1761.7C-256.063 1766.07 -248.199 1770.73 -239.93 1775.63C-231.598 1780.48 -222.326 1784.35 -212.892 1789.06C-203.378 1793.54 -193.556 1798.53 -183.152 1803.15C-172.521 1807.2 -161.518 1811.37 -150.224 1815.67C-144.544 1817.8 -138.8 1819.97 -132.975 1822.16C-127.02 1823.92 -120.985 1825.72 -114.901 1827.53C-102.701 1831.19 -90.1602 1834.71 -77.3613 1838.11C-51.391 1843.06 -24.7411 1850.06 3.07382 1852.26C30.6784 1856.33 59.0273 1856.55 87.3116 1857.93C115.595 1856.6 143.944 1856.33 171.549 1852.28C199.38 1850.14 226.014 1843.09 252 1838.16C264.799 1834.74 277.34 1831.26 289.54 1827.6C295.64 1825.78 301.659 1823.99 307.614 1822.22C313.439 1820.04 319.183 1817.87 324.863 1815.73C336.173 1811.44 347.16 1807.26 357.807 1803.21C368.211 1798.61 378.033 1793.61 387.547 1789.12C396.965 1784.41 406.269 1780.53 414.57 1775.72C422.822 1770.82 430.638 1766.18 437.984 1761.82C445.281 1757.45 452.109 1753.35 458.436 1749.59C464.552 1745.46 469.973 1741.36 474.956 1737.84C494.778 1723.55 505.733 1715.11 505.733 1715.11C505.733 1715.11 493.014 1721 471.397 1731.8C465.96 1734.38 460.07 1737.5 453.485 1740.56Z" fill="#C9A227"/>
</g>
<defs>
<clipPath id="clip0_52_556">
<rect width="819" height="2142" fill="white"/>
</clipPath>
</defs>
</svg>
