<svg width="1210" height="1298" viewBox="0 0 1210 1298" fill="none" xmlns="http://www.w3.org/2000/svg">
<path d="M949.797 162.956C829.106 61.3677 673.488 0 503.754 0C121.208 0 -190 311.221 -190 693.768C-190 863.502 -128.632 1019.12 -27.0438 1139.81C100.341 1298.4 295.745 1400 514.986 1400C898.834 1400 1210 1088.83 1210 704.972C1209.99 485.745 1108.38 290.341 949.797 162.956ZM-156.361 693.768C-156.361 657.09 -153.21 621.155 -147.44 586.102C-147.216 584.813 -147.034 583.525 -146.782 582.25C-146.432 580.052 -145.956 577.881 -145.578 575.696C-89.7279 267.892 180.082 33.6808 503.74 33.6808C867.717 33.6808 1163.84 329.805 1163.84 693.782C1163.84 1057.76 867.717 1353.88 503.74 1353.88C139.764 1353.87 -156.361 1057.74 -156.361 693.768Z" fill="#F2C14E"/>
<path d="M940.275 493.883C932.39 499.247 922.783 502.608 912.56 504.008C902.435 505.801 891.539 505.689 881.232 503.854C871.008 501.866 860.855 499.135 852.172 494.373C843.518 489.668 835.801 484.052 830.017 477.274C824.22 470.412 820.424 463.241 818.156 455.371C813.996 439.7 816.447 424.729 820.928 415.458C823.057 410.71 825.536 407.251 827.342 404.955C829.275 402.714 830.298 401.509 830.298 401.509C830.298 401.509 828.841 402.21 826.138 403.512C823.491 404.983 819.626 407.419 815.509 411.663C807.162 419.827 798.241 436.311 799.109 458.074C799.53 468.717 802.793 481.125 809.571 491.726C816.139 502.524 825.522 512.439 836.95 519.735C848.293 527.116 861.163 532.886 875.014 535.742C888.808 538.627 903.247 539.314 917.797 537.269C932.222 534.846 946.675 529.412 958.887 520.562C971.337 511.949 979.991 499.863 986.335 488.099C998.869 464.123 1000.73 439.153 999.051 419.645C997.525 399.927 993.17 384.508 990.033 373.837C986.811 363.179 984.557 357.199 984.557 357.199C984.557 357.199 984.137 363.571 983.422 374.621C982.764 385.614 982.19 401.327 979.739 419.071C977.162 436.759 971.855 456.407 960.721 473.184C955.315 481.545 948.117 488.519 940.275 493.883Z" fill="#F2C14E"/>
<path d="M949.025 380.013C943.802 384.032 937.374 388.276 930.455 392.519C923.957 397.281 916.773 401.958 909.393 406.23C902.503 411.257 895.318 415.949 888.358 419.982C881.692 424.603 875.222 428.777 869.424 431.928C863.934 435.863 859.089 438.86 855.644 440.891C852.269 443.299 850.336 444.672 850.336 444.672C850.336 444.672 852.717 444.812 856.876 445.064C860.951 444.924 866.819 444.574 873.863 443.705C880.712 442.291 888.582 440.078 897.027 437.376C905.065 433.874 913.454 429.659 921.647 425.01C929.209 419.408 936.449 413.428 942.905 407.49C948.787 400.866 953.983 394.55 958.044 388.85C961.685 382.744 964.36 377.52 966.139 373.851C967.581 369.944 968.408 367.703 968.408 367.703C968.408 367.703 966.363 368.908 962.806 371.022C959.557 373.361 954.851 376.582 949.025 380.013Z" fill="#F2C14E"/>
<path d="M883.217 475.087C888.609 474.303 894.841 473.042 901.563 471.474C907.935 469.135 914.643 466.348 921.267 463.267C927.345 459.248 933.241 454.991 938.577 450.789C943.423 445.888 947.764 441.224 951.265 437.051C954.36 432.374 956.699 428.396 958.295 425.595C959.598 422.514 960.326 420.764 960.326 420.764C960.326 420.764 958.519 421.352 955.354 422.374C952.47 423.663 948.338 425.427 943.325 427.248C938.801 429.684 933.381 432.219 927.584 434.74C922.178 437.849 916.31 440.916 910.33 443.717C904.812 447.344 899.14 450.747 893.665 453.73C888.483 457.343 883.483 460.648 879.044 463.225C874.871 466.53 871.188 469.135 868.583 470.914C866.048 473.071 864.605 474.303 864.605 474.303C864.605 474.303 866.496 474.583 869.787 475.087C873.008 475.199 877.63 475.269 883.217 475.087Z" fill="#F2C14E"/>
<path d="M1043.04 532.631C1043.04 532.631 1042.63 535.6 1041.51 540.599C1040.84 545.557 1039.43 552.559 1036.81 560.472C1034.85 568.44 1031.71 577.459 1027.14 586.324C1023.31 595.455 1017.97 604.586 1011.49 612.681C1005.77 621.335 998.729 629.234 991.223 635.69C984.192 642.762 976.574 648.518 969.586 652.831C962.864 657.747 956.631 661.234 952.122 663.404C947.711 665.995 945.008 667.284 945.008 667.284C945.008 667.284 947.949 667.564 953.229 667.606C958.424 667.312 965.888 666.458 974.809 664.273C983.422 661.416 993.281 657.131 1003.2 650.983C1012.62 644.232 1021.79 635.69 1029.61 625.858C1036.57 615.397 1041.89 604.04 1045.42 593.004C1048.22 581.689 1049.27 570.975 1049.36 561.914C1048.68 552.741 1047.2 545.375 1045.88 540.347C1044.22 535.348 1043.04 532.631 1043.04 532.631Z" fill="#F2C14E"/>
<path d="M145.983 474.107C153.895 476.474 161.892 479.513 169.832 483.014C177.927 486.137 186.022 489.723 193.99 493.518C201.889 497.481 210.123 500.716 218.008 504.441C233.875 511.597 249.532 517.717 263.565 521.442C277.513 525.42 289.711 526.932 298.184 527.254C306.684 527.549 311.502 526.96 311.502 526.96C311.502 526.96 307.315 524.608 300.088 520.56C292.974 516.443 283.213 510.407 271.799 502.985C260.413 495.464 247.361 486.445 232.657 477.118C225.234 472.623 217.658 467.371 209.255 463.142C200.936 458.744 192.254 454.417 183.221 450.482C174.034 446.911 164.525 443.76 154.848 441.323C145.171 438.746 135.171 437.906 125.452 437.5C115.523 437.066 106.014 438.494 97.2892 440.581C88.5364 442.569 80.5959 445.846 73.7757 449.726C59.9533 457.288 51.2705 467.763 47.3633 475.648C45.3886 479.611 44.2542 482.818 43.7781 485.087C43.2739 487.3 43.0078 488.49 43.0078 488.49C43.0078 488.49 43.8761 487.65 45.4866 486.067C46.9851 484.485 49.4919 482.398 52.6569 480.129C59.043 475.536 68.8601 470.956 81.072 468.492C87.178 467.245 93.9281 466.755 100.93 466.517C107.975 466.405 115.341 467.245 122.735 468.31C130.34 469.444 138.056 471.853 145.983 474.107Z" fill="#F2C14E"/>
<path d="M180.742 564.814C185.825 561.425 190.923 558.05 195.698 554.871C200.096 551.02 204.199 547.421 207.714 544.34C207.882 544.144 208.008 543.989 208.176 543.807C209.297 544.312 210.473 544.858 211.579 545.348C220.122 548.303 228.413 550.768 235.709 552.238C243.188 553.134 249.476 553.134 253.747 552.84C258.018 552.084 260.469 551.65 260.469 551.65C260.469 551.65 258.298 550.516 254.503 548.541C250.75 546.903 245.61 544.214 239.938 540.335C234.001 537.212 227.377 532.94 220.332 527.955C212.784 523.501 204.745 518.753 196.693 514.02C187.982 510.099 178.781 506.486 169.888 503.769C160.743 501.696 151.906 500.842 144.456 500.674C136.88 501.332 130.788 502.312 126.642 503.517C122.567 504.973 120.242 505.813 120.242 505.813C120.242 505.813 122.581 506.556 126.67 507.858C130.045 508.502 134.695 510.071 139.778 512.059C138.112 514.818 136.585 518.081 135.213 521.806C134.163 526.106 133.546 530.811 133.448 535.587C133.967 540.334 134.975 544.97 136.403 549.157C138.308 553.204 140.339 556.776 142.509 559.521C143.742 560.893 144.932 562.041 146.024 563.008C145.002 563.904 143.924 564.856 142.985 565.683C139.806 569.38 137.16 572.461 135.311 574.617C133.645 577.11 132.692 578.539 132.692 578.539C132.692 578.539 134.401 578.497 137.412 578.413C140.227 577.992 144.246 577.404 149.063 576.676C153.545 575.346 158.783 573.791 164.384 572.139C169.58 569.814 175.168 567.321 180.742 564.814ZM149.077 560.319C148.699 559.17 148.335 557.91 148.041 556.51C146.949 553.653 146.249 550.152 145.744 546.482C144.988 542.883 144.61 538.976 144.638 535.111C144.274 531.26 144.302 527.338 144.75 523.683C144.904 520.336 145.296 517.157 145.982 514.398C151.458 516.331 157.298 518.712 163.306 522.073C170.854 525.308 178.697 529.397 186.568 534.032C188.234 534.789 189.887 535.531 191.553 536.287C189.831 536.805 188.122 537.309 186.301 537.842C181.078 540.194 175.504 542.687 169.93 545.194C164.847 548.583 159.749 551.972 154.987 555.151C152.929 556.944 150.954 558.666 149.077 560.319Z" fill="#F2C14E"/>
<path d="M294.079 548.85C294.079 548.85 291.474 549.494 286.895 550.6C282.511 552.141 276.307 554.633 269.053 558.121C262.233 562.182 254.516 567.28 246.506 572.909C239.167 579.029 231.339 585.57 223.51 592.096C216.452 599.126 209.24 605.806 202.125 611.506C195.473 617.836 188.793 623.158 182.687 627.219C176.889 631.896 171.498 635.257 167.548 637.344C163.711 639.851 161.316 641.097 161.316 641.097C161.316 641.097 163.949 641.419 168.725 641.531C173.402 641.307 180.138 640.523 188.149 638.562C195.837 635.972 204.576 632.148 213.469 627.289C221.914 621.813 230.387 615.385 238.509 608.761C245.693 601.451 252.892 594.154 259.628 587.306C265.748 580.024 271.574 573.47 276.825 568.092C281.643 562.168 285.998 557.462 289.219 554.311C292.314 550.824 294.079 548.85 294.079 548.85Z" fill="#F2C14E"/>
<path d="M426.285 1220.14C435.163 1209.47 444.687 1196.31 454.14 1181.6C462.906 1166.52 470.917 1149.71 478.213 1132.57C484.431 1115.01 489.207 1097.01 493.114 1080.08C495.817 1062.84 497.875 1046.79 498.548 1032.94C498.702 1019.04 498.24 1007.51 497.623 999.487C496.615 991.476 496.041 986.896 496.041 986.896C496.041 986.896 494.907 991.364 492.904 999.165C491.377 1006.95 488.759 1018.01 484.991 1031C482.232 1044.12 477.779 1059.15 472.64 1074.94C467.934 1090.85 462.388 1107.66 455.512 1123.89C449.602 1140.48 442.978 1156.88 435.542 1171.69C428.889 1186.89 421.887 1200.84 415.067 1212.36C409.073 1224.44 403.219 1234.15 399.018 1240.87C395.027 1247.86 392.758 1251.86 392.758 1251.86C392.758 1251.86 396.357 1248.96 402.645 1243.88C408.569 1238.47 416.972 1230.52 426.285 1220.14Z" fill="#F2C14E"/>
<path d="M539.187 1257.55C572 1233.22 606.451 1210.93 633.073 1195.42C659.64 1179.81 677.986 1170.38 677.986 1170.38C677.986 1170.38 658.757 1177.74 630.496 1190.42C602.193 1203 565.151 1221.57 529.272 1242.52C518.433 1248.85 507.761 1255.4 497.384 1261.97C550.797 1221.12 627.864 1174.08 732.561 1136.32C736.664 1141.23 741.748 1146.17 749.086 1150.03C758.525 1155.02 771.97 1155.8 782.305 1150.89C792.528 1146.16 799.39 1138.38 803.774 1129.77C809.011 1119.07 809.474 1108.69 808.003 1099.34C815.229 1106.66 823.702 1113.25 833.239 1118.59C832.637 1119.86 831.993 1121.14 831.321 1122.42C825.999 1132.95 818.213 1142.78 818.213 1142.78C818.213 1142.78 829.696 1140.34 841.404 1135.44C837.791 1139.25 833.884 1143.21 829.836 1147.09C812.891 1163.7 793.635 1178.42 793.635 1178.42C793.635 1178.42 816.742 1171.24 839.219 1161.07C840.9 1160.33 842.566 1159.56 844.233 1158.79C836.516 1164.99 828.296 1171.31 819.781 1177.37C780.204 1206.53 735.558 1228.87 735.558 1228.87C735.558 1228.87 783.285 1214.44 828.436 1191.8C830.494 1190.8 832.525 1189.79 834.57 1188.77C821.167 1198.63 806.925 1208.59 792.29 1218.11C757.181 1240.92 720.195 1261.08 691.64 1274.6C663.141 1288.26 643.465 1296.09 643.465 1296.09C643.465 1296.09 663.785 1290.28 693.671 1279.46C723.612 1268.78 762.811 1252.24 800.735 1232.66C821.616 1221.86 841.992 1210.18 860.562 1198.77C839.723 1215.39 818.619 1230.43 797.472 1243.36C758.161 1267.11 719.719 1285.54 684.358 1299.13C648.954 1312.63 616.786 1321.7 589.883 1327.78C576.425 1330.85 564.311 1333.34 553.668 1335.12C543.052 1337.12 533.964 1338.7 526.541 1339.49C511.669 1341.55 503.742 1342.64 503.742 1342.64C862.117 1342.64 1152.63 1052.13 1152.63 693.755C1152.63 335.38 862.117 44.8711 503.742 44.8711C503.742 44.8711 511.682 45.9634 526.569 48.0081C534.048 48.7923 543.165 50.3749 553.738 52.3635C564.325 54.1281 576.411 56.6209 589.883 59.6739C616.8 65.7239 648.968 74.8129 684.386 88.2992C693.671 91.8563 703.166 95.7914 712.829 100.021C708.782 101.267 703.502 103.074 697.424 105.749C683.419 111.602 665.844 122.064 649.486 134.36C633.185 146.698 618.046 160.744 607.445 172.158C602.669 177.228 598.79 181.667 595.891 185.084C583.833 173.544 571.748 163.041 559.494 154.862C556.105 152.496 552.744 150.591 549.383 148.616C550.279 147.146 551.245 145.563 552.38 143.813C557.309 136.068 564.759 125.985 573.036 116.35C589.435 96.8978 609.658 80.1904 609.658 80.1904C609.658 80.1904 585.22 89.5034 562.267 103.424C550.769 110.258 539.593 118.031 531.499 124.557C525.183 129.584 520.757 133.632 519.063 135.214C514.651 133.968 510.492 133.057 506.809 132.595C499.975 131.615 494.583 131.629 490.97 131.839C487.385 132.119 485.452 132.259 485.452 132.259C485.452 132.259 487.301 132.763 490.746 133.716C494.149 134.668 499.092 136.292 504.946 138.981C516.78 144.205 531.835 154.456 547.226 169.805C562.673 185.042 578.624 205.503 596.382 227.49C605.218 238.231 614.349 249.323 623.62 260.596C627.724 265.806 630.664 270.609 631.883 274.783C633.031 278.298 632.541 282.667 631.519 284.194C630.735 285.58 630.608 286.182 626.939 286.813C623.326 287.219 617.766 286.308 612.305 284.166C600.443 279.712 588.833 273.27 578.036 265.47C567.294 257.641 556.721 249.267 546.526 241.13C536.456 232.895 526.107 225.235 516.052 219.003C496.067 206.189 476.503 199.719 462.751 198.444C456.057 197.66 450.791 197.912 447.178 198.192C447.15 198.192 447.122 198.178 447.094 198.178C445.819 197.954 444.545 197.898 443.271 197.702C449.867 188.557 454.628 177.788 456.743 166.332C467.708 169.273 481.097 173.81 494.289 179.79C509.078 186.498 523.32 194.873 533.529 202.016C543.781 209.102 550.223 214.522 550.223 214.522C550.223 214.522 545.363 207.701 537.045 198.094C528.782 188.445 516.668 176.345 503.182 165.478C489.709 154.638 474.907 145.115 463.227 138.841C460.86 137.553 458.661 136.405 456.617 135.354C455.412 129.178 453.34 123.198 450.777 117.414C455.987 110.23 463.661 101.365 472.554 93.2846C481.727 84.9659 492.118 77.6276 500.423 72.8241C508.713 67.9645 514.665 65.2897 514.665 65.2897C514.665 65.2897 508.209 65.9059 498.532 67.9085C488.841 69.8552 475.999 73.6503 463.521 79.0701C453.228 83.5515 443.368 89.1254 435.4 94.3911C429.966 88.6072 423.832 83.5655 417.152 79.4342C410.682 75.3309 403.582 72.3059 396.257 70.3732C389.059 68.4826 381.105 67.2224 372.044 68.4408C367.506 69.1271 362.857 70.5834 358.361 73.2583C353.726 76.0592 349.931 80.1204 347.466 84.5318C344.987 88.9852 343.419 94.111 343.629 99.8528C343.769 102.71 344.301 105.665 345.505 108.452C346.164 110.02 346.57 110.762 347.858 112.807L350.015 115.468C353.922 119.627 357.395 121.21 360.154 122.61C362.213 123.548 364.229 124.473 366.232 125.383C368.094 126.027 369.467 127.442 370.167 129.514C371.624 134.528 369.005 141.936 365.028 145.745C360.49 150.185 354.566 152.818 349.497 154.554C344.385 156.291 340.057 157.285 337.131 158.013C334.19 158.728 332.607 159.12 332.607 159.12C332.607 159.12 334.218 159.4 337.201 159.918C340.212 160.366 344.637 161.052 350.505 161.15C356.317 161.178 363.963 160.716 372.324 156.431C380.923 151.599 388.961 142.37 389.437 128.114C389.619 120.663 386.062 112.457 379.396 107.219C374.383 103.382 370.251 100.777 369.663 99.7689C370.727 99.8669 370.349 99.4327 371.035 99.0126C371.554 98.5364 372.002 98.3964 372.45 98.3123C373.08 98.1723 374.186 97.9202 375.559 97.9202C378.36 97.7802 382.603 98.6625 387.057 100.427C391.44 102.094 395.669 104.334 399.759 106.925C407.839 112.261 414.729 119.921 419.071 128.548C423.79 136.937 426.031 146.53 425.569 156.193C425.037 165.744 422.754 175.155 417.768 182.745C414.015 188.487 409.24 193.697 403.806 197.842C399.843 198.472 395.893 199.215 392.042 200.223C381.077 203.206 371.568 206.735 363.053 209.004C351.317 207.701 341.164 203.262 334.316 198.907C331.529 197.142 329.358 195.461 327.482 193.921C327.44 193.823 327.383 193.753 327.355 193.655C322.79 181.849 320.885 167.424 314.962 153.28C311.951 146.236 307.441 139.065 301.027 133.842C294.781 128.492 286.812 125.537 279.418 124.823C264.433 123.632 252.376 128.464 242.04 133.057C221.734 143.197 205.853 152.734 191.904 160.338C164.581 175.897 148.952 184.804 148.952 184.804C148.952 184.804 165.632 178.068 194.789 166.304C209.228 160.562 227.181 152.468 246.872 144.975C256.647 141.6 267.626 139.009 277.219 140.788C286.77 142.65 293.437 149.401 297.05 160.268C300.691 170.827 301.615 184.02 305.704 198.907C295.019 193.781 283.97 188.179 272.556 184.146C259.77 180.337 246.662 178.754 235.766 180.169C224.857 182.101 216.678 186.386 211.748 190.028C206.973 194.061 205.096 196.904 205.096 196.904C205.096 196.904 208.163 195.209 213.723 193.907C219.073 192.282 227.041 191.218 236.074 192.759C245.107 193.445 255.134 196.778 265.4 202.226C275.973 206.889 286.897 213.667 298.688 220.403C309.738 225.655 321.698 230.641 334.022 233.288C338.811 235.122 343.867 236.172 348.684 236.326C365.49 236.859 379.354 231.803 391.818 228.638C395.039 228.232 398.288 227.56 401.551 226.663C414.547 224.423 428.244 224.493 441.618 227.266C455.818 230.178 470.537 236.663 481.265 245.233C486.404 249.379 489.934 254.336 490.984 258.229C492.244 262.263 491.138 267.164 489.793 268.467C488.505 269.755 486.824 270.876 481.405 269.895C476.167 268.873 469.837 265.722 463.913 261.338C457.037 256.437 449.559 250.205 439.195 245.037C434.014 242.502 427.95 240.29 421.143 239.422C414.323 238.483 407.069 239.449 400.557 241.55C387.225 246.242 378.598 255.191 372.1 262.753C365.56 270.526 360.532 277.934 355.462 283.998C350.463 290.09 345.547 294.431 341.43 296.098C337.243 297.82 333.503 297.876 328.224 295.706C323.896 293.815 319.121 290.496 314.499 286.336C309.878 282.303 305.452 277.29 300.047 271.674C294.711 266.198 288.899 260.47 281.617 255.401C274.447 250.303 265.428 246.06 255.316 244.701C243.441 243.777 236.564 247.46 230.682 250.065C221.762 254.546 214.647 259.532 207.883 263.901C204.536 266.086 201.301 268.145 198.57 269.587C196.596 270.763 192.436 272.122 189.075 273.452C175.001 278.424 160.632 281.463 146.782 282.037C133.015 282.359 119.599 280.609 108.269 275.329C102.514 272.878 97.3318 269.531 92.6263 265.722C91.4919 264.91 90.4976 263.943 89.5033 262.977L88.453 255.19C87.5707 247.838 86.8985 240.472 86.4364 233.105C85.9182 225.095 85.7502 217.112 85.8342 209.186C76.3252 217.63 66.9421 226.481 57.7132 235.654C58.5674 243.539 59.6317 251.367 60.9202 259.154L63.0348 270.847C63.441 272.92 63.8472 274.937 64.2953 276.981C63.0769 278.788 61.9425 280.553 60.8082 282.401C58.5394 285.916 56.5228 289.515 54.4221 293.087C50.4168 300.299 46.5936 307.595 43.1345 315.032C36.1743 329.89 30.1384 345.169 25.3908 360.84C24.0744 364.72 23.038 368.683 21.9737 372.632C20.9654 376.595 19.7191 380.503 18.9208 384.522C17.1702 392.518 15.3496 400.501 14.2012 408.61C13.613 412.657 12.7308 416.662 12.4087 420.752L11.1202 432.949C10.336 440.33 10.21 447.752 9.83186 455.146C-2.89821 483.618 -15.1801 512.131 -26.9579 540.994C-32.9658 555.769 -38.8757 570.6 -44.4215 585.654C-47.2504 593.147 -49.8693 600.779 -52.5021 608.412L-56.2273 620.035L-59.6864 632.485L-62.1792 644.403C-62.7673 647.904 -63.6357 651.293 -64.616 654.641C-66.6886 661.391 -69.6016 667.427 -73.3548 674.807C-75.1894 678.448 -77.192 682.817 -78.6625 687.859C-79.9509 693.11 -80.427 699.006 -79.4747 704.272C-78.6484 709.566 -76.9679 714.173 -75.1193 718.431C-73.1867 722.548 -70.834 727.128 -68.8454 730.195C-64.7981 737.267 -58.552 745.711 -50.6675 751.369C-42.839 757.377 -33.2039 760.962 -23.7789 762.363C-14.2979 763.721 -4.99886 763.007 3.75395 761.214C8.68353 760.15 13.2909 758.848 17.8844 757.195C18.1785 758.05 18.5287 758.918 18.7667 759.758C19.3409 761.774 19.775 763.735 20.0271 765.542L20.1952 767.6C20.2512 767.656 20.2232 768.315 20.1672 768.987L20.0972 769.939C20.1952 769.169 20.0692 769.743 20.0832 769.589C20.2232 769.505 19.593 770.962 18.5427 772.516C17.5764 774.071 16.0498 776.045 14.5653 778.02C11.4984 782.095 7.88519 786.843 5.07029 792.865C3.64183 795.82 2.52153 799.251 1.84932 802.836C1.20511 806.351 1.07904 810.202 1.70924 814.642C1.98933 816.336 2.26939 817.247 2.54948 818.591C3.31973 821.532 3.78188 822.232 4.46811 824.151C5.85455 827.372 7.67519 830.424 9.81787 833.211C14.1312 838.799 19.761 842.846 25.4888 845.717C26.4691 846.222 27.4915 846.488 28.4858 846.922C27.0014 850.311 25.685 853.854 24.7607 857.691C23.6963 862.201 23.0801 866.99 23.4162 872.256L24.0464 876.821C24.2985 878.166 24.4945 878.726 24.7186 879.72C25.6009 882.899 26.8893 885.812 28.4718 888.207C31.6229 893.277 35.4881 896.554 39.2413 899.425C43.0365 902.31 46.8737 904.326 50.7109 906.273C52.6996 907.239 54.6882 907.925 56.6909 908.738C52.9937 915.012 49.4925 921.384 46.2435 928.12C43.4146 934.142 40.7818 940.36 38.5971 947.026C37.5888 950.457 36.5524 953.692 35.7821 958.005C35.306 960.218 35.1099 961.843 34.9559 963.285L34.6758 965.596C34.4938 967.864 34.5638 967.906 34.4938 969.167C34.3958 984.278 37.3646 997.176 41.2299 1010.2C45.2352 1023.08 50.6269 1035.59 58.1333 1047.48C65.9478 1059.27 75.1207 1070.69 91.0578 1078.51C105.805 1084.79 118.549 1085.85 131.237 1087.83C156.557 1091.12 181.359 1092.92 206.091 1094.98L242.895 1098.19C254.966 1099.41 267.29 1100.7 278.116 1102.85C280.595 1103.33 283.662 1104.16 284.628 1104.49C284.698 1104.53 284.544 1104.37 284.852 1104.46H284.866C284.95 1105.44 284.866 1107.42 284.516 1109.74C282.989 1119.69 278.984 1133.09 277.906 1147.39C277.374 1154.68 277.36 1161.97 278.592 1169.99C278.928 1172.32 279.25 1173.74 279.544 1175.23C280.048 1177.61 280.566 1179.04 281.085 1181C282.065 1184.78 283.353 1188.06 284.642 1191.35C289.851 1204.39 296.153 1215.8 302.722 1226.98C309.332 1238.09 316.306 1248.78 323.518 1259.26C328.714 1266.76 334.008 1274.07 339.469 1281.38L339.161 1282.1C338.013 1284.83 336.976 1287.53 335.982 1290.25C333.994 1295.68 332.271 1301.13 330.689 1306.63C329.596 1310.51 328.7 1314.43 327.776 1318.35C364.509 1328.69 402.503 1335.96 441.562 1339.67C445.091 1336.32 448.83 1332.81 452.976 1329C475.271 1308.22 506.375 1281.9 539.187 1257.55ZM369.439 99.3626C369.523 99.4186 369.775 99.6987 369.649 99.6287L369.579 99.5868C369.579 99.5308 369.411 99.4046 369.439 99.3626ZM966.772 293.913C983.774 315.06 999.795 337.649 1014.33 361.639C1029.13 385.474 1042.02 410.92 1053.82 437.095C1065.69 463.297 1074.93 490.914 1083.39 518.867C1087.32 532.115 1090.54 545.602 1093.37 559.2C1093.22 560.74 1093.01 562.729 1092.66 565.278C1092.31 571.048 1091.3 579.254 1088.95 588.623C1087.25 598.02 1084.27 608.747 1079.58 619.405C1075.63 630.314 1069.9 641.294 1062.74 651.139C1056.37 661.503 1048.4 670.997 1039.83 678.798C1031.77 687.201 1022.99 694.049 1014.93 699.202C1007.16 704.944 999.963 708.992 994.753 711.513C989.669 714.454 986.56 715.924 986.56 715.924C986.56 715.924 989.949 716.022 995.985 715.686C1001.92 715.013 1010.44 713.557 1020.52 710.476C1030.25 706.737 1041.33 701.261 1052.33 693.685C1062.81 685.506 1072.91 675.269 1081.36 663.617C1088.92 651.363 1094.55 638.129 1098.12 625.329C1099.83 617.416 1100.75 609.826 1101.21 602.698C1101.34 603.51 1101.5 604.322 1101.62 605.135C1103.43 619.797 1105.4 634.474 1106.13 649.305C1106.69 656.699 1107.29 664.093 1107.28 671.516L1107.77 692.634C1107.56 698.852 1107.46 705.308 1107.35 711.708C1089.28 711.554 1074.2 721.246 1065.88 731.749C1055.69 745.697 1052.68 758.988 1050.43 767.811C1048.78 776.9 1048.25 782.081 1048.25 782.081C1048.25 782.081 1050.32 777.25 1054.54 769.239C1058.45 761.298 1064.43 749.493 1075.14 740.264C1080.29 735.418 1086.27 731.749 1093.65 730.054C1097.92 729.032 1102.5 728.864 1106.77 729.48C1106.61 732.729 1106.4 735.922 1106.09 738.863C1105.39 752.924 1103.44 767.698 1101.62 782.389C1096.99 811.546 1091.66 840.564 1083.36 868.629C1082.13 873.741 1080.45 878.698 1078.79 883.67C1073.49 875.505 1057.69 851.754 1034.18 821.546C1019.68 802.626 1002.41 780.989 983.339 758.442C973.718 747.238 964.293 735.194 953.888 723.738C943.707 712.087 933.357 700.253 923.008 688.405C912.435 676.767 901.861 665.13 891.456 653.66C881.205 642.064 870.393 631.267 860.352 620.427C850.955 609.994 841.208 600.499 832.147 591.186C841.11 594.869 850.395 597.838 859.89 600.051C878.628 604.056 897.87 604.994 916.566 603.188C935.29 601.381 953.272 595.99 969.489 588.427C1002.3 573.415 1025.9 546.82 1037.54 521.682C1049.79 496.432 1051.95 472.876 1050.67 457.303C1050.18 449.461 1048.95 443.425 1047.94 439.406C1046.88 435.414 1046.32 433.285 1046.32 433.285C1046.32 433.285 1046.23 435.484 1046.05 439.588C1045.87 443.649 1045.42 449.615 1044.02 456.939C1041.53 471.574 1034.74 491.922 1020.82 511.977C1006.89 532.045 985.384 550.867 957.753 561.188C944.099 566.706 928.96 569.325 913.639 570.81C898.234 571.944 882.409 570.823 867.2 567.21C851.949 564.031 837.034 558.416 823.94 550.671C810.902 542.871 798.97 533.67 790.105 522.48C781.325 511.416 774.574 498.98 770.905 486.292C767.32 473.618 766.284 460.916 767.824 449.391C771.017 426.199 783.776 408.442 794.587 398.807C800.035 393.877 805.048 390.698 808.563 388.667C812.191 386.777 814.137 385.768 814.137 385.768C814.137 385.768 811.981 386.062 807.891 386.903C803.858 387.883 797.892 389.633 790.82 393.359C776.941 400.599 757.713 416.914 749.072 445.147C744.843 459.026 743.513 475.257 746.482 491.74C747.91 500.017 750.235 508.419 753.568 516.654C747.616 511.571 744.171 508.784 744.171 508.784C744.171 508.784 757.027 538.781 782.515 579.492C788.803 589.73 795.735 600.737 803.634 611.955C811.378 623.284 819.571 635.244 828.702 647.078C837.903 658.842 846.852 671.516 857.089 683.391C867.228 695.365 877.535 707.535 887.829 719.691C898.724 731.329 909.606 742.966 920.333 754.436C930.892 766.046 942.502 776.339 953.104 786.843C974.825 807.415 995.943 825.747 1014.91 840.522C1045.91 865.31 1070.6 880.659 1078.25 885.238C1077.79 886.653 1077.3 888.067 1076.86 889.495C1074.65 896.428 1072.46 903.374 1069.76 910.096L1062.23 930.458C1059.4 937.111 1056.57 943.735 1053.75 950.345C1041.96 976.533 1029.02 1001.95 1014.25 1025.79C1008.3 1036.18 1001.49 1045.9 994.879 1055.67C986.799 1040.63 972.948 1032.17 961.436 1027.59C948.314 1022.37 936.774 1020.07 927.448 1016.56C918.051 1013.06 910.446 1008.59 905.516 1002.92C900.545 997.54 898.654 990.65 898.64 984.866C898.64 972.836 906.469 967.879 906.063 967.991C906.063 967.991 904.228 968.425 901.189 970.483C898.234 972.542 894.215 976.799 892.072 983.774C889.958 990.524 889.593 1000.36 894.691 1010C899.466 1019.53 908.527 1027.73 918.863 1033.9C929.268 1040.28 940.808 1044.72 950.499 1050.35C955.358 1053.18 959.658 1056.22 962.823 1059.71C966.114 1063.22 968.607 1067.37 969.559 1071.02C971.323 1078.19 968.411 1082.86 959.784 1089.02C951.101 1094.82 938.329 1098.08 924.941 1100.25C911.846 1102.73 898.556 1103.55 885.812 1102.43C873.082 1101.19 860.786 1098.85 849.723 1094.06C838.701 1089.27 828.534 1083.21 820.285 1075.78C812.065 1068.35 805.581 1059.92 800.987 1051.28C791.954 1033.63 790.666 1015.58 792.136 1003.34C792.388 1000.87 792.822 998.814 793.242 996.798C796.211 991.294 799.769 986.392 802.892 982.387C810.062 973.256 814.193 968.004 814.193 968.004C814.193 968.004 808.311 971.142 798.396 977.472C793.48 980.707 787.403 984.796 781.367 991.532C775.289 998.212 770.387 1008.18 768.006 1018.77C766.62 1024.09 765.836 1029.55 765.122 1035.2C764.533 1041.77 764.827 1047.82 765.444 1054.02C766.116 1060.18 767.166 1066.39 768.777 1072.8C770.149 1079.12 773.524 1086.75 774.785 1090.81C778.216 1100.47 777.726 1110.14 774.911 1114.91C773.412 1117.74 770.821 1119.97 769.057 1120.6C767.404 1121.13 766.48 1121.03 764.281 1119.98C762.041 1119.07 758.609 1116 755.43 1111.91C752.195 1107.88 749.086 1102.73 745.543 1097.1C738.765 1086.09 731.357 1075.71 724.593 1065.43C717.856 1055.13 710.784 1045.51 704.216 1036.29C697.774 1027.12 691.682 1018.83 686.584 1010.86C679.092 999.123 673.952 988.213 671.039 978.872C672.86 971.968 675.633 965.582 679.652 959.098C685.968 948.818 694.147 939.337 701.597 930.122C717.296 912.015 728.038 892.983 730.867 878.684C732.295 871.948 732.435 866.556 732.113 862.789C737.085 865.632 742.392 867.971 747.952 869.889C747.028 873.769 745.837 878.04 744.241 882.577C741.37 890.84 737.533 900.069 733.191 910.236C731.175 915.418 728.36 920.655 726.399 926.481C724.27 932.251 722.044 938.273 719.999 944.603C718.333 951.031 716.82 957.697 715.812 964.532C714.677 971.366 714.929 978.326 715.195 984.852C715.392 991.42 716.792 997.666 718.249 1003.42C719.621 1009.19 721.68 1014.46 723.906 1019.09C728.136 1028.46 733.457 1035.23 737.435 1039.55C741.426 1043.89 744.199 1045.9 744.199 1045.9C744.199 1045.9 743.933 1042.54 743.485 1036.85C743.107 1031.22 742.616 1023.48 742.63 1014.64C742.616 1010.21 742.966 1005.48 743.134 1000.65C743.414 995.776 744.185 990.734 744.745 985.636C745.333 980.496 746.79 975.441 747.77 970.217C748.876 964.98 750.459 959.574 752.279 954.056C753.722 948.441 755.444 942.656 757.209 936.817C759.142 931.033 760.178 924.857 761.55 918.863C764.057 906.749 764.841 894.579 763.497 884.23C763.077 880.21 762.279 876.625 761.354 873.278C764.071 873.741 766.76 874.301 769.547 874.497C772.908 874.679 776.283 874.539 779.63 874.258C779.63 876.597 779.714 879.146 780.022 882.101C781.437 894.845 787.221 914.508 804.796 931.285C813.353 939.604 824.444 946.956 837.09 951.942C838.575 952.53 840.129 953.048 841.656 953.594C839.653 955.316 837.707 957.165 835.844 959.224C829.472 966.744 825.159 976.561 823.576 985.776C821.77 995.117 823.086 1004.11 825.047 1012.09C827.021 1020.13 830.774 1027.24 834.948 1033.18C838.939 1039.12 843.687 1043.76 848.182 1047.55C857.159 1055.2 865.688 1059.31 871.668 1061.96C877.69 1064.54 881.345 1065.59 881.345 1065.59C881.345 1065.59 879.356 1062.38 875.953 1056.91C872.564 1051.5 867.62 1043.98 862.999 1035.28C860.73 1030.91 858.742 1026.15 857.005 1021.35C855.338 1016.6 854.652 1011.53 854.078 1006.54C853.574 1001.52 854.428 996.546 855.394 992.205C856.529 987.779 858.349 984.306 861.332 981.169C864.007 977.752 868.083 974.461 872.998 971.562C877.984 968.803 883.249 965.582 889.229 962.795C891.064 961.899 892.94 960.904 894.803 959.938C905.852 958.384 917.168 954.995 926.929 948.664C933.707 944.561 940.612 939.561 946.984 932.993C953.286 926.453 959.055 917.995 962.164 908.443C965.063 899.243 965.624 890.042 964.657 881.191C965.848 881.947 967.08 882.816 968.257 883.544C986.14 895.252 1001.78 903.892 1012.9 909.606C1024.04 915.306 1030.55 918.289 1030.55 918.289C1030.55 918.289 1025.66 912.995 1016.84 904.228C1008.03 895.447 995.411 883.053 980.272 868.405C965.162 853.77 947.6 836.755 928.792 818.535C919.493 809.362 909.886 799.881 900.139 790.26C890.224 780.821 880.574 770.794 870.785 760.92C860.982 751.061 851.039 741.342 841.67 731.357C832.119 721.526 822.708 711.849 813.605 702.494C804.838 692.831 795.693 684.022 787.543 675.213C779.252 666.502 771.396 658.253 764.127 650.635C749.605 635.384 737.309 622.668 728.612 613.775C719.929 604.883 714.677 599.939 714.677 599.939C714.677 599.939 717.604 606.465 723.234 617.641C728.878 628.802 737.393 644.501 748.974 662.469C754.632 671.558 761.018 681.221 768.231 691.122C775.275 701.149 782.991 711.513 791.366 721.946C793.074 723.991 794.811 726.147 796.52 728.248C788.817 726.455 782.235 725.573 776.983 724.383C771.214 723.178 766.872 721.624 763.973 720.237C761.06 718.879 759.59 717.87 759.59 717.87C759.59 717.87 760.514 719.369 762.853 721.778C765.149 724.2 769.057 727.45 774.532 730.587C779.938 733.808 786.954 736.861 793.873 740.726C800.693 744.605 807.051 749.703 812.317 756.943C822.82 771.018 827.918 793.061 819.753 810.622C815.888 819.613 808.479 827.371 800.035 833.155C791.366 838.897 781.423 841.74 771.479 840.9C761.382 840.55 750.865 836.755 741.874 830.509C732.883 824.179 725.055 816.504 719.285 806.967C713.571 797.528 709.09 787.221 706.177 776.773C703.348 766.312 701.471 755.963 700.463 746.09C698.572 726.357 698.81 709.048 698.698 696.934C698.558 684.75 698.474 677.748 698.474 677.748C698.474 677.748 695.911 684.274 692.144 695.926C688.503 707.591 683.363 724.453 681.221 746.062C680.142 756.831 679.806 768.917 681.627 781.675C681.963 784.168 682.411 786.731 682.887 789.293C682.649 791.24 682.453 793.145 681.977 795.427C679.54 808.059 673.672 826.293 661.572 843.155C658.449 847.202 654.948 851.053 651.139 854.19C647.526 857.047 642.568 859.862 637.639 861.921C627.598 866.122 615.904 867.971 604.336 866.752C598.552 866.22 592.838 864.75 587.531 862.537C582.279 860.38 577.434 857.341 571.089 853.322C564.815 849.373 557.925 844.569 548.598 840.788C543.935 838.939 538.585 837.441 532.815 836.965C527.031 836.418 520.855 837.231 516.416 838.281L505.366 841.306C503.952 841.656 502.72 841.922 501.879 842.006C502.117 842.034 501.921 842.076 501.921 842.076C501.767 842.175 501.487 842.076 501.403 841.796C501.277 842.174 501.655 839.863 502.117 838.953C502.678 837.721 502.79 837.385 504.512 835.803C507.397 833.226 512.467 830.929 518.671 829.22C530.672 825.691 548.878 822.946 561.917 808.339C568.373 801.085 571.173 791.758 571.566 784.07C572.042 776.227 570.823 769.393 569.283 763.259C566.034 751.089 561.987 742.084 560.488 733.794C559.004 726.833 559.536 720.924 561.328 715.854C569.843 716.848 578.372 716.148 585.808 714.117C592.712 712.381 599.084 710.154 605.05 707.535C611.1 704.944 617.136 702.283 622.864 699.02C629.838 695.071 636.378 690.52 642.68 685.73C637.947 696.136 633.438 706.863 629.586 718.011C624.727 734.928 621.744 751.859 618.032 766.816C615.147 782.053 611.198 795.568 605.877 806.393C601.241 817.597 595.247 826.055 590.318 831.377C585.598 836.979 582.125 839.668 582.125 839.668C582.125 839.668 586.256 838.463 593.091 834.738C599.603 830.677 608.411 823.548 616.73 812.821C624.517 801.813 631.281 787.417 636.771 772.026C641.63 756.383 645.523 740.068 650.971 724.677C655.382 708.852 660.956 693.335 667.174 679.176C672.132 665.914 677.72 653.828 683.083 643.381C695.547 625.231 703.712 606.171 708.067 589.253C712.913 570.768 713.697 554.915 713.025 544.047C712.941 538.627 712.044 534.356 711.75 531.513C711.33 528.67 711.106 527.144 711.106 527.144C711.106 527.144 710.672 528.628 709.86 531.401C708.964 534.16 708.207 538.221 706.415 543.207C703.334 553.234 697.942 567.07 690.015 582.349C681.851 597.544 670.955 614.209 656.825 629.614C649.795 637.345 641.784 644.529 633.493 651.461C625.133 658.323 616.1 664.611 606.437 669.639C597.222 675.073 586.69 680.002 577.602 682.677C568.387 685.17 560.684 685.884 554.326 683.182C548.234 680.465 544.803 677.188 543.109 669.415C541.638 661.895 542.478 653.1 543.655 644.067C544.859 635.076 545.769 625.763 544.579 617.486C544.019 613.467 542.954 609.896 541.624 606.717C554.508 608.3 566.314 603.552 576.187 599.715C588.007 595.037 600.681 590.234 613.453 584.128C626.239 578.078 639.683 571.692 652.554 563.415C654.514 562.183 656.419 560.698 658.365 559.41C652.75 566.048 647.008 572.448 641.168 578.316C630.973 589.225 620.904 599.126 611.478 606.675C607.095 610.932 602.838 614.56 598.958 617.683C595.149 620.904 591.76 623.663 588.819 625.721C583.175 630.357 579.954 633.003 579.954 633.003C579.954 633.003 583.945 631.743 590.934 629.516C594.407 628.298 598.468 626.547 603.132 624.433C607.851 622.416 613.117 619.979 618.691 616.982C629.712 610.779 641.812 602.278 654.43 592.531C666.32 581.985 678.196 569.787 689.189 556.777C699.146 542.955 708.081 528.474 715.434 514.371C719.957 504.008 723.892 494.107 727.015 484.836C731.791 474.753 735.306 464.165 737.575 453.55C743.863 422.922 738.163 394.017 728.78 372.52C728.528 371.904 728.234 371.358 727.968 370.755C744.913 377.842 762.825 381.287 779.336 382.827C819.459 386.595 857.607 377.786 885.56 362.955C913.835 348.586 932.867 330.212 944.393 316.572C955.961 302.792 960.414 293.591 960.414 293.591C960.414 293.591 953.58 301.181 939.785 311.755C926.033 322.258 905.11 335.688 877.914 345.197C850.913 354.776 817.568 358.768 782.823 353.376C765.219 350.869 748.61 345.715 733.177 337.579C717.842 329.414 704.174 317.861 695.239 303.73C685.856 289.894 681.585 273.606 681.963 256.759C682.383 248.384 683.615 240.052 685.688 231.901C688.027 223.835 691.136 216.02 695.099 208.794C703.376 194.551 713.921 182.213 726.679 173.726C739.381 164.988 753.484 159.442 767.096 156.179C783.257 152.384 798.466 151.949 811.701 152.958C842.314 172.9 872.718 196.946 902.169 224.255C894.873 226.509 886.19 228.498 876.947 230.319C873.362 231.271 869.609 232.125 865.856 232.965C865.366 232.279 865.002 231.705 864.455 230.977C858.587 223.218 848.826 212.561 833.94 203.57C819.095 194.705 799.909 186.232 775.499 186.751C763.581 187.367 749.38 190.224 737.953 199.887C726.273 209.298 719.159 223.19 716.736 236.887C714.621 250.737 716.456 264.685 721.918 277.303C727.309 289.866 736.3 299.347 745.529 306.727C754.786 314.205 765.037 318.883 774.771 322.16C784.532 325.591 794.041 326.949 802.541 327.594C819.641 328.924 833.309 327.033 842.79 325.633C852.258 324.149 857.635 322.874 857.635 322.874C857.635 322.874 852.313 321.46 843.098 319.023C833.925 316.642 820.761 313.645 806.351 308.744C799.152 306.223 791.786 303.03 784.658 299.165C777.516 295.229 770.807 290.048 764.897 284.39C758.959 278.732 754.646 271.604 751.845 264.728C749.184 257.935 748.442 249.827 749.899 242.6C750.907 235.248 754.17 228.89 758.792 224.857C763.497 220.725 770.177 217.463 778.076 216.3C793.901 213.807 811.686 217.098 825.887 221.16C838.967 225.095 849.695 230.276 857.621 234.66C854.526 235.248 851.445 235.878 848.308 236.369C838.659 238.763 828.856 240.668 819.571 241.97C810.342 243.889 801.561 245.443 793.957 246.2C786.338 247.81 779.84 248.748 775.275 249.309C770.639 250.233 767.978 250.765 767.978 250.765C767.978 250.765 770.485 251.801 774.869 253.636C779.322 255.065 785.778 256.983 793.719 258.776C801.659 260.022 811.042 260.82 821.195 261.324C831.279 260.918 842.034 259.91 852.748 258.327C863.237 255.625 873.53 252.376 882.983 248.833C892.142 244.421 900.475 240.038 907.309 235.808C908.779 234.744 909.928 233.834 911.258 232.825C911.972 233.512 912.687 234.156 913.387 234.828C918.961 240.416 924.535 246.13 930.066 251.914C926.453 252.754 922.14 253.692 916.846 254.518C910.502 256.339 902.968 257.893 894.985 259.28C887.185 261.297 878.782 262.991 870.351 264.251C862.088 266.38 853.686 268.089 845.717 269.265C837.805 271.1 830.256 272.584 823.716 273.382C817.162 275.007 811.546 276.015 807.597 276.631C803.578 277.626 801.267 278.186 801.267 278.186C801.267 278.186 803.424 279.194 807.205 280.959C811.042 282.331 816.616 284.18 823.492 285.958C830.382 287.177 838.519 288.017 847.356 288.633C856.123 288.339 865.478 287.527 874.805 286.224C883.908 283.802 892.842 280.931 901.035 277.794C908.948 273.802 916.118 269.867 921.986 266.072C927.083 262.165 931.019 258.734 933.988 256.045C945.233 268.047 956.367 280.525 966.772 293.913ZM629.138 1040.18C628.76 1032.34 627.051 1024.4 624.769 1017.66C619.321 1001.25 610.484 988.801 603.37 977.556C596.213 966.338 590.009 956.353 586.186 946.48C582.461 936.747 580.991 927.112 582.307 919.143C583.623 910.95 587.195 903.878 591.34 899.13C592.474 897.8 593.637 896.666 594.771 895.643C597.404 895.923 600.065 896.302 602.669 896.372C619.685 896.708 635.874 892.185 649.122 884.384C652.133 882.577 654.906 880.659 657.581 878.6C655.76 881.457 653.898 884.286 651.573 887.031C647.988 891.442 644.487 895.756 641.168 899.845C637.597 904.074 634.376 908.527 631.575 912.953C625.833 921.678 622.724 930.529 622.08 936.691C621.786 939.828 621.758 942.18 621.954 943.819C622.122 945.401 622.206 946.27 622.206 946.27C622.206 946.27 624.25 943.371 628.088 939.477C631.967 935.542 637.905 931.187 645.397 926.341C649.164 923.919 653.534 921.468 657.987 918.387C662.511 915.376 667.636 912.225 672.538 907.883C677.439 903.626 683.013 898.626 687.145 892.633C691.416 886.737 695.141 880.393 698.236 873.867C700.995 867.172 703.18 860.38 704.874 853.658C705.981 849.737 706.527 845.802 706.933 841.894C711.596 847.468 716.876 852.664 722.94 856.991C725.223 858.672 727.702 860.128 730.166 861.627C730.138 861.753 730.124 861.837 730.096 861.977C729.326 865.548 727.59 870.617 724.509 876.443C718.305 888.291 705.644 901.819 687.691 916.636C678.756 924.296 668.575 932.742 659.066 944.393C654.346 950.219 649.851 956.913 646.294 964.602C642.736 972.36 640.482 980.917 639.249 989.039C636.896 1005.42 636.897 1020.77 634.922 1033.74C634.404 1037 633.732 1040.11 632.863 1043.01C632.429 1044.46 631.939 1045.84 631.421 1047.19C630.973 1048.33 629.992 1050.38 630.258 1049.76C630.118 1049.83 630.006 1049.76 630.006 1049.61C630.174 1049.92 628.942 1050.53 629.236 1050.18C629.264 1050.11 629.264 1050.07 629.236 1050.01L629.054 1049.64C629.04 1049.47 628.984 1049.8 629.012 1049.23L629.152 1046.22C629.264 1044.19 629.208 1042.16 629.138 1040.18ZM850.997 841.712C847.622 837.259 845.815 832.147 844.905 826.91C845.745 824.977 846.726 823.072 847.426 821.098C851.291 809.95 851.767 798.368 850.129 787.781C859.33 796.618 868.461 805.511 877.774 813.913C883.796 819.697 890.083 825.005 896.371 830.187L893.613 831.335C891.078 832.497 888.683 833.701 886.47 834.906C882.521 837.147 878.656 839.345 874.903 841.488C868.125 845.297 863.699 846.796 859.26 846.838C856.851 847.09 853.616 845.115 850.997 841.712ZM815.412 861.893C815.65 862.915 815.818 863.951 816.098 864.974C817.918 869.987 820.201 874.763 822.876 879.146C825.523 883.558 829.136 887.185 832.637 890.504C836.11 893.879 840.186 896.372 844.149 898.346C847.986 900.517 852.173 901.623 855.913 902.393C863.475 903.976 869.987 902.814 874.006 901.287C878.068 899.803 879.986 898.248 879.986 898.248C879.986 898.248 877.788 896.96 874.721 894.691C871.64 892.492 867.914 889.159 864.483 885.168C862.789 883.068 861.164 880.855 859.526 878.586C857.873 876.331 856.613 873.614 855.03 871.206H855.044C865.422 873.993 877.774 871.5 886.793 867.802C890.938 866.122 895.209 864.371 899.565 862.607C901.525 861.822 903.388 861.151 905.208 860.548L907.799 859.792C908.261 859.792 908.695 859.736 909.116 859.624C911.44 859.526 913.919 860.268 916.832 862.341C919.675 864.47 922.532 867.677 924.857 871.416C927.041 875.267 928.456 879.664 928.834 883.936C929.31 888.641 928.792 893.375 927.405 897.142C925.277 904.872 918.303 912.351 908.121 918.863C899.228 924.745 889.537 928.26 878.46 929.002C867.634 929.703 856.039 928.666 845.563 926.159C835.172 923.541 825.705 919.885 817.722 914.956C801.757 905.18 791.954 890.938 786.885 880.196C785.792 877.844 784.952 875.729 784.196 873.74C795.469 872.046 806.253 867.83 815.412 861.893ZM619.363 208.64C620.791 205.769 624.404 198.711 629.992 189.44C637.275 177.186 648.31 161.375 660.942 146.698C673.602 132.105 687.929 118.745 700.001 110.356C705.855 106.113 711.078 103.046 714.859 100.987C737.463 110.986 760.976 123.002 784.924 136.839C778.3 136.474 771.368 136.503 764.043 137.189C748.036 138.701 730.32 142.875 713.641 152.342C696.654 161.403 681.025 175.757 669.695 193.599C664.149 202.604 659.402 212.309 655.732 222.658C653.604 229.156 652.133 235.934 651.027 242.838C650.355 241.984 649.669 241.074 649.01 240.262C639.123 228.428 628.97 218.905 619.363 208.64ZM600.583 314.457C608.873 317.776 618.299 320.493 629.754 319.779C635.454 319.331 641.882 317.833 647.778 314.205C651.685 311.909 655.186 308.617 658.001 304.948C660.55 310.956 663.589 316.754 667.02 322.188C676.977 337.159 690.1 349.189 704.468 358.516C706.653 364.706 708.697 371.246 710.28 378.472C714.705 398.722 715.672 423.104 708.683 446.506C705.392 458.199 699.357 469.417 692.508 480.368C685.464 491.25 676.571 501.403 666.67 510.618C656.951 520.071 646.167 528.572 634.726 536.233C623.242 543.781 611.688 551.301 599.855 557.855C587.923 564.521 576.369 570.978 565.418 577.098C556.497 582.153 548.654 585.822 542.674 586.466C542.492 585.262 542.366 584.044 542.086 582.867C539.481 573.737 535.756 569.269 533.726 565.572C533.586 565.264 533.683 565.306 533.711 565.194C533.81 565.138 533.852 565.11 533.936 565.138C534.132 565.04 533.571 565.376 534.02 565.138C534.706 564.732 535.756 564.298 536.61 563.877C538.319 563.037 540.476 562.155 542.464 561.286L550.923 557.533L555.923 555.209L563.891 550.909C566.426 549.369 568.625 547.534 571.005 545.854C572.938 543.935 575.011 542.016 576.397 539.818C579.716 535.63 580.122 530.238 581.215 525.071C580.935 517.452 578.176 510.352 572.742 504.414C570.151 501.389 566.832 498.756 563.401 496.278L558.457 493.015L555.671 491.278C551.567 488.701 548.122 486.321 547.058 485.102C546.049 484.08 545.895 483.996 545.587 482.371C545.055 479.122 547.632 472.456 552.421 468.087C555.951 464.473 561.132 460.93 566.888 456.813C565.04 460.888 563.233 464.333 561.763 466.91C559.872 470.957 558.808 473.268 558.808 473.268C558.808 473.268 561.062 472.022 564.998 469.851C568.667 467.358 573.834 463.577 579.618 458.382C584.996 452.892 590.556 445.806 596.172 437.809C600.919 429.364 605.26 419.925 608.859 410.15C611.296 400.025 612.921 389.76 613.649 380.11C613.411 370.335 612.711 361.373 611.282 353.81C609.364 346.276 607.165 340.268 605.499 336.15C603.44 332.159 602.263 329.876 602.263 329.876C602.263 329.876 601.885 332.397 601.213 336.809C600.905 341.024 600.247 347.018 598.776 353.936C594.043 331.137 584.744 313.519 575.907 300.929C583.399 306.125 591.494 310.9 600.583 314.457ZM353.768 326.445C366.218 321.306 374.382 312.693 380.811 305.215C387.253 297.596 392.378 290.23 397.49 284.376C402.545 278.438 407.475 274.573 411.27 273.41C415.15 272.024 418.735 272.234 424.659 275.007C430.456 277.71 437.053 282.737 444.713 288.185C453.228 294.193 463.031 299.669 475.299 302.05C481.433 303.184 488.533 303.464 495.899 301.433C503.294 299.361 510.156 294.963 515.141 288.745C518.152 284.81 520.183 280.693 521.584 276.505C526.737 286.505 530.883 297.526 533.333 308.884C537.101 321.88 538.753 335.59 538.445 348.488C538.907 361.429 537.451 373.724 535.14 384.088C533.431 394.661 530.785 403.428 528.53 409.422C526.667 415.64 525.239 419.169 525.239 419.169C525.239 419.169 527.942 416.578 532.325 411.522C536.414 406.313 541.834 398.428 547.086 388.009C551.595 377.366 555.685 364.285 557.827 349.637C559.2 334.96 558.429 319.009 555.054 303.394C551.903 292.456 547.464 282.037 542.24 272.486C547.674 277.962 553.458 283.493 559.928 288.801C561.622 291.588 563.387 294.725 565.151 298.352C572.896 314.219 581.355 339.651 580.402 368.669C579.66 383.135 576.747 399.493 570.221 412.937C568.513 416.102 566.664 419.155 564.661 421.27C563.023 422.978 560.124 425.331 556.651 427.544C549.873 432.123 540.686 436.409 531.009 444.657C521.374 453.396 512.607 465.398 512.019 482.693C511.724 491.194 515.282 501.361 521.29 507.873C527.031 514.399 532.479 517.565 537.017 520.589L539.719 522.34L540.182 522.676L540.279 522.83C540.321 522.928 540.336 523.026 540.279 523.11C540.195 523.236 540.013 523.25 539.929 523.222L539.859 523.208L536.498 524.679L528.096 528.222C525.757 529.314 523.53 530.252 520.995 531.555C519.735 532.213 518.587 532.703 517.228 533.502C515.632 534.426 512.929 535.84 511.22 537.129L505.814 541.442C504.162 542.997 502.873 544.803 501.375 546.47C500.227 548.332 499.288 550.335 498.392 552.324C497.888 554.466 496.796 556.469 496.502 558.654C495.479 567.35 498.854 576.341 503.798 583.946C506.627 588.217 508.321 591.522 508.321 591.522C508.251 591.592 508.433 591.648 508.363 591.718C509.05 591.802 505.52 597.194 501.319 598.258C496.838 599.911 489.905 599.379 484.234 596.508C473.114 591.396 466.49 578.008 466.42 562.519C466.112 546.918 469.725 526.723 462.443 508.392C459.054 499.765 454.894 493.421 452.135 487.553C450.161 483.534 449.166 479.976 448.592 476.419C449.404 475.663 450.259 474.907 451.029 474.15C462.261 463.157 470.747 451.169 478.576 439.013C482.385 432.907 485.802 426.731 488.827 420.527C491.824 414.393 494.933 407.447 496.487 399.535C499.793 382.967 493.687 367.969 486.25 358.152C478.758 347.984 469.221 341.43 460.818 337.355C452.331 333.224 444.671 331.053 438.425 329.484C425.891 326.543 418.679 325.703 418.679 325.703C418.679 325.703 424.967 329.33 435.904 335.646C446.324 342.088 462.022 351.849 469.837 368.319C473.646 376.511 474.977 385.712 472.022 393.359C469.109 401.229 461.364 412.433 454.11 422.278C446.744 432.305 437.529 441.912 428.552 450.651C419.743 459.166 410.388 463.297 404.898 461.561C401.579 461.028 399.142 459.278 398.848 458.522C398.344 457.807 397.7 456.197 399.254 452.037C400.795 448.032 403.876 442.963 407.615 437.515C411.887 431.227 416.228 424.323 419.239 415.5C422.376 407.027 422.852 394.339 416.9 384.746C411.004 375.013 402.083 370.517 394.633 368.095C378.654 363.291 366.848 366.204 357.941 365.042C340.912 364.131 329.876 348.712 327.061 337.719C326.123 334.33 325.787 331.375 325.661 328.714C334.792 330.633 345.043 330.24 353.768 326.445ZM-0.783577 739.171C-7.53374 740.572 -14.2978 740.992 -20.5438 740.096C-21.6222 739.928 -22.5745 739.521 -23.6108 739.283C-19.1994 737.953 -14.0037 737.099 -8.10785 737.281C-4.27062 737.043 -0.111343 737.393 4.24405 737.981C2.5355 738.429 0.85495 738.835 -0.783577 739.171ZM377.562 1297.36L377.309 1290.56L377.296 1287.27C377.268 1286.31 377.393 1284.91 377.225 1284.6L374.243 1267.71C366.904 1258.5 359.51 1248.63 352.521 1238.84C345.505 1228.99 338.769 1218.99 332.551 1208.9C326.375 1198.81 320.563 1188.48 316.432 1178.53C315.424 1176.06 314.387 1173.58 313.813 1171.35L312.833 1168.16C312.483 1166.6 312.147 1165.02 312.063 1164.26C311.32 1160.03 311.138 1154.82 311.46 1149.77C311.881 1141.56 313.841 1133.27 315.718 1123.13C318.953 1122.36 322.916 1121.3 327.355 1119.91C339.427 1116.26 354.664 1109.41 368.151 1100.44C381.665 1091.45 393.288 1080.52 400.781 1071.5C408.357 1062.53 412.349 1055.98 412.349 1055.98C412.349 1055.98 406.663 1061.25 397.266 1067.58C388.793 1073.42 376.959 1079.54 364.495 1083.95L367.156 1082.02C379.158 1073.23 389.213 1062.44 397.91 1051.65C406.593 1040.81 413.161 1029.36 418.959 1018.65C424.869 1007.95 429.35 997.568 433.565 988.101C441.912 969.209 448.48 953.524 453.634 942.629C458.829 931.705 461.827 925.417 461.827 925.417C461.827 925.417 460.552 926.607 458.157 928.834C455.776 931.089 452.247 934.394 448.144 938.931C439.741 947.852 428.692 961.633 416.858 978.606C410.934 986.897 404.534 995.874 397.77 1005.34C390.992 1014.56 383.457 1023.66 375.475 1032.44C367.38 1041.15 357.955 1048.68 348.096 1055.76L344.329 1058.35L342.452 1059.65L341.038 1060.2C339.161 1060.88 337.803 1061.99 334.848 1062.47C330.03 1063.99 323.812 1064.58 317.86 1065.32C305.396 1066.51 292.344 1066.92 279.264 1066.47C266.24 1065.99 253.188 1065.87 240.556 1065.08C215.236 1063.64 191.582 1062.3 171.191 1061.13C158.994 1060.22 146.894 1059.19 134.99 1057.83C123.24 1056.36 110.86 1054.83 102.738 1051.26C96.1554 1048.26 88.1169 1040.45 82.4451 1031.63C76.5492 1022.62 71.7876 1012.26 68.2865 1001.52C64.8554 990.902 62.3067 979.278 62.2927 969.531C62.1666 969.251 62.6988 963.327 63.0909 962.235C63.385 960.428 64.1413 957.711 64.8275 955.191C66.424 950.037 68.5387 944.771 70.9054 939.533C75.0928 930.389 80.3164 921.16 85.7221 912.575C87.7388 912.701 89.7414 912.925 91.7581 912.925C99.1804 912.015 106.197 910.096 112.485 907.982C118.605 905.167 123.856 902.1 128.282 899.467C132.343 896.12 135.732 893.347 138.099 891.386C140.284 889.061 141.53 887.745 141.53 887.745C141.53 887.745 139.709 887.619 136.53 887.409C133.519 887.521 129.206 887.675 124.038 887.857C119.165 888.571 113.521 889.341 107.667 889.551C102.472 890.476 97.0378 891.05 91.7301 890.994L79.5181 888.347L75.0507 887.381L70.3592 886.106C67.2642 885.168 64.2253 884.118 61.3964 882.913C55.8366 880.589 50.6969 877.228 49.0164 874.707C48.4982 874.119 48.3302 873.559 48.1341 873.278C47.9241 872.494 47.5179 871.304 47.4479 870.856C47.4479 870.547 47.4059 870.253 47.3219 869.959C47.0838 867.901 47.1958 865.324 47.6859 862.677C48.1761 860.002 49.0444 857.187 50.1927 854.386C50.2767 854.19 50.3748 853.994 50.4729 853.784C54.058 854.681 57.6712 855.577 61.3964 855.843C65.8218 856.193 70.3732 856.529 74.7286 856.655C79.056 856.375 83.3694 856.109 87.6268 855.843C91.7581 855.703 95.8334 854.568 99.6706 854.022C107.415 852.58 114.417 850.703 120.565 848.574C132.721 844.709 141.558 839.864 141.558 839.864C141.558 839.864 133.715 833.408 120.761 829.248C114.347 827.021 106.715 825.299 98.7743 824.403C94.755 824.094 90.7358 823.24 86.6325 823.367C82.6552 823.255 78.6079 823.142 74.5606 823.03C70.5413 823.296 66.7181 823.352 62.9229 823.423C59.1977 823.282 55.4865 823.968 52.0134 823.926C48.4843 823.968 45.1371 824.263 41.8321 824.431C39.1992 824.333 36.5384 824.571 34.0176 824.627C31.3847 823.1 29.0601 821.364 27.4775 819.263C26.5392 818.003 25.7269 816.672 25.0967 815.216C24.9426 814.726 24.3265 813.101 24.4525 813.591C24.2145 812.443 23.7943 810.902 23.7103 810.076C23.7943 809.46 23.6542 808.186 23.9483 806.687C24.2424 805.287 24.6346 803.802 25.4468 802.191C26.9313 798.97 29.4101 795.469 32.4771 791.45C34.0316 789.349 35.6562 787.319 37.4207 784.574C39.0872 781.871 41.1039 778.818 42.1402 773.692C42.2662 772.908 42.3783 772.88 42.4903 771.466L42.5603 770.513C42.6023 769.925 42.6584 769.309 42.6444 768.091C42.6584 765.822 42.4763 764.183 42.2943 762.545C41.8461 759.296 41.1599 756.285 40.3476 753.414C39.5074 750.557 38.541 747.826 37.4767 745.151C37.2666 744.619 37.0426 744.129 36.8325 743.625C40.4737 744.031 44.2409 744.325 48.1761 744.409C56.2287 744.591 64.7294 743.471 72.936 740.572C80.9186 737.225 88.8451 731.945 94.3489 724.103C99.9366 716.414 102.275 706.429 101.379 697.858C99.0123 680.563 87.3607 668.505 76.5772 663.085C65.2756 658.086 55.5425 657.917 49.0864 658.113C42.5323 658.772 39.0312 659.808 39.0312 659.808C39.0312 659.808 42.7004 660.382 48.5962 662.441C54.4361 664.093 62.8388 667.286 69.841 673.728C77.1934 679.274 82.6692 689.161 81.983 699.034C82.235 708.544 75.737 716.134 64.8415 719.663C54.5622 724.411 41.8461 724.033 28.5978 722.842C15.4336 722.436 1.59722 721.806 -9.98449 724.733C-19.5355 727.576 -26.7759 732.113 -31.4814 736.524C-33.4841 735.572 -35.4866 734.634 -37.2512 733.276C-42.2508 729.55 -45.794 725.069 -49.6452 718.445C-51.9559 714.846 -53.0902 712.269 -54.5887 709.244C-55.8911 706.233 -56.9135 703.32 -57.2776 700.771C-57.7678 698.194 -57.4597 696.051 -56.9696 693.601C-56.1713 691.038 -54.9809 688.125 -53.2163 684.68C-49.7712 677.944 -45.696 669.653 -43.1472 661.208C-41.8727 656.937 -40.7944 652.652 -40.0662 648.324L-37.6713 636.953L-34.7164 626.491L-31.1733 615.456C-28.6385 608.09 -26.1177 600.723 -23.3308 593.371C-17.9111 578.652 -12.0851 564.003 -6.13323 549.397C5.78458 520.197 18.3186 491.082 31.2167 462.317L31.2307 462.303L32.001 460.622L32.225 457.989C32.8692 450.385 33.0512 442.739 34.0456 435.176L35.5021 423.833C35.8802 420.037 36.8185 416.326 37.4347 412.559C38.6671 405.024 40.5437 397.63 42.3363 390.236C43.1625 386.511 44.4229 382.911 45.4453 379.228C46.5096 375.573 47.56 371.904 48.8764 368.333C53.6099 353.852 59.5757 339.778 66.3259 326.179C69.687 319.359 73.3702 312.735 77.1794 306.209C77.7676 305.271 78.3698 304.346 78.9579 303.394C86.9265 306.909 97.2898 311.068 107.961 314.149C130.074 321.012 152.356 323.154 152.356 323.154C152.356 323.154 137.077 315.242 122.036 304.122C130.172 305.985 138.603 306.937 147.006 307.189C163.993 307.455 181.121 304.682 197.8 299.641C202.015 298.156 205.74 297.316 211.09 294.809C215.698 292.624 219.465 290.37 223.134 288.199C230.388 283.872 237.209 279.614 243.455 276.786C247.404 274.783 251.325 274.279 251.353 274.489C259.042 275.637 267.949 282.975 277.023 293.255C281.533 298.198 286.56 304.318 292.848 310.102C299.01 315.816 306.209 321.404 315.424 325.479C317.524 326.473 319.919 327.187 322.314 327.86C321.46 330.689 320.745 334.148 320.563 338.489C320.325 345.309 321.852 353.922 326.809 362.731C331.431 371.442 341.416 380.474 354.132 383.906C366.218 387.393 378.5 387.687 385.88 391.538C389.843 393.429 392.336 396.16 392.714 397.938C393.163 399.815 393.064 401.537 391.496 405.543C389.899 409.394 386.594 414.029 382.631 418.819C378.122 424.435 372.968 430.891 369.201 440.008C365.294 448.719 363.333 462.737 370.083 474.669C376.749 486.643 388.149 492.427 398.722 494.639C404.17 495.606 409.716 495.662 415.346 494.667C420.765 493.673 425.471 491.992 429.868 489.822C431.493 489.009 432.991 488.113 434.476 487.217C434.896 489.43 435.4 491.586 436.072 493.645C438.327 501.249 441.45 508.266 442.92 514.68C446.057 526.92 441.534 541.498 439.727 561.706C438.915 571.818 439.629 583.792 444.153 595.192C448.438 606.577 457.443 617.921 469.305 624.349C480.915 630.763 495.101 634.194 510.324 630.51C518.082 628.536 525.183 624.629 531.093 618.873C531.233 618.747 531.345 618.579 531.471 618.439C530.364 624.643 527.956 631.379 524.945 639.501C521.892 647.904 517.76 658.449 518.166 671.684C518.335 678.238 519.707 685.8 523.74 692.928C527.745 700.141 534.146 705.967 541.148 709.636C544.971 711.737 549.032 713.249 553.192 714.328C549.999 719.705 547.758 726.862 547.632 734.55C547.1 744.927 549.481 756.089 550.293 766.41C551.133 776.717 549.102 787.053 543.669 791.142C540.966 793.495 536.68 795.315 531.205 796.66C525.799 798.074 519.357 798.789 511.542 800.483C503.924 802.192 494.821 804.432 485.802 810.664C481.629 813.465 476.475 818.591 473.674 824.052C470.789 829.752 468.969 834.836 468.885 842.721C468.871 850.073 471.027 857.439 475.523 863.181C479.878 869.091 486.67 872.802 493.855 874.469C497.566 875.155 501.151 875.407 505.184 875.001C508.139 874.735 510.646 874.245 512.943 873.74L524.034 871.009C527.003 870.267 528.488 870.113 530.308 870.197C532.129 870.281 534.23 870.73 536.652 871.598C541.526 873.349 547.38 876.905 553.85 880.855C560.166 884.86 568.289 889.369 576.971 892.072C580.178 893.094 583.427 893.739 586.662 894.369C580.487 898.528 574.142 905.489 570.025 915.446C565.726 925.851 565.18 938.623 567.7 951.549C570.165 964.433 575.473 977.458 581.579 989.698C587.503 1001.99 593.399 1014.23 596.522 1026.11C597.894 1031.21 598.356 1035.76 598.216 1040.65C598.146 1041.84 598.09 1043.03 597.936 1044.22L597.712 1046.01L596.76 1050.41C596.55 1051.93 596.031 1053.56 594.981 1055.32C593.959 1057.12 593.609 1058.59 592.012 1060.67C585.542 1066.58 581.341 1070.71 570.529 1080.04C573.848 1081.9 577.363 1083.89 580.893 1085.88C584.254 1087.86 585.234 1088.57 585.402 1088.84L585.304 1088.91L588.679 1090.68C591.046 1091.97 593.413 1093.13 595.779 1094.24C605.499 1098.23 616.758 1098.46 628.27 1094.44C639.711 1090.29 651.643 1080.99 658.729 1066.9C660.844 1062.86 661.334 1061.26 662.329 1058.78C663.169 1056.46 663.897 1054.15 664.541 1051.85C664.765 1051.04 664.822 1050.27 665.018 1049.45L675.549 1071.97L678.868 1041.14C680.184 1043.85 681.417 1046.56 682.845 1049.27C687.033 1057.45 691.43 1066.08 696.135 1074.77C688.573 1077.62 678.21 1081.67 665.914 1086.83C640.216 1097.5 606.815 1113.58 574.941 1132.01C543.052 1150.47 512.775 1171.2 491.054 1187.9C469.249 1204.51 455.553 1216.5 455.553 1216.5C455.553 1216.5 470.663 1206.29 494.177 1192.59C517.634 1178.8 549.845 1162.19 582.993 1148.13C598.986 1141.35 615.162 1135.2 630.538 1129.84C488.575 1196.21 409.87 1274.44 378.864 1310.22C378.248 1305.96 377.8 1301.65 377.562 1297.36Z" fill="#F2C14E"/>
<path d="M415.653 819.667C409.827 829.008 402.153 839.302 393.638 849.917C385.571 860.855 376.301 871.974 366.455 882.506C357.184 893.555 347.255 904.1 337.368 913.413C327.845 923.147 318.546 931.997 309.975 938.915C301.951 946.59 294.738 952.556 289.599 956.603C284.599 961 281.742 963.507 281.742 963.507C281.742 963.507 285.384 962.373 291.756 960.37C297.96 958.004 306.796 954.391 317.104 949.279C327.159 943.789 338.348 936.437 350.126 928.076C361.246 918.945 372.533 908.498 383.219 897.378C392.966 885.446 401.999 872.983 409.729 860.841C416.619 848.153 422.571 836.151 426.829 825.507C430.666 814.654 433.187 805.453 434.783 799.011C435.988 792.443 436.674 788.689 436.674 788.689C436.674 788.689 434.517 791.826 430.75 797.316C427.375 802.904 422.319 810.775 415.653 819.667Z" fill="#F2C14E"/>
<path d="M593.156 542.728C590.538 545.963 588.185 548.75 586.042 550.851C582.093 555.542 579.824 558.231 579.824 558.231C579.824 558.231 583.045 556.803 588.689 554.296C591.476 552.938 594.683 551.033 598.324 548.736C602.049 546.524 606.181 543.891 610.452 540.67C618.841 534.06 627.677 525.209 636.682 515.126C644.819 504.398 652.479 492.2 659.118 479.358C664.551 465.97 668.823 452.203 671.666 439.053C673.458 425.651 674.425 413.187 673.976 402.501C673.626 397.152 672.94 392.306 672.198 388.035C671.568 383.764 670.937 380.094 670.139 377.097C668.361 371.188 667.338 367.812 667.338 367.812C667.338 367.812 666.778 371.272 665.784 377.335C665.574 380.318 664.999 383.932 664.243 388.021C663.599 392.11 662.731 396.69 661.4 401.591C659.902 411.478 656.723 422.738 652.788 434.376C649.315 446.153 644.511 458.337 638.769 470.003C633.657 481.963 627.551 493.545 620.871 503.866C614.597 514.439 608.127 524.173 601.601 531.763C598.758 535.95 595.859 539.577 593.156 542.728Z" fill="#F2C14E"/>
<path d="M945.584 341.61C940.361 345.616 934.059 349.985 927.266 354.48C920.936 359.494 914.032 364.606 906.96 369.465C900.462 375.053 893.768 380.445 887.298 385.29C881.22 390.71 875.38 395.695 870.184 399.729C865.366 404.434 861.165 408.215 858.168 410.834C855.325 413.803 853.715 415.498 853.715 415.498C853.715 415.498 856.053 415.218 860.129 414.714C864.05 413.859 869.666 412.543 876.374 410.68C882.774 408.271 890.112 405.12 897.969 401.535C905.349 397.236 913.066 392.376 920.642 387.237C927.546 381.243 934.227 375.011 940.277 368.989C945.752 362.323 950.668 356.035 954.631 350.447C958.146 344.439 960.835 339.342 962.67 335.756C964.182 331.933 965.05 329.734 965.05 329.734C965.05 329.734 962.992 330.869 959.407 332.857C956.116 335.056 951.382 338.151 945.584 341.61Z" fill="#F2C14E"/>
<path d="M141.949 1213.11C137.44 1208.8 131.964 1203.56 125.69 1197.55C119.206 1191.82 112.778 1184.34 105.23 1176.89C101.518 1173.1 97.6533 1169.14 93.648 1165.05C89.5867 1161.04 85.4133 1156.85 81.4501 1152.23C73.3135 1143.24 64.7428 1133.77 55.8779 1123.97C47.4192 1113.85 38.6944 1103.39 29.8156 1092.76C21.4549 1081.73 12.604 1070.8 4.41142 1059.4C-3.57113 1047.86 -12.3939 1036.86 -19.5922 1025.04C-23.2894 1019.2 -27.0987 1013.49 -30.8939 1007.87C-34.6331 1002.22 -37.9101 996.376 -41.3692 990.761C-48.3014 979.543 -54.4494 968.382 -60.4433 957.836C-66.1011 947.151 -71.5629 937.04 -76.2824 927.545C-80.8899 917.994 -85.2593 909.283 -88.7324 901.37C-92.4016 893.528 -95.2304 886.54 -97.7512 880.812C-102.513 869.286 -104.936 862.508 -104.936 862.508C-104.936 862.508 -104.347 869.678 -101.995 882.1C-100.608 888.234 -99.2637 895.825 -96.7709 904.241C-94.5862 912.77 -91.6734 922.265 -88.1022 932.502C-84.5731 942.754 -80.3858 953.733 -75.4422 965.147C-70.3025 976.448 -65.2049 988.59 -58.5388 1000.42C-52.3348 1012.51 -45.4305 1024.72 -37.7841 1036.77C-30.5718 1049.09 -21.7209 1060.59 -13.6824 1072.65C-5.0556 1084.28 4.29942 1095.36 13.1082 1106.55C22.3792 1117.38 32.2383 1127.37 41.3692 1137.39C50.8783 1147.05 60.6954 1155.76 69.7423 1164.22C78.5932 1172.9 88.2982 1179.67 96.6309 1186.52C105.132 1193.18 112.722 1199.51 120.2 1204.18C127.525 1208.99 133.925 1213.18 139.191 1216.64C149.778 1223.42 155.926 1227.09 155.926 1227.09C155.926 1227.09 150.912 1221.86 141.949 1213.11Z" fill="#F2C14E"/>
</svg>
