<svg width="1696" height="1747" viewBox="0 0 1696 1747" fill="none" xmlns="http://www.w3.org/2000/svg">
<path d="M28.4187 386.079C33.1651 378.796 39.9353 374.793 43.5331 377.143C47.1399 379.489 46.2148 387.295 41.4725 394.587C36.7261 401.87 29.9557 405.872 26.3579 403.523C22.7511 401.177 23.6764 393.371 28.4187 386.079Z" fill="#FFCB51"/>
<path d="M67.2845 470.34C60.6478 465.38 52.8133 459.31 46.519 450.613C43.3298 446.339 40.4695 441.429 38.7876 435.727C37.0888 430.154 36.9382 423.124 40.4152 417.355C41.8663 415.219 42.3698 415.028 43.4547 413.754C45.0178 412.728 46.8532 411.346 48.478 410.994C51.7805 409.981 55.0551 409.99 57.9829 410.48C63.9244 411.407 69.0425 413.652 73.7464 416.068C83.1855 420.895 90.7741 427.002 97.2233 432.149C109.917 442.779 117.166 451.053 117.166 451.053C117.166 451.053 114.95 449.43 111.076 446.606C107.261 443.721 101.613 439.869 94.9236 435.219C88.2423 430.586 80.0693 425.673 71.1408 421.376C66.7053 419.23 61.875 417.367 57.1387 416.788C54.7811 416.439 52.4895 416.608 50.599 417.237C49.5601 417.48 49.2769 418.073 48.4267 418.25C47.7511 419.037 46.1919 420.73 46.2183 420.904C41.4237 428.484 45.7911 439.474 51.3334 447.194C56.8654 455.292 63.528 462.072 69.6448 467.33C75.7605 472.632 81.2483 476.657 85.1469 479.394C89.1274 482.07 91.4034 483.609 91.4034 483.609C91.4034 483.609 88.8976 482.495 84.5054 480.56C80.3007 478.273 73.9788 475.306 67.2845 470.34Z" fill="#FFCB51"/>
<path d="M369.048 889.715C367.664 887.123 366.907 885.007 366.416 883.107C362.878 879.873 359.708 876.699 356.905 873.748C356.354 888.71 355.091 903.323 353.418 917.338C350.377 940.21 345.939 961.594 340.781 981.031C330.449 1019.94 317.277 1050.93 307.227 1072.23C302.02 1082.84 297.733 1091.08 294.509 1096.69C291.337 1102.36 289.256 1105.57 289.395 1105.39L259.559 1086.24C259.666 1086.05 261.195 1083.84 264.1 1078.97C267.085 1074.1 271.246 1066.59 276.325 1056.91C286.176 1037.4 299.331 1008.63 309.981 972.403C315.312 954.301 319.99 934.374 323.412 913.048C326.518 891.704 328.945 868.975 328.498 845.447L328.46 836.587L328.454 832.408L328.175 827.786C327.796 821.631 327.511 815.278 326.829 809.462C325.772 797.664 324.093 785.191 321.981 772.919C317.846 748.235 312.076 723.272 305.358 698.486C292.402 651.359 276.48 605.022 260.577 561.365C260.319 561.046 257.019 556.911 251.415 550.471C261.44 605.857 261.796 715.277 256.215 740.42C247.781 778.438 206.894 794.541 206.894 794.541C178.628 716.649 172.885 637.263 215.794 549.413C163.718 620.523 92.8966 652.538 11.2804 667.287C11.2804 667.287 2.50932 628.403 30.8068 604.036C51.745 586.009 168.292 523.981 215.396 513.187C206.171 504.606 196.013 495.932 185.328 488.031C185.291 488.092 185.257 488.163 185.22 488.224C173.261 506.585 152.792 517.524 127.598 519.011C103.942 520.407 78.652 513.193 56.3997 498.703C36.7967 485.94 21.047 468.285 12.0478 448.986C0.0432347 423.242 0.719154 396.875 13.8909 376.642C37.6886 340.108 95.4789 335.404 142.711 366.164C162.315 378.927 178.064 396.581 187.063 415.88C196.088 435.233 197.939 454.924 192.709 472.112C212.353 486.282 230.262 502.919 244.259 517.286C232.423 485.714 221.148 456.074 211.784 429.428C202.514 403.452 194.981 380.309 189.422 360.997C149.795 368.128 108.06 340.193 84.9382 290.607C79.2848 278.483 74.9415 265.474 72.032 251.939C56.5448 179.896 84.8573 114.754 136.486 103.661C176.782 95 219.699 123.141 243.271 173.692C248.924 185.815 253.263 198.815 256.173 212.35C260.124 230.755 261.138 249.168 259.464 266.618C277.42 242.783 299.263 222.413 323.903 204.252C323.903 204.252 346.118 236.713 333.731 269.079C329.208 280.889 310.793 310.798 289.399 341.263C329.298 306.098 373.615 272.264 389.796 264.346C427.408 245.951 468.87 269.185 468.87 269.185C448.706 302.379 425.259 332.089 396.675 357.018C419.424 355.77 440.059 362.203 455.948 376.039C464.041 383.086 470.497 391.707 475.142 401.668C491.955 437.724 482.544 486.59 451.96 525.444C487.604 515.232 518.724 508.051 531.919 507.33C577.15 504.828 608.857 545.407 608.857 545.407C533.642 599.816 449.671 630.863 341.711 613.781C367.139 623.762 398.004 638.626 425.258 653.111C448.719 638.023 474.334 628.8 498.958 626.986C531.403 624.597 558.462 634.947 575.148 656.138C578.545 660.458 581.45 665.183 583.787 670.195C603.837 713.191 580.905 773.915 529.255 814.592C513.221 827.227 496.195 836.56 479.238 842.766C540.597 847.646 591.273 871.741 637.087 906.707C637.087 906.707 607.556 940.736 568.723 938.015C550.39 936.731 492.575 920.531 443.257 902.266C491.376 927.96 546.599 964.113 560.328 977.859C587.831 1005.4 581.477 1050.02 581.477 1050.02C496.421 1032.35 422.653 990.48 369.048 889.715ZM155.41 494.685C149.908 496.866 146.512 496.924 146.587 497.109C146.587 497.109 147.254 496.633 148.515 495.738C149.784 494.905 151.535 493.529 153.596 491.689C155.695 489.931 157.982 487.515 160.219 484.595C162.579 481.772 164.504 478.087 166.466 474.198C168.267 470.176 169.504 465.605 170.516 460.809C171.419 455.944 171.405 450.737 171.153 445.467C171.016 442.82 170.568 440.164 170.072 437.499C169.45 435.012 168.896 432.813 167.761 429.556C167.019 427.4 166.109 425.048 165.171 422.731C156.357 411.806 143.963 400.971 128.286 390.767C83.8861 361.847 41.728 358.866 25.324 384.052C14.368 400.87 14.8242 422.605 24.4161 443.175C32.0913 459.634 45.6244 475.36 63.8416 487.221C104.014 513.383 152.012 511.051 172.488 482.452C169.996 485.227 167.446 487.69 164.865 489.474C161.528 492.062 158.144 493.607 155.41 494.685ZM231.154 567.008C228.537 572.245 224.877 579.834 221.612 589.4C218.374 598.954 215.06 610.343 213.186 622.893C211.246 635.419 210.417 648.985 210.84 662.528C211.541 676.105 213.773 689.341 215.185 701.665C216.624 713.976 217.722 725.437 216.879 735.256C216.189 745.048 214.424 753.147 212.415 758.583C210.513 764.058 208.87 767.007 208.87 767.007C208.87 767.007 210.914 764.353 213.651 759.115C216.203 753.832 219.39 745.817 220.739 735.673C222.18 725.585 222.37 713.59 221.133 701.053C219.981 688.509 218.085 675.336 217.717 662.24C216.998 649.143 217.488 635.954 219.095 623.726C220.648 611.501 222.659 600.094 225.31 590.529C227.916 580.962 230.283 572.978 232.381 567.544C234.399 562.06 235.553 558.932 235.553 558.932C235.553 558.932 233.947 561.865 231.154 567.008ZM207.76 534.701C202.192 537.517 194.107 541.287 184.649 546.257C175.204 551.254 164.027 556.795 152.34 563.244C140.64 569.665 128.154 576.519 115.668 583.373C103.347 590.556 91.0256 597.739 79.4729 604.476C67.9779 611.384 57.7355 618.695 49.1745 625.211C40.6261 631.754 34.1849 638.039 29.7571 642.452C25.4027 646.951 23.1121 649.688 23.1121 649.688C23.1121 649.688 25.7541 647.281 30.6557 643.437C35.4409 639.461 42.6526 634.288 51.4339 628.338C60.2117 622.358 70.9825 616.227 82.5009 609.605C94.1616 603.147 106.604 596.247 119.042 589.361C131.37 582.24 143.712 575.124 155.272 568.45C166.844 561.803 177.39 555.118 186.555 549.638C195.707 544.13 203.13 539.176 208.427 535.872C213.642 532.441 216.627 530.49 216.627 530.49C216.627 530.49 213.4 532.017 207.76 534.701ZM237.026 482.711C249.173 514.787 263.243 552.231 277.909 592.438C285.208 612.562 292.429 633.459 299.365 654.806C302.676 665.531 306.003 676.336 309.351 687.187C312.367 698.126 315.4 709.101 318.423 720.081C323.988 742.134 329.178 764.372 332.522 786.418C334.269 797.411 335.883 808.357 336.614 819.407C337.865 830.445 338.093 841.006 338.263 851.703C337.782 894.209 330.106 933.663 320.23 966.329C310.573 999.112 299.775 1025.61 291.813 1043.93C283.779 1062.24 278.817 1072.54 278.817 1072.54C278.817 1072.54 284.139 1062.42 292.828 1044.39C301.336 1026.3 313.487 1000.28 323.862 967.433C329.119 951.056 333.981 933.008 337.592 913.569C341.205 894.16 343.918 873.384 344.184 851.74C344.095 841.005 343.899 829.782 342.729 818.871C342.076 807.894 340.53 796.741 338.826 785.486C335.569 763.016 330.503 740.643 325.039 718.335C319.162 696.154 312.526 674.205 305.485 652.775C298.368 631.37 290.97 610.468 283.515 590.339C268.659 550.079 253.299 513.115 240.647 481.253C227.969 449.404 217.172 422.954 210.235 404.197C203.281 385.448 199.532 374.653 199.532 374.653C199.532 374.653 212.7 418.543 237.026 482.711ZM315.554 417.166C284.477 452.87 275.281 498.08 289.85 529.322C293.124 536.344 297.656 542.604 303.353 547.948C300.343 544.413 297.74 540.853 296.001 537.384C293.483 532.972 292.199 528.666 291.377 525.23C289.693 518.301 290.191 514.239 289.953 514.294C289.953 514.294 290.419 515.175 291.273 516.818C292.055 518.472 293.402 520.796 295.262 523.561C297.015 526.354 299.514 529.502 302.631 532.657C305.603 535.946 309.692 538.857 313.994 541.844C318.491 544.664 323.738 546.903 329.303 548.906C334.956 550.791 341.184 551.651 347.513 552.233C350.7 552.503 353.942 552.418 357.199 552.271C360.269 551.937 362.995 551.664 367.063 550.832C369.842 550.249 372.874 549.527 375.881 548.75C390.33 540.059 405.243 527.113 419.961 510.198C461.893 462.025 472.496 412.208 445.18 388.413L445.176 388.404C412.297 359.807 354.27 372.687 315.554 417.166ZM285.707 569.224C287.855 566.346 290.095 563.337 292.423 560.232C285.154 553.493 279.237 545.487 274.941 536.274C258.43 500.868 267.189 453.096 296.468 414.598C276.29 421.571 254.417 427.073 230.44 430.77C243.925 465.36 260.169 504.644 277.056 547.118C279.929 554.36 282.817 561.825 285.707 569.224ZM293.721 590.08C297.876 585.53 305.646 580.448 315.929 575.082C312.606 573.745 309.405 572.176 306.317 570.401C301.38 576.994 296.631 583.378 293.024 588.232C293.261 588.835 293.488 589.464 293.721 590.08ZM355.819 807.971C354.928 806.06 354.225 804.083 353.501 802.106C353.702 803.691 353.976 805.242 354.163 806.845C354.338 808.091 354.431 809.255 354.571 810.474C355.104 809.874 355.632 809.288 356.179 808.649C356.069 808.414 355.928 808.206 355.819 807.971ZM371.243 705.777C351.426 690.579 332.634 671.907 315.018 648.955C319.829 663.085 324.503 677.345 328.826 691.768C336.369 716.958 343.013 742.525 348.011 768.188C348.257 769.445 348.446 770.674 348.679 771.926C349.175 750.35 357.071 727.277 371.243 705.777ZM420.999 677.089C375.216 713.143 355.08 765.649 371.413 800.7C373.174 804.476 375.355 808.047 377.983 811.376C378.176 811.626 378.424 811.828 378.622 812.065C375.594 807.43 373.325 802.705 372.064 798.355C370.391 793.165 369.942 788.437 369.893 784.662C369.708 780.875 370.233 777.953 370.58 775.991C370.895 774.055 371.057 773.014 371.057 773.014C371.057 773.014 371.323 774.031 371.827 775.936C372.229 777.833 373.116 780.536 374.375 783.801C375.581 787.069 377.498 790.828 380.04 794.702C382.577 798.589 386.008 802.487 390.145 806.088C398.465 813.292 410.201 818.881 423.482 821.051C430.205 822.196 436.521 822.114 444.178 821.638C446.877 821.401 449.511 821.072 452.145 820.744C468.915 813.922 487.137 802.967 506.104 788.032C561.028 744.775 584.039 695.186 561.625 666.724C534.67 632.522 471.711 637.156 420.999 677.089ZM100.222 283.447C119.835 325.506 154.914 351.266 188.179 344.117C188.488 344.05 188.758 343.924 189.067 343.856C183.682 344.524 178.553 344.49 174.169 343.725C168.882 342.953 164.521 341.322 161.178 339.731C154.438 336.597 151.548 333.434 151.425 333.689C151.425 333.689 152.43 333.89 154.32 334.271C156.162 334.739 158.919 335.121 162.337 335.415C165.736 335.762 169.872 335.688 174.377 335.135C178.895 334.586 183.795 333.234 188.76 331.149C198.687 326.926 208.665 319.003 216.305 308.252C220.209 302.833 222.867 297.236 225.749 290.285C226.711 287.806 227.548 285.342 228.398 282.882C229.625 265.18 227.834 244.418 222.864 221.287C208.462 154.301 174.737 112.667 140.018 120.132C98.2766 129.106 75.2165 186.52 88.5083 248.371C91.2264 260.931 95.2203 272.72 100.222 283.447ZM203.777 356.717C206.145 364.195 208.856 372.292 211.88 380.966C213.733 369.501 216.149 358.586 219.103 348.188C214.331 351.697 209.182 354.493 203.777 356.717ZM254.099 332.561C259.878 322.48 266.9 312.193 274.303 302.135C281.476 291.888 288.882 281.696 295.487 271.856C302.119 262.025 307.446 252.222 311.626 243.677C315.793 235.106 318.187 227.482 319.698 222.18C321.121 216.83 321.686 213.735 321.686 213.735C321.686 213.735 320.643 216.724 318.441 221.745C316.416 226.838 312.835 233.797 308.213 241.889C303.608 250.017 297.34 258.932 290.578 268.482C283.816 278.033 276.198 287.984 268.708 298.138C261.475 308.49 254.554 319.158 248.874 329.664C243.141 340.15 239.244 350.714 236.59 359.896C233.94 369.11 233.281 377.133 233.054 382.648C232.92 388.198 233.173 391.328 233.173 391.328C233.173 391.328 233.411 388.167 234.39 382.783C235.169 377.371 237.138 369.803 240.278 361.074C243.41 352.305 248.337 342.633 254.099 332.561ZM287.945 382.435C297.359 377.277 308.107 370.696 318.737 362.523C329.398 354.392 340.297 345.216 351.158 336.102C361.807 326.769 372.558 317.63 383.11 309.735C393.653 301.845 403.758 294.828 413.017 289.786C422.25 284.735 430.289 281.052 436.137 279.049C441.924 276.845 445.363 275.889 445.363 275.889C445.363 275.889 441.838 276.379 435.753 277.779C429.697 279.265 421.015 281.733 411.273 286.353C401.567 290.977 390.512 297.087 379.597 304.931C368.664 312.74 357.579 321.75 346.686 330.89C336.009 340.258 325.391 349.588 315.066 357.827C304.741 366.043 294.969 373.541 285.994 379.098C277.054 384.66 269.294 388.915 263.607 391.359C258 393.995 254.664 395.243 254.664 395.243C254.664 395.243 258.129 394.462 264.102 392.609C270.025 390.649 278.496 387.587 287.945 382.435ZM482.262 561.904C495.064 557.328 507.757 552.803 519.985 550.173C532.174 547.507 543.872 546.189 553.943 546.3C564.002 546.361 572.45 547.064 578.303 547.989C584.181 548.804 587.525 549.527 587.525 549.527C587.525 549.527 584.336 548.336 578.574 546.688C572.79 545.204 564.41 543.142 554.08 542.45C543.788 541.773 531.568 541.831 518.783 544.347C505.995 546.788 492.914 551.142 480.027 555.418C467.259 560.066 454.501 564.171 442.217 567.222C429.965 570.246 418.439 572.899 408.416 574.49C398.405 576.085 390.013 577.386 384.096 577.995C378.178 578.669 374.799 579.049 374.799 579.049C374.799 579.049 378.205 579.151 384.171 579.331C390.13 579.285 398.703 579.337 408.911 578.33C419.107 577.296 431.052 575.896 443.598 573.031C456.134 570.214 469.381 566.264 482.262 561.904ZM370.84 657.515C365.366 653.802 360.22 650.297 355.834 647.316C351.43 644.366 347.694 641.861 345.107 640.126C342.462 638.43 340.957 637.463 340.957 637.463C340.957 637.463 342.153 638.804 344.243 641.144C346.434 643.371 349.416 646.754 353.421 650.329C357.407 653.913 362.002 658.213 367.309 662.322C372.635 666.401 378.41 670.644 384.278 674.755C386.955 676.448 389.655 678.097 392.334 679.723C393.867 678.163 395.519 676.668 397.113 675.146C394.111 673.155 391.088 671.119 388.083 669.03C382.135 665.241 376.267 661.317 370.84 657.515ZM365.906 823.625C362.379 827.453 359.199 830.516 356.536 832.877L356.622 835.416L356.835 842.109C359.15 843.543 366.033 847.455 376.796 851.216L376.814 851.207C384.753 849.382 392.496 847.912 400.117 846.629C386.692 842.08 374.972 834.453 365.906 823.625ZM508.963 891.544C521.895 895.862 534.837 900.176 546.963 904.223C559.23 908.149 571.142 910.561 581.415 911.905C591.714 913.259 600.424 912.687 606.384 911.982C612.35 911.197 615.67 910.363 615.67 910.363C615.67 910.363 612.247 910.718 606.309 910.645C600.374 910.79 591.924 909.99 582.022 908.077C572.079 906.217 560.836 902.626 548.826 898.547C536.797 894.236 523.966 889.618 511.143 885.019C498.043 880.834 484.741 877.325 472.161 874.61C459.567 871.889 447.619 870.437 437.413 869.282C427.191 868.166 418.613 868.007 412.637 867.831C406.657 867.832 403.235 867.836 403.235 867.836C403.235 867.836 406.621 868.32 412.534 869.163C418.45 869.894 426.841 871.391 436.881 873.107C446.926 874.81 458.502 877.489 470.836 880.429C483.165 883.382 496.175 887.137 508.963 891.544ZM365.473 859.174C362.204 857.812 359.396 856.52 357.096 855.354C357.097 855.826 357.119 856.298 357.12 856.77C360.635 860.99 366.471 867.575 373.876 874.394C376.527 874.431 379.76 874.964 383.503 875.929C372.463 869.576 365.623 863.779 365.473 859.174ZM561.623 1021.18C556.935 1017.39 550.41 1011.75 542.272 1005.38C534.125 999.044 524.803 991.385 514.482 983.654C504.171 975.897 493.166 967.619 482.175 959.345C470.994 951.324 459.81 943.294 449.332 935.768C438.859 928.229 428.784 921.613 420.29 915.73C411.787 909.874 404.458 905.313 399.446 901.977C394.341 898.749 391.433 896.912 391.433 896.912C391.433 896.912 394.064 899.142 398.664 903.054C403.349 906.84 409.887 912.482 418.011 918.845C426.159 925.186 435.485 932.831 445.805 940.584C456.117 948.341 467.112 956.624 478.112 964.893C489.297 972.923 500.478 980.945 510.956 988.47C521.424 996.022 531.504 1002.63 539.989 1008.51C548.487 1014.38 555.829 1018.93 560.842 1022.26C565.942 1025.48 568.864 1027.32 568.864 1027.32C568.864 1027.32 566.22 1025.09 561.623 1021.18Z" fill="#FFCB51"/>
<path d="M124.977 138.549C123.804 133.115 131.003 126.949 141.037 124.794C151.081 122.634 160.166 125.289 161.334 130.736C162.498 136.174 155.308 142.337 145.274 144.492C135.23 146.651 126.141 143.987 124.977 138.549Z" fill="#FFCB51"/>
<path d="M129.223 163.608C130.5 163.616 131.925 163.588 132.998 163.889C135.337 164.247 137.409 165.3 139.282 166.423C142.968 168.82 145.462 171.981 147.553 175.099C151.647 181.431 153.943 188.12 155.925 194.537C159.76 207.421 161.231 219.706 162.49 230.148C163.685 240.619 163.752 249.4 163.981 255.515C164.085 261.645 163.941 265.148 163.941 265.148C163.941 265.148 163.363 261.697 162.353 255.671C161.459 249.635 159.744 241.085 157.811 230.87C155.847 220.68 152.989 208.855 148.872 196.827C146.816 190.839 144.177 184.805 140.773 179.622C137.304 174.348 132.703 170.929 127.999 172.256C122.763 173.358 118.521 177.794 115.868 183.399C113.245 189.001 111.548 195.269 110.679 201.479C108.88 213.928 109.025 226.053 109.972 236.322C110.946 246.6 112.116 255.229 113.31 261.201C114.481 267.196 115.157 270.623 115.157 270.623C115.157 270.623 113.745 267.429 111.728 261.621C109.867 255.794 107.035 247.414 105.274 236.954C103.57 226.523 101.912 214.094 103.314 200.557C104.04 193.831 105.342 186.738 108.533 179.884C111.546 173.19 117.459 166.032 126.145 164.045C127.805 163.721 127.952 163.707 129.223 163.608Z" fill="#FFCB51"/>
<path d="M429.921 405.935C422.015 399.054 418.365 390.308 421.774 386.392C425.182 382.476 434.349 384.885 442.246 391.771C450.152 398.652 453.802 407.397 450.393 411.313C446.993 415.225 437.826 412.816 429.921 405.935Z" fill="#FFCB51"/>
<path d="M402.895 400.881C403.286 401.225 402.877 400.724 403.917 401.754L404.313 402.228L405.115 403.171L406.709 405.083C407.69 407.117 409.043 409.547 409.207 411.545C409.89 415.671 409.36 419.594 408.297 423.031C406.272 430.033 402.593 435.721 398.909 440.907C391.479 451.307 382.987 459.382 375.747 466.215C360.948 479.591 349.852 486.861 349.852 486.861C349.852 486.861 352.15 484.494 356.18 480.333C360.264 476.266 365.811 470.157 372.468 462.948C379.091 455.734 386.386 446.834 392.929 436.837C396.228 431.885 399.106 426.384 400.658 420.887C401.489 418.151 401.684 415.416 401.276 413.06C401.173 411.78 400.535 411.353 400.462 410.301L398.875 408.451L398.068 407.521L397.947 407.38C397.916 407.383 397.651 407.145 397.681 407.208C393.666 403.823 387.98 402.831 382.251 403.583C376.522 404.334 370.72 406.271 365.467 408.962C354.825 414.122 345.644 421.004 338.341 427.416C330.984 433.832 325.271 439.7 321.351 443.909C317.487 448.213 315.28 450.68 315.28 450.68C315.28 450.68 316.955 447.825 320.083 442.954C323.516 438.291 328.109 431.244 335.153 424.085C342.173 416.971 350.759 408.698 362.149 402.553C367.765 399.44 374.096 396.708 381.22 395.723C388.181 394.672 396.619 395.73 402.895 400.881Z" fill="#FFCB51"/>
<path d="M541.641 682.47C535.156 674.235 533.516 664.717 537.982 661.208C542.434 657.694 551.308 661.523 557.793 669.759C564.278 677.994 565.918 687.512 561.453 691.021C556.996 694.525 548.126 690.706 541.641 682.47Z" fill="#FFCB51"/>
<path d="M515.178 673.699C516.19 675.092 516.266 675.232 516.929 676.35C517.489 677.526 518.157 678.817 518.371 679.935C519.096 682.242 519.058 684.608 518.877 686.833C518.341 691.285 516.554 694.983 514.634 698.303C510.667 704.905 505.562 710.007 500.584 714.699C490.497 723.99 479.906 730.86 470.896 736.696C461.843 742.487 453.827 746.499 448.318 749.441C442.754 752.288 439.484 753.725 439.484 753.725C439.484 753.725 442.38 751.65 447.454 748.011C452.578 744.481 459.65 739.076 468.144 732.723C476.607 726.351 486.146 718.424 495.331 709.247C499.892 704.673 504.242 699.55 507.465 694.107C510.749 688.559 511.809 682.808 508.485 679.091C505.118 674.79 499.154 672.896 492.838 672.977C486.526 673.09 480.022 674.344 473.938 676.336C461.719 680.278 450.678 685.855 441.697 691.327C432.718 696.83 425.335 701.777 420.399 705.549C415.429 709.315 412.593 711.471 412.593 711.471C412.593 711.471 414.888 708.744 419.308 704.291C423.813 699.973 430.221 693.616 439.012 687.311C447.801 681.073 458.452 673.978 471.482 669.185C477.98 666.836 485.051 664.844 492.758 664.685C500.244 664.432 509.457 666.632 515.178 673.699Z" fill="#FFCB51"/>
<path fill-rule="evenodd" clip-rule="evenodd" d="M788.432 1668.8C795.619 1686.07 807.79 1655.09 842.3 1657C857.815 1657.86 872.976 1658.48 888.509 1657.27C907.811 1655.76 926.427 1651.63 944.303 1644.11C967.574 1634.34 985.503 1618.6 991.263 1593.28C992.464 1588.03 993.072 1582.68 993.229 1577.29C993.859 1582.46 994.577 1587.6 995.397 1592.72C997.252 1604.1 999.711 1616 1003.51 1627.17L1001.12 1633.58C998.264 1641.27 994.018 1649.37 989.76 1656.33C981.378 1670.04 970.073 1683.47 955.902 1691.43C948.099 1695.83 941.419 1701.87 936.092 1709.07C927.877 1720.2 923.138 1733.75 922.181 1747.52C921.158 1761.86 924.226 1776.32 931.264 1788.87C936.298 1797.82 943.184 1805.46 951.434 1811.56C970.965 1825.99 991.3 1845.95 1005.92 1865.33C1010.74 1871.72 1015.73 1878.94 1019.1 1886.2C1020.15 1888.48 1022.68 1894.57 1021.68 1897.12C1020.06 1901.36 1020.09 1905.88 1022.77 1909.68C1023.17 1910.25 1023.64 1910.78 1024.15 1911.25C1032.35 1918.91 1047.22 1910.14 1054.29 1904.86C1065.14 1896.75 1075.36 1886.07 1083.02 1874.91C1102.27 1846.88 1106.08 1815.35 1081.81 1788.32C1063.18 1767.56 1041.56 1743.45 1030.13 1717.79C1021.65 1698.75 1019.19 1679.48 1019.84 1659.56C1027.89 1673.03 1036.98 1686.17 1047.33 1697.08C1058.26 1708.59 1069.91 1716.78 1084.73 1722.5C1098.87 1727.97 1114.37 1730.85 1129.02 1734.84C1145.62 1739.37 1160.99 1745.1 1176.15 1752.47L1171.28 1756.23C1157.9 1766.46 1144.53 1782.89 1135.94 1797.13C1115.4 1831.22 1110.26 1868.95 1121.23 1907.36C1127.53 1929.39 1138.17 1948.74 1152.47 1966.55C1164.82 1981.94 1179.05 1995.11 1193.56 2008.36C1208 2021.52 1229.44 2039.82 1234.69 2059.27C1235.62 2062.68 1236.09 2066.17 1236.08 2069.7C1236.06 2075.85 1236.83 2083.66 1241.21 2088.38C1243.43 2090.75 1246.19 2092.42 1249.44 2092.83C1256.93 2093.73 1263.03 2087.66 1267.09 2082.14C1272.86 2074.29 1277.54 2064.12 1281.15 2055.11C1288.47 2036.91 1293.76 2016.9 1296.4 1997.49C1300.14 1970.01 1299.4 1935.88 1281.05 1913.32C1268.79 1898.26 1255.01 1884.82 1241.06 1871.34C1210.19 1841.53 1179.56 1813.44 1188.13 1766.51L1189.44 1759.35C1194.1 1761.9 1230.17 1771.66 1254.8 1790.33C1268.65 1800.82 1277.19 1822 1278.7 1827.06C1281.07 1834.98 1280.66 1844.41 1280.45 1852.63C1280.11 1866.25 1280.13 1878.9 1282.84 1892.38C1286.53 1910.71 1294.45 1927.15 1305.16 1942.42C1337.5 1988.48 1408.19 1984.7 1456.24 1971.8C1466.75 1968.98 1478.17 1965.3 1487.93 1960.42C1494.3 1957.23 1503.63 1951.43 1502.7 1943.07C1502.29 1939.46 1500.02 1936.66 1497.12 1934.68C1497 1934.59 1496.87 1934.52 1496.74 1934.42C1492.9 1931.95 1487.46 1931.76 1483.04 1932.02C1465.81 1933.03 1452.6 1931.57 1440.36 1918.59C1432.69 1910.48 1426.34 1899.7 1420.99 1889.95C1412.12 1873.73 1404.21 1856.7 1396.43 1839.95C1411.89 1852.2 1428.49 1862.75 1445.9 1872.08C1475.15 1887.73 1508.53 1890.44 1540.91 1885.64C1568.12 1881.6 1596.37 1872 1620.55 1858.88C1629.12 1854.24 1638.91 1848.29 1646.06 1841.62C1650.89 1837.11 1656.71 1830.15 1654.23 1823.05C1652.74 1818.8 1648.8 1816.42 1644.66 1815.26C1638.75 1813.59 1630.21 1815.84 1624.51 1817.62C1620.37 1818.92 1616.17 1819.35 1611.86 1818.78C1601.69 1817.44 1592.38 1810.65 1584.93 1803.97C1574.45 1794.56 1565.02 1783.17 1555.91 1772.45C1524.8 1735.79 1491.73 1698.13 1439.37 1697.85C1400.44 1697.66 1362.28 1707.85 1329.91 1729.74C1318.51 1737.46 1304.84 1748.86 1295.89 1760.25C1291.22 1760.69 1286.55 1761.22 1281.89 1761.65C1274.57 1762.34 1266.69 1763.04 1259.48 1762.5C1252.3 1761.84 1246.94 1759.7 1240.46 1756.73C1233.11 1752.9 1224.6 1750.42 1216.72 1747.89C1209.48 1745.57 1200.88 1742.9 1194.46 1738.83C1188.52 1735.07 1182.45 1731.56 1176.24 1728.29C1176.21 1728.27 1176.18 1728.26 1176.14 1728.24C1169.04 1724.66 1161.15 1721.98 1153.55 1719.61C1144.72 1716.85 1135.8 1714.43 1126.91 1711.95C1117.13 1709.22 1098.33 1704.3 1085.06 1697.99C1108.26 1703.32 1132.8 1698.84 1156.64 1688.01C1179.98 1677.42 1208.63 1666.06 1234.32 1663.15C1242.4 1662.23 1262.34 1661.29 1267.62 1669.84C1268.62 1671.47 1269.92 1672.9 1271.55 1673.91C1271.72 1674.02 1271.9 1674.13 1272.08 1674.23C1275.53 1676.11 1279.66 1676.97 1283.22 1674.8C1290.14 1670.59 1287.61 1660.43 1285.34 1654.32C1282.83 1647.5 1279.64 1640.71 1276.22 1634.29C1248.73 1582.61 1201.7 1543.96 1140.05 1550.13C1115.93 1552.54 1091.11 1558.98 1072.03 1574.6C1059.47 1584.9 1052.41 1596.38 1044.92 1610.42C1043.01 1614 1039.21 1621.83 1035.45 1623.66C1033.49 1624.64 1031.15 1624.25 1029.13 1623.67C1008.28 1594.34 1010.38 1520.04 1009.61 1507.45C1006.26 1453.13 1010.73 1470.88 1000.68 1411.61C1000.67 1411.57 1000.67 1411.54 1000.66 1411.49C998.577 1400.62 996.882 1390 994.671 1379.53L999.323 1375.77C1002.78 1372.99 1008.18 1370.64 1012.46 1369.75C1023.24 1367.48 1031.76 1372.21 1038.55 1380.44C1041.93 1384.56 1045.16 1388.84 1048.37 1393.08C1055.25 1402.17 1062.16 1411.23 1069.93 1419.59C1099.47 1451.41 1131.58 1460.54 1171.01 1438.14C1187.87 1428.55 1202.49 1416.33 1215.48 1401.96C1225.91 1390.39 1234.68 1378 1243.47 1365.19C1261.17 1339.38 1252.85 1345.8 1278.13 1344.19C1285.33 1343.73 1289.19 1335.85 1285.68 1329.72C1278.33 1316.91 1225.65 1289.44 1210.15 1286.68C1187.33 1282.62 1161.22 1286.74 1142.82 1301.55C1125.76 1315.28 1106.81 1322.37 1084.88 1322.28C1067.2 1322.21 1050.77 1317.62 1033.99 1312.62C1023.48 1309.47 1008.77 1304.56 997.826 1306.77C994.581 1307.42 991.488 1308.61 988.782 1310.54C981.912 1315.42 979.445 1323.52 978.71 1331.56C978.639 1332.28 978.59 1333.01 978.553 1333.75C948.24 1279.86 885.365 1247.71 823.7 1260.96C823.635 1260.97 823.574 1260.99 823.503 1261.01C805.839 1265.46 789.088 1259.46 779.327 1279.54C779.283 1279.62 779.259 1279.7 779.203 1279.77C777.531 1283.68 775.53 1288.94 779.395 1292.31C782.37 1294.92 785.994 1293.92 789.19 1292.56C791.91 1291.41 794.586 1290.04 797.29 1288.83C805.367 1285.19 813.494 1282.52 822.145 1281.52C835.099 1280.48 847.595 1280.17 860.565 1281.36C871.368 1282.36 881.409 1284.09 891.809 1287.29C909.233 1292.67 921.04 1299.37 934.115 1311.85C946.582 1324.59 954.071 1337.1 961.233 1353.17C968.911 1371.48 973.857 1389.53 977.655 1408.98C978.997 1415.79 980.161 1422.62 981.19 1429.48C979.879 1428.5 978.559 1427.6 977.236 1426.76C970.419 1422.42 962.488 1419.44 954.427 1421.9C951.244 1422.87 948.428 1424.59 945.915 1426.76C937.484 1434.1 932.4 1448.72 928.46 1458.99C922.191 1475.34 915.797 1491.15 905.064 1505.2C891.815 1522.55 874.502 1533.33 853.299 1538.44C830.332 1543.98 811.131 1562.14 800.419 1582.7C793.131 1596.66 782.757 1655.18 788.432 1668.8ZM986.353 1477.26C986.779 1483.71 987.13 1490.17 987.473 1496.6C988.252 1511.26 988.938 1525.92 989.918 1540.57C990.082 1543.08 990.254 1545.58 990.447 1548.09C988.544 1538.32 985.955 1528.69 983.449 1519.48C982.042 1514.34 980.617 1509.17 979.427 1503.99C977.088 1493.8 978.449 1484.37 986.353 1477.26Z" fill="#F2C14E"/>
<path fill-rule="evenodd" clip-rule="evenodd" d="M1322.12 1768.56C1299.08 1770.64 1279.93 1776.98 1259 1779.27C1249 1779.59 1242.08 1777.81 1232.74 1774.34C1218.02 1768.91 1204.23 1761.28 1190.59 1753.58C1098.11 1703.47 1072.79 1749.35 1012.48 1634.78C993.151 1590.86 995.493 1508.17 990.34 1457.35C988.514 1440.58 986.309 1424.49 983.158 1407.9C979.086 1387.56 974.445 1370.21 966.412 1351C958.791 1333.89 951.283 1321.38 938.121 1307.92C924.149 1294.58 911.84 1287.69 893.442 1281.92C882.317 1278.6 872.579 1276.91 861.053 1275.76C847.363 1274.6 835.337 1274.81 821.667 1275.92C792.963 1279.21 777.548 1297.88 784.347 1282.01C792.537 1265.16 806.239 1271.16 824.841 1266.48C887.345 1253.05 952.034 1288.39 978.833 1346.77C988.218 1368.46 990.698 1389.42 995.101 1412.57C1008.28 1490.29 998.283 1567.55 1027.63 1636.54C1036.24 1656.8 1053.38 1675.36 1069.11 1694.23C1085.97 1711.66 1146.46 1719.66 1173.59 1733.29C1179.75 1736.54 1185.53 1739.91 1191.43 1743.61C1203.94 1751.55 1224.82 1754.96 1237.97 1761.82C1245.24 1765.16 1250.91 1767.39 1258.93 1768.13C1271.73 1769.07 1289.15 1766.31 1302.53 1765.38C1306.23 1765.18 1331.7 1764.77 1322.12 1768.56ZM1271.62 1774.91L1271.46 1774.94C1271.51 1774.94 1271.57 1774.93 1271.62 1774.91Z" fill="#F2C14E"/>
<path fill-rule="evenodd" clip-rule="evenodd" d="M1011.05 1637.27C1011.05 1637.27 994.905 1681.64 961.097 1700.65C927.298 1719.65 920.344 1775.43 957.723 1803.05C995.108 1830.66 1038.99 1881.76 1031.59 1900.93C1024.18 1920.09 1124.06 1851.24 1073.95 1795.4C1023.85 1739.56 1002.42 1708.46 1011.05 1637.27Z" fill="#BF681B"/>
<path fill-rule="evenodd" clip-rule="evenodd" d="M1006.41 1635.55C1006.36 1635.67 990.878 1678.23 958.676 1696.33C951.512 1700.36 945.458 1705.89 940.634 1712.41C933.17 1722.52 928.709 1735.01 927.794 1747.92C926.889 1760.84 929.512 1774.22 936.189 1786.1C940.581 1793.91 946.728 1801.08 954.783 1807.03C974.377 1821.51 995.802 1842.58 1010.42 1861.94C1022.41 1877.82 1029.7 1892.02 1026.96 1899.15C1025.82 1902.08 1026.03 1904.52 1027.38 1906.43C1030.46 1910.8 1040.1 1908.42 1050.92 1900.34C1059.68 1893.81 1070.13 1883.74 1078.4 1871.71C1094.01 1848.94 1102 1819.23 1077.65 1792.07C1052.9 1764.5 1035.25 1743.07 1024.99 1720.08C1014.84 1697.28 1011.78 1672.49 1015.97 1637.85L1020.99 1596.28L1006.41 1635.55ZM963.525 1704.97C982.214 1694.46 995.699 1676.7 1004.26 1662.25C1003.84 1686.25 1007.75 1705.7 1015.95 1724.08C1026.78 1748.4 1044.91 1770.44 1070.27 1798.71C1090.6 1821.35 1083.62 1846.62 1070.26 1866.09C1062.66 1877.16 1053.04 1886.41 1045.01 1892.41C1041.25 1895.21 1038.59 1897.98 1037.07 1899.52C1038.8 1888.69 1030.98 1872.71 1018.35 1855.96C1003.22 1835.92 981.005 1814.08 960.67 1799.05C953.825 1793.99 948.587 1787.89 944.843 1781.24C939.148 1771.11 936.908 1759.67 937.693 1748.6C938.478 1737.53 942.263 1726.86 948.615 1718.26C952.599 1712.89 957.603 1708.3 963.525 1704.97Z" fill="#F2C14E"/>
<path fill-rule="evenodd" clip-rule="evenodd" d="M1026.17 1633.83C1026.17 1633.83 1061.84 1719.45 1152.28 1678.39C1242.7 1637.33 1270.05 1653.62 1276.64 1664.31C1283.23 1675 1243.58 1550.42 1141.13 1560.67C1038.66 1570.93 1065.14 1645.17 1026.17 1633.83Z" fill="#BF681B"/>
<path fill-rule="evenodd" clip-rule="evenodd" d="M1021.6 1635.79C1021.71 1636.05 1059.22 1726.08 1154.31 1682.91C1189.86 1666.76 1215.41 1659.63 1233.68 1657.56C1259.19 1654.66 1269.13 1661.59 1272.4 1666.9C1273.08 1668.01 1273.89 1668.79 1274.76 1669.26L1274.77 1669.29C1281.13 1672.75 1284.56 1668.44 1280.06 1656.28C1278.28 1651.47 1275.35 1644.68 1271.23 1636.94C1253.08 1602.78 1211.29 1548.66 1140.6 1555.73C1077.06 1562.08 1061 1592.21 1049.88 1613.06C1043.77 1624.54 1039.49 1632.54 1027.55 1629.07L1017.47 1626.13L1021.6 1635.79ZM1150.23 1673.9C1081.66 1705.03 1046.42 1659.66 1034.99 1640.11C1046.86 1639.77 1051.93 1630.27 1058.63 1617.74C1068.73 1598.79 1083.32 1571.44 1141.63 1565.6C1206.65 1559.1 1245.5 1609.68 1262.47 1641.59C1264.23 1644.91 1265.75 1648.01 1267.04 1650.81C1259.35 1647.67 1248.28 1645.93 1232.53 1647.71C1213.42 1649.88 1186.88 1657.25 1150.23 1673.9Z" fill="#F2C14E"/>
<path fill-rule="evenodd" clip-rule="evenodd" d="M1177.74 1764.63C1177.74 1764.63 1106.79 1818.17 1131.41 1904.46C1156.06 1990.74 1246.81 2013.51 1246.7 2069.75C1246.58 2125.96 1317.81 1975.31 1272.85 1920.02C1227.89 1864.75 1164.85 1835.22 1177.74 1764.63Z" fill="#BF681B"/>
<path fill-rule="evenodd" clip-rule="evenodd" d="M1174.73 1760.71C1174.52 1760.87 1101.09 1816.29 1126.66 1905.82C1139.76 1951.67 1170.58 1979.77 1197.39 2004.21C1221.27 2025.98 1241.79 2044.69 1241.74 2069.74C1241.72 2077.28 1243.06 2082.09 1245.36 2084.57C1250.25 2089.83 1256.38 2087.24 1262.57 2078.82C1266.8 2073.07 1271.53 2064.02 1275.96 2053.03C1291.5 2014.33 1303.63 1949.99 1276.71 1916.9C1264.17 1901.49 1250.39 1888.17 1237.18 1875.42C1203.5 1842.88 1173.73 1814.14 1182.62 1765.53L1184.94 1752.84L1174.73 1760.71ZM1136.18 1903.09C1118.1 1839.83 1153.35 1794.94 1171.23 1777.11C1168.48 1822.86 1197.63 1851.02 1230.28 1882.55C1243.28 1895.12 1256.88 1908.24 1269 1923.16C1293.18 1952.89 1281.38 2012.93 1266.77 2049.32C1262.65 2059.59 1258.34 2067.86 1254.6 2072.95C1252.83 2075.36 1253.24 2078.46 1252.64 2077.81C1252.01 2077.13 1251.66 2074.58 1251.66 2069.74C1251.72 2040.32 1229.71 2020.24 1204.08 1996.91C1178.23 1973.33 1148.49 1946.21 1136.18 1903.09Z" fill="#F2C14E"/>
<path fill-rule="evenodd" clip-rule="evenodd" d="M1256.87 1792.36C1256.87 1792.36 1347.84 1760.63 1386.81 1844.37C1425.78 1928.11 1437.85 1945.28 1483.69 1942.61C1529.52 1939.91 1364.95 2009.16 1313.84 1936.36C1262.75 1863.55 1323.41 1823.38 1256.87 1792.36Z" fill="#BF681B"/>
<path fill-rule="evenodd" clip-rule="evenodd" d="M1270.41 1793.97C1295.48 1788.93 1353.66 1784.87 1382.32 1846.44C1402.02 1888.81 1414.99 1914.39 1429.06 1929.29C1442.74 1943.78 1457.02 1948.27 1478.38 1947.77C1471.92 1950.71 1462.87 1953.94 1452.2 1956.81C1410.78 1967.92 1345.8 1973.28 1317.89 1933.52C1294.81 1900.62 1295.45 1874.52 1295.99 1853.01C1296.59 1829.12 1297.04 1810.35 1270.41 1793.97ZM1391.32 1842.29C1348.89 1751.14 1288.91 1793.77 1227.42 1771.2L1248.15 1786.85C1254.67 1789.89 1266.5 1803.02 1270.62 1806.29C1286.93 1819.26 1286.57 1834.22 1286.12 1852.78C1285.55 1875.75 1284.85 1903.66 1309.8 1939.2C1340.89 1983.5 1410.58 1978.24 1454.81 1966.38C1467.64 1962.92 1478.39 1958.91 1485.43 1955.4C1496.97 1949.62 1500.51 1943.56 1493.72 1939.19L1493.72 1939.17C1491.82 1937.93 1488.43 1937.36 1483.4 1937.65C1462.09 1938.9 1448.69 1935.62 1436.29 1922.49C1423.12 1908.56 1410.56 1883.66 1391.32 1842.29ZM1486.89 1947.42C1487.75 1947.41 1488.21 1947.44 1488.33 1947.51C1489.49 1948.26 1488.5 1947.92 1486.89 1947.42Z" fill="#F2C14E"/>
<path fill-rule="evenodd" clip-rule="evenodd" d="M1302.35 1769.27C1302.35 1769.27 1345.6 1707.98 1439.3 1708.46C1533.02 1708.94 1564.14 1847.63 1627.7 1827.73C1691.26 1807.83 1548.48 1914.98 1450.89 1862.78C1353.31 1810.57 1362.37 1761.51 1302.35 1769.27Z" fill="#BF681B"/>
<path fill-rule="evenodd" clip-rule="evenodd" d="M1313.77 1763.47C1329.39 1747.03 1370.07 1713.05 1439.27 1713.42C1485.59 1713.64 1516.58 1750.14 1544.06 1782.51C1571.37 1814.66 1595.44 1843.02 1629.19 1832.46C1631.4 1831.76 1633.27 1831.24 1634.85 1830.85C1630.34 1834.9 1622.85 1840 1613.17 1845.24C1575.77 1865.54 1507.13 1887.25 1453.22 1858.42C1409.51 1835.04 1387.48 1812.22 1370.91 1795.05C1352.35 1775.82 1340.18 1763.22 1313.77 1763.47ZM1439.34 1703.5C1343.06 1703.01 1298.47 1766.18 1298.35 1766.36L1291.64 1775.65L1303.01 1774.18C1333.21 1770.27 1344.76 1782.22 1363.77 1801.92C1380.79 1819.54 1403.41 1842.97 1448.58 1867.13C1506.2 1897.96 1578.59 1875.28 1617.89 1853.96C1628.79 1848.05 1637.25 1842.17 1642.24 1837.53C1650.91 1829.42 1651.76 1823.12 1643.15 1820.7C1640.05 1819.83 1634.5 1820.42 1626.21 1823.01C1598.77 1831.61 1576.67 1805.6 1551.64 1776.1C1522.75 1742.08 1490.21 1703.75 1439.34 1703.5ZM1638.48 1830.18C1639.38 1830.09 1640.04 1830.11 1640.48 1830.23C1641.92 1830.63 1640.26 1830.36 1638.48 1830.18Z" fill="#F2C14E"/>
<path fill-rule="evenodd" clip-rule="evenodd" d="M1033.36 1906.1C1041.98 1882.74 1052.32 1862.14 1044.52 1836.81C1036.84 1811.9 1013.97 1791.37 1001.99 1768.15C984.4 1734 980.295 1685.84 999.854 1651.55C1001.58 1648.53 1005.84 1650.2 1005.41 1653.51C1001.77 1682.16 993.225 1706.26 999.175 1735.71C1004.33 1761.25 1019.27 1783.76 1034.57 1804.32C1045.89 1819.52 1054.71 1835.71 1054.3 1855.05C1053.92 1872.29 1042.32 1891.91 1035.25 1907.06C1034.64 1908.32 1032.88 1907.34 1033.36 1906.1Z" fill="#F2C14E"/>
<path fill-rule="evenodd" clip-rule="evenodd" d="M1266.88 1659.44C1247.93 1636.35 1227.55 1624.3 1198.47 1617.27C1169.51 1610.25 1148.16 1614.9 1123 1629.72C1091.63 1648.21 1056.9 1668.88 1025.25 1639.32C1020.87 1635.23 1026.77 1628.69 1031.41 1632.41C1076.17 1668.31 1115.5 1611.66 1160.52 1605.73C1196.38 1601.01 1255.6 1622 1269.81 1658.01C1270.55 1659.86 1267.99 1660.8 1266.88 1659.44Z" fill="#F2C14E"/>
<path fill-rule="evenodd" clip-rule="evenodd" d="M1479.65 1952.49C1432.51 1973.25 1374.47 1958.12 1349.1 1912.33C1337.31 1891.04 1331.33 1867.21 1322.27 1844.75C1311.82 1818.87 1294.42 1806.6 1271.26 1800.26C1264.59 1798.43 1268.29 1785.35 1260.69 1784.33C1256.35 1783.74 1256.89 1776.52 1261.28 1776.63C1266.78 1776.76 1261.1 1788.97 1265.96 1789.78C1305.32 1796.26 1324.54 1823.94 1338.1 1862.89C1347.49 1889.83 1356.73 1917.52 1379.82 1935.92C1407.48 1957.97 1445.73 1954.35 1477.78 1946.99C1481.43 1946.15 1483.1 1950.98 1479.65 1952.49Z" fill="#F2C14E"/>
<path fill-rule="evenodd" clip-rule="evenodd" d="M1630.5 1837.28C1572.5 1861.31 1530.33 1835.65 1485.29 1798.84C1436.72 1759.12 1365.73 1746.24 1309.22 1773.03C1304.78 1775.14 1302.21 1768.42 1305.64 1765.74C1348.46 1732.37 1415.04 1751.35 1458.77 1772.5C1484.56 1784.94 1504.11 1805.14 1527.79 1820.76C1558.98 1841.33 1594.09 1844.35 1629.9 1835.53C1631.06 1835.26 1631.61 1836.83 1630.5 1837.28Z" fill="#F2C14E"/>
<path fill-rule="evenodd" clip-rule="evenodd" d="M992.696 1367.53C992.696 1367.53 1021.96 1343.68 1046.72 1373.74C1071.48 1403.8 1103.95 1464.08 1165.77 1428.94C1227.59 1393.81 1241.74 1329.97 1264.76 1330.32C1227.33 1287.36 1174.87 1289.33 1149.43 1309.81C1059.63 1382.12 969.243 1250.9 992.696 1367.53Z" fill="#BF681B"/>
<path fill-rule="evenodd" clip-rule="evenodd" d="M995.789 1371.39C995.858 1371.34 1021.27 1350.62 1042.88 1376.87C1045.94 1380.59 1049.31 1385.03 1052.84 1389.69C1077.57 1422.31 1110.64 1465.95 1168.2 1433.25C1203.84 1413 1223.87 1383.77 1238.79 1362C1249.44 1346.49 1257.2 1335.15 1264.66 1335.27L1275.77 1335.44L1268.46 1327.07C1250.62 1306.59 1229.44 1295.85 1209.13 1292.24C1184.57 1287.87 1161.2 1293.97 1146.32 1305.95C1104.56 1339.57 1062.11 1326.9 1032.35 1318.02C1018.67 1313.93 1007.44 1310.58 998.901 1312.29C984.844 1315.12 979.903 1329.1 987.824 1368.52L989.433 1376.51L995.789 1371.39ZM1050.54 1370.6C1030.22 1345.93 1007.23 1353.47 996.19 1359.42C991.454 1332.87 993.776 1323.43 1000.87 1322.01C1007.01 1320.77 1017.16 1323.8 1029.54 1327.49C1061.37 1336.99 1106.74 1350.54 1152.52 1313.69C1165.36 1303.35 1185.77 1298.12 1207.41 1301.97C1223.67 1304.86 1240.6 1312.9 1255.56 1327.75C1247.16 1332.3 1239.8 1343.02 1230.63 1356.4C1216.25 1377.37 1196.94 1405.52 1163.33 1424.62C1113.31 1453.06 1083.24 1413.38 1060.76 1383.72C1057.24 1379.09 1053.91 1374.68 1050.54 1370.6Z" fill="#F2C14E"/>
<path fill-rule="evenodd" clip-rule="evenodd" d="M995.624 1360.45C1004.01 1346.18 1021.93 1348.67 1035.86 1351.21C1063.57 1356.24 1089.35 1368.73 1116.98 1374.17C1150.7 1380.82 1183.67 1349.82 1211.46 1335.29C1226.04 1327.67 1269.37 1312.6 1280.77 1332.54C1282.22 1335.07 1280.85 1338.39 1277.76 1338.6C1263.38 1339.51 1250.97 1334.53 1236.1 1338.12C1221.15 1341.74 1207.52 1350.37 1194.41 1358.1C1173.11 1370.67 1150.93 1383.41 1125.38 1382.58C1105.38 1381.93 1084.61 1371.39 1065.88 1365.24C1049.6 1359.89 1010.34 1343.42 997.627 1361.83C996.832 1362.96 994.931 1361.63 995.624 1360.45Z" fill="#F2C14E"/>
<path fill-rule="evenodd" clip-rule="evenodd" d="M997.165 1459.78C997.165 1459.78 960.418 1468.41 969.123 1506.37C977.827 1544.32 1005.74 1606.83 940.192 1634.38C874.638 1661.92 815.419 1634.15 801.666 1652.61C790.483 1596.74 824.041 1556.38 855.789 1548.73C967.874 1521.72 919.093 1370.04 997.165 1459.78Z" fill="#BF681B"/>
<path fill-rule="evenodd" clip-rule="evenodd" d="M988.608 1457.61C977.165 1462.72 957.163 1476.32 964.311 1507.49C965.495 1512.68 966.933 1518 968.459 1523.59C978.242 1559.5 991.317 1607.54 938.275 1629.82C902.628 1644.79 868.537 1642.9 843.142 1641.5C826.945 1640.6 813.987 1639.89 805.249 1643.76C802.623 1622.86 806.588 1604.55 814.233 1589.9C824.389 1570.39 840.975 1557.42 857 1553.55C914.139 1539.78 931.088 1495.56 943.002 1464.55C947.622 1452.49 951.42 1442.59 956.144 1438.49C961.584 1433.72 970.457 1437.66 988.608 1457.61ZM973.939 1505.25C966.339 1472.11 998.258 1464.62 998.347 1464.6L1006.24 1462.67L1000.9 1456.53C974.519 1426.22 960.43 1421.59 949.609 1431.01C943.038 1436.74 938.841 1447.67 933.722 1461C922.592 1490 906.722 1531.35 854.62 1543.91C836.029 1548.4 816.928 1563.18 805.41 1585.3C795.867 1603.6 791.475 1626.93 796.814 1653.59L798.989 1664.47L805.634 1655.57C810.095 1649.59 823.822 1650.35 842.605 1651.39C868.942 1652.85 904.326 1654.81 942.123 1638.94C1003.15 1613.31 988.771 1560.48 978.018 1520.98C976.476 1515.3 975.009 1509.92 973.939 1505.25Z" fill="#F2C14E"/>
<path fill-rule="evenodd" clip-rule="evenodd" d="M989.767 1457.79C973.35 1455.71 964.378 1471.44 957.88 1484.02C944.965 1509.04 939.124 1537.08 926.57 1562.29C911.251 1593.06 866.58 1600.26 838.102 1613.42C823.168 1620.32 784.805 1645.45 793.617 1666.65C794.742 1669.34 798.207 1670.28 800.255 1667.96C809.76 1657.12 813.371 1644.24 825.301 1634.66C837.3 1625.03 852.454 1619.49 866.57 1613.83C889.518 1604.63 913.161 1594.82 928.085 1574.08C939.775 1557.83 944.098 1534.96 950.669 1516.36C956.36 1500.2 967.277 1459.04 989.612 1460.21C991.008 1460.28 991.127 1457.96 989.767 1457.79Z" fill="#F2C14E"/>
<path fill-rule="evenodd" clip-rule="evenodd" d="M57.9139 748.603C104.73 753.621 176.853 772.136 260.455 800.474C311.69 817.876 351.334 836.729 397.787 865.725C423.943 882.122 457.262 897.185 490.104 907.444C517.575 915.923 521.156 916.367 559.009 915.478C579.43 915.033 598.414 915.14 609.168 915.923C656.574 919.268 716.41 930.532 802.631 952.623C908.083 979.617 980.807 1004.61 1024.76 1029.15C1039.21 1037.18 1045.18 1041.75 1048.04 1047.11C1049.36 1049.57 1051.15 1051.91 1051.86 1052.35C1054.25 1053.8 1053.65 1059.6 1049.12 1080.13C1040.04 1121.06 1038.14 1124.63 1003.51 1166.36C982.131 1192.12 971.025 1204.51 956.451 1219.01C944.393 1230.95 942.954 1233.18 940.573 1243.55C938.306 1253.92 935.792 1260.06 931.381 1266.75C917.17 1287.62 897.825 1304.12 887.195 1304.12C883.375 1304.12 883.851 1302.11 880.27 1332.01C877.879 1351.19 864.868 1445.11 858.058 1492.63C854.352 1517.96 852.923 1553.65 855.076 1567.49C855.914 1572.5 857.705 1579.53 859.134 1582.88C860.448 1586.34 861.639 1589.91 861.763 1590.91C861.887 1592.58 868.087 1603.74 885.052 1633.19C896.158 1652.27 932.582 1721.65 939.392 1736.49C945.24 1749.09 955.394 1778.1 959.099 1792.71C961.966 1804.31 962.205 1818.92 959.576 1827.4C957.185 1834.99 948.946 1850.26 940.23 1863.43C923.99 1887.97 906.197 1906.26 887.09 1917.98C873.593 1926.23 869.297 1928.24 856.276 1931.59C842.779 1935.16 838.245 1937.84 805.041 1962.27C761.807 1994.17 727.183 2013.8 676.186 2035.33C630.923 2054.41 612.292 2058.86 581.726 2057.87C547.216 2056.64 531.453 2050.17 465.892 2010.23C445.355 1997.63 394.72 1969.3 381.823 1963.16L377.166 1960.92L360.925 1966.17C351.972 1969.07 335.37 1975.2 323.901 1979.78C300.26 1989.26 292.011 1991.26 275.895 1991.26C252.492 1991.26 232.661 1986.13 201.38 1971.74C180.244 1962.04 163.642 1952.33 146.087 1939.29C132.352 1929.14 99.2717 1898.9 85.6604 1884.07C61.4191 1857.64 35.2634 1819.49 17.8325 1785.02C-4.61804 1740.62 -17.9912 1704.59 -27.3068 1662.32C-33.5171 1634.44 -43.0708 1582.67 -43.309 1576.09C-43.4327 1568.05 -42.4708 1567.05 -24.3256 1557.01C-9.63794 1548.76 23.9189 1526.01 42.912 1511.17C61.4192 1496.78 101.186 1458.74 104.292 1452.49C109.064 1442.45 116.474 1279.7 112.292 1275.69C111.816 1275.35 102.615 1273.35 91.7565 1271.11C58.5617 1264.65 43.1501 1258.84 18.6707 1243.78C-12.019 1224.93 -31.3646 1199.61 -40.5658 1166.25C-45.8236 1147.07 -43.6709 1122.97 -34.2411 1097.87C-32.3265 1092.63 -24.8112 1077 -17.6388 1063.18C1.9447 1025.37 5.88806 1012.64 1.9447 1000.15C-1.03662 990.56 -4.38 984.982 -19.6678 963.673C-35.546 941.698 -43.0708 927.863 -50.5956 906.785C-58.3585 885.032 -60.7494 873.546 -61.578 853.91C-62.7687 826.355 -57.9966 796.239 -48.681 771.585C-42.4707 754.849 -39.1274 752.287 -20.7346 749.724C-9.56165 748.15 46.0933 747.376 57.9139 748.603ZM332.102 840.066C332.102 840.626 334.017 841.961 336.398 842.851C342.609 845.306 342.971 844.861 337.475 841.845C331.626 838.616 332.102 838.731 332.102 840.066Z" fill="#F2C14E"/>
<mask id="mask0_66_405" style="mask-type:luminance" maskUnits="userSpaceOnUse" x="-62" y="747" width="1116" height="1311">
<path d="M57.9139 748.603C104.73 753.621 176.853 772.136 260.455 800.474C311.69 817.876 351.334 836.729 397.787 865.725C423.943 882.122 457.262 897.185 490.104 907.444C517.575 915.923 521.156 916.367 559.009 915.478C579.43 915.033 598.414 915.14 609.168 915.923C656.574 919.268 716.41 930.532 802.631 952.623C908.083 979.617 980.807 1004.61 1024.76 1029.15C1039.21 1037.18 1045.18 1041.75 1048.04 1047.11C1049.36 1049.57 1051.15 1051.91 1051.86 1052.35C1054.25 1053.8 1053.65 1059.6 1049.12 1080.13C1040.04 1121.06 1038.14 1124.63 1003.51 1166.36C982.131 1192.12 971.025 1204.51 956.451 1219.01C944.393 1230.95 942.954 1233.18 940.573 1243.55C938.306 1253.92 935.792 1260.06 931.381 1266.75C917.17 1287.62 897.825 1304.12 887.195 1304.12C883.375 1304.12 883.851 1302.11 880.27 1332.01C877.879 1351.19 864.868 1445.11 858.058 1492.63C854.352 1517.96 852.923 1553.65 855.076 1567.49C855.914 1572.5 857.705 1579.53 859.134 1582.88C860.448 1586.34 861.639 1589.91 861.763 1590.91C861.887 1592.58 868.087 1603.74 885.052 1633.19C896.158 1652.27 932.582 1721.65 939.392 1736.49C945.24 1749.09 955.394 1778.1 959.099 1792.71C961.966 1804.31 962.205 1818.92 959.576 1827.4C957.185 1834.99 948.946 1850.26 940.23 1863.43C923.99 1887.97 906.197 1906.26 887.09 1917.98C873.593 1926.23 869.297 1928.24 856.276 1931.59C842.779 1935.16 838.245 1937.84 805.041 1962.27C761.807 1994.17 727.183 2013.8 676.186 2035.33C630.923 2054.41 612.292 2058.86 581.726 2057.87C547.216 2056.64 531.453 2050.17 465.892 2010.23C445.355 1997.63 394.72 1969.3 381.823 1963.16L377.166 1960.92L360.925 1966.17C351.972 1969.07 335.37 1975.2 323.901 1979.78C300.26 1989.26 292.011 1991.26 275.895 1991.26C252.492 1991.26 232.661 1986.13 201.38 1971.74C180.244 1962.04 163.642 1952.33 146.087 1939.29C132.352 1929.14 99.2717 1898.9 85.6604 1884.07C61.4191 1857.64 35.2634 1819.49 17.8325 1785.02C-4.61804 1740.62 -17.9912 1704.59 -27.3068 1662.32C-33.5171 1634.44 -43.0708 1582.67 -43.309 1576.09C-43.4327 1568.05 -42.4708 1567.05 -24.3256 1557.01C-9.63794 1548.76 23.9189 1526.01 42.912 1511.17C61.4192 1496.78 101.186 1458.74 104.292 1452.49C109.064 1442.45 116.474 1279.7 112.292 1275.69C111.816 1275.35 102.615 1273.35 91.7565 1271.11C58.5617 1264.65 43.1501 1258.84 18.6707 1243.78C-12.019 1224.93 -31.3646 1199.61 -40.5658 1166.25C-45.8236 1147.07 -43.6709 1122.97 -34.2411 1097.87C-32.3265 1092.63 -24.8112 1077 -17.6388 1063.18C1.9447 1025.37 5.88806 1012.64 1.9447 1000.15C-1.03662 990.56 -4.38 984.982 -19.6678 963.673C-35.546 941.698 -43.0708 927.863 -50.5956 906.785C-58.3585 885.032 -60.7494 873.546 -61.578 853.91C-62.7687 826.355 -57.9966 796.239 -48.681 771.585C-42.4707 754.849 -39.1274 752.287 -20.7346 749.724C-9.56165 748.15 46.0933 747.376 57.9139 748.603ZM332.102 840.066C332.102 840.626 334.017 841.961 336.398 842.851C342.609 845.306 342.971 844.861 337.475 841.845C331.626 838.616 332.102 838.731 332.102 840.066Z" fill="white"/>
</mask>
<g mask="url(#mask0_66_405)">
<path fill-rule="evenodd" clip-rule="evenodd" d="M-13.0211 679.549C-2.86731 683.34 2.50464 691.258 3.81921 704.648C4.65735 713.91 7.40051 720.708 11.6963 724.391C13.849 726.179 14.4397 726.179 19.2212 724.613C35.0995 719.373 72.2473 725.948 131.474 744.694C193.692 764.33 230.116 779.5 289.114 810.177C332.939 832.936 374.382 851.789 403.996 862.27C445.192 876.879 476.72 883.133 535.718 888.596C586.829 893.392 606.413 896.292 643.199 904.878C667.564 910.563 675.803 912.796 741.716 931.649C852.779 963.554 863.999 966.339 930.398 978.946C999.541 992.105 1049.1 1004.83 1064.27 1013.31C1084.81 1024.79 1086.12 1049.56 1066.78 1061.05C1059.85 1065.18 1053.17 1067.07 1015.78 1076C958.936 1089.49 946.991 1090.94 924.426 1086.49C912.72 1084.15 912.129 1084.15 900.185 1085.93C893.498 1086.93 881.916 1088.94 874.505 1090.5C867.104 1091.95 854.684 1093.74 847.035 1094.4C839.396 1095.07 826.852 1096.64 819.327 1097.75C803.086 1100.31 798.067 1100.43 759.614 1099.08C730.715 1097.97 730.001 1097.97 693.453 1091.17C673.155 1087.38 649.742 1082.91 641.503 1081.13C633.264 1079.34 620.243 1076.78 612.719 1075.44C570.446 1068.19 528.165 1052.36 425.227 1005.17C397.281 992.452 367.781 979.178 359.542 975.832C351.303 972.487 338.644 967.131 331.482 963.892C316.318 957.202 246.451 930.982 230.811 926.08C224.963 924.291 210.275 920.172 198.207 917.04C149.724 904.326 139.57 900.865 107.204 885.58C79.8578 872.75 73.1711 868.4 41.2812 843.523C10.8296 819.652 -6.61072 803.7 -23.0891 784.518C-29.5376 777.044 -35.0336 770.905 -35.1479 770.905C-35.2717 770.905 -32.7571 778.601 -29.5376 787.863C-20.4602 814.296 1.62842 883.463 22.7645 952.175C33.2706 986.536 44.1388 1021.11 46.6534 1029.14C53.702 1050.78 79.1339 1135.45 85.9443 1159.99C89.2877 1171.7 94.0692 1186.54 96.6885 1192.9C99.3174 1199.15 103.613 1211.09 106.242 1219.34C115.32 1248.34 126.426 1276.34 136.932 1297.09C139.913 1303.11 147.438 1318.4 153.534 1331.11C165.479 1355.99 186.253 1391.12 199.874 1409.98C226.382 1446.34 286.333 1493.64 334.577 1516.17C354.161 1525.32 390.708 1535.91 416.855 1540.16C432.495 1542.61 478.234 1543.5 502.961 1541.83C535.68 1539.49 547.148 1537.14 574.494 1527.11C596.945 1518.97 613.9 1514.05 629.073 1511.49C643.284 1509.15 643.761 1508.93 664.544 1496.21C679.47 1487.06 682.223 1484.72 724.495 1445.34C771.663 1401.17 777.397 1394.92 802.601 1360.45C820.032 1336.69 833.767 1319.74 838.663 1315.72C845.473 1310.48 851.683 1308.25 859.322 1308.25C880.582 1308.25 892.165 1327.21 883.802 1348.18C877.23 1364.46 843.197 1423.03 820.984 1456.05C798.533 1489.62 773.092 1522.64 755.185 1541.27C734.649 1562.46 700.13 1591.69 671.469 1611.77C635.169 1637.32 622.025 1645.01 580.467 1664.98C563.75 1673.01 544.281 1682.71 537.356 1686.51C518.125 1696.88 488.635 1710.6 474.776 1715.62C455.193 1722.87 443.849 1724.99 425.818 1724.99C408.501 1724.99 400.138 1723.88 363.362 1716.18C317.261 1706.7 293.257 1698.78 254.452 1680.6C210.627 1659.97 189.367 1646.02 146.857 1610.1C97.1743 1568.16 71.1423 1533.02 52.5112 1482.71C42.4814 1455.49 37.8237 1433.3 31.2513 1381.09C29.2225 1365.47 26.7174 1347.85 25.6411 1342.05C24.5647 1336.25 23.4884 1326.21 23.4884 1319.73C23.3646 1309.47 23.7266 1307.35 26.2316 1302.67L29.0988 1297.21L13.5729 1282.6C-9.9541 1260.4 -23.8036 1243.66 -33.481 1225.93C-35.7479 1221.58 -39.8057 1217.12 -46.6161 1211.43C-66.6758 1194.47 -82.2017 1171.83 -83.2781 1157.89C-83.9924 1148.18 -81.7255 1141.83 -75.277 1135.8C-72.2957 1132.9 -67.9902 1129.78 -65.8472 1128.77C-62.7419 1127.21 -62.1418 1126.32 -62.618 1124.31C-63.5706 1120.07 -66.5615 1087.94 -70.9812 1035.07C-75.5151 980.521 -77.3059 963.679 -81.8494 936.018C-87.9358 898.534 -97.137 864.512 -110.386 829.493C-114.092 819.679 -119.34 805.844 -122.093 798.815C-127.827 783.423 -129.255 771.599 -126.036 763.903C-123.531 757.542 -116.244 751.073 -109.672 749.294L-104.414 747.844L-103.7 740.148C-102.985 731.784 -101.071 727.434 -95.8225 722.523C-88.6597 715.716 -76.3533 713.261 -67.1616 716.837C-61.4275 719.07 -60.8369 718.955 -60.8369 715.387C-60.8369 708.803 -57.1317 702.228 -48.302 692.628C-37.9102 681.471 -32.0616 678.348 -22.3843 678.464C-18.879 678.428 -14.6975 678.989 -13.0211 679.549ZM81.3151 1332.88C81.3151 1336.67 85.6109 1351.29 87.8874 1355.3L89.4399 1358.2L90.7544 1355.08C92.6689 1350.39 92.4308 1347.27 89.0781 1339.24C85.4966 1330.2 85.1346 1329.76 82.9915 1329.76C81.9152 1329.76 81.3151 1330.88 81.3151 1332.88Z" fill="#C9A227"/>
<path fill-rule="evenodd" clip-rule="evenodd" d="M475.294 1116.26C485.686 1118.04 492.134 1121.61 494.877 1127.07C501.088 1139.12 492.486 1151.28 478.037 1151.28C471.712 1151.28 471.712 1151.28 462.511 1160.09C448.662 1173.25 440.775 1176.15 413.79 1178.28C390.387 1180.07 384.053 1178.84 358.974 1167.46L339.866 1158.76L328.522 1158.31C314.073 1157.75 312.882 1157.53 309.053 1154.18C304.995 1150.72 304.757 1145.82 308.453 1142.7C310.005 1141.47 316.092 1138.35 322.064 1135.78C334.361 1130.65 338.666 1130.21 350.249 1133.11C356.221 1134.67 362.669 1135.12 382.377 1135.12H406.856L414.019 1131.43C417.839 1129.42 427.278 1124.97 434.679 1121.4C447.462 1115.49 449.014 1115.04 457.368 1114.81C462.397 1114.7 470.398 1115.37 475.294 1116.26Z" fill="#C9A227"/>
<path fill-rule="evenodd" clip-rule="evenodd" d="M533.327 1225.47C542.167 1229.94 546.586 1237.74 545.624 1247C545.148 1251.24 543.472 1254.59 537.385 1263.06C529.86 1273.77 526.641 1278.34 513.382 1298.09C503.228 1313.15 486.15 1326.75 463.223 1338.02C449.373 1344.93 439.096 1347.61 427.037 1347.61C414.617 1347.61 405.539 1345.05 391.451 1337.68C385.603 1334.56 372.582 1328.31 362.552 1323.74C352.523 1319.05 340.34 1312.8 335.568 1309.8C325.891 1303.77 303.44 1285.04 297.353 1277.89C284.095 1262.38 284.818 1244.98 299.03 1236.73C303.811 1233.95 305.602 1233.61 313.241 1233.72C318.851 1233.72 324.471 1233.05 329.12 1231.6C340.826 1228.14 374.497 1224.57 393.014 1225.02C410.93 1225.35 432.905 1225.35 476.606 1225.02C492.732 1224.9 507.419 1224.79 509.448 1224.9C511.363 1224.9 516.735 1224.68 521.392 1224.34C527.831 1223.8 530.584 1224.13 533.327 1225.47Z" fill="#C9A227"/>
<path fill-rule="evenodd" clip-rule="evenodd" d="M1089.23 1735.24C1104.28 1741.6 1111.2 1756.99 1104.87 1769.82C1100.45 1778.74 1093.05 1782.98 1078.24 1784.88C1062.6 1787 1025.69 1799.83 1000.86 1811.77C984.616 1819.58 985.454 1818.57 989.988 1823.48C998.466 1832.52 999.78 1843.44 993.693 1854.94C989.036 1863.42 981.749 1869.88 945.925 1896.99C897.681 1933.25 868.306 1956 840.597 1978.09C781.723 2025.27 773.722 2031.19 756.043 2040.11C733.831 2051.38 725.953 2052.6 721.296 2045.58C718.552 2041.23 719.029 2038.44 724.525 2027.06C727.868 2020.37 728.23 2019.03 726.439 2019.47C725.363 2019.81 714.971 2024.05 703.512 2028.96C609.89 2068.56 561.522 2077.26 498.228 2065.88C467.176 2060.3 444.126 2049.82 415.112 2028.17C395.529 2013.67 378.574 2008.09 350.628 2007.2C336.654 2006.76 330.33 2007.2 312.413 2009.54C292.115 2012.33 284.114 2013.78 256.882 2019.36C240.88 2022.59 216.162 2022.59 201.713 2019.36C190.483 2016.79 164.689 2006.75 154.545 2001.06C146.182 1996.27 137.466 1988.13 133.17 1980.88C130.189 1975.86 129.703 1973.85 129.703 1966.04C129.703 1958.01 130.065 1956.45 133.285 1951.66C135.552 1948.2 139.133 1944.85 142.715 1942.73C147.849 1939.83 149.763 1939.39 157.05 1939.39C168.032 1939.39 173.176 1941.73 187.025 1953.33C200.998 1964.93 203.504 1965.72 227.631 1966.38C252.234 1967.05 257.482 1966.04 287.581 1954.34C344.665 1932.25 368.906 1926.34 402.587 1926.34C437.696 1926.45 457.28 1932.81 504.81 1959.58C516.63 1966.16 529.889 1973.19 534.547 1975.19C570.971 1990.92 624.826 1997.73 653.01 1990.25C675.585 1984.23 697.797 1971.74 745.918 1938.16C766.94 1923.55 774.341 1917.64 817.451 1880.83C882.66 1825.39 890.175 1819.37 916.093 1801.4C957.774 1772.51 1000.28 1752.21 1048.05 1738.6C1065.23 1733.68 1082.07 1732.23 1089.23 1735.24ZM465.852 1999.16C469.081 2001.72 481.493 2007.86 479.588 2005.97C478.159 2004.52 464.424 1996.82 463.585 1996.82C463.223 1996.93 464.186 1997.93 465.852 1999.16Z" fill="#C9A227"/>
</g>
<path fill-rule="evenodd" clip-rule="evenodd" d="M-20.3082 775.821C-13.4978 787.645 -3.22972 801.027 8.35276 813.189C17.5444 822.896 41.3095 842.638 50.8631 848.546C57.1877 852.452 59.7024 856.803 55.7591 856.803C50.987 856.803 16.7062 829.471 3.09491 814.746C-12.9072 797.788 -29.7475 773.472 -29.7475 767.671C-29.7475 762.653 -26.0423 765.776 -20.3082 775.821Z" fill="#BF681B"/>
<path fill-rule="evenodd" clip-rule="evenodd" d="M-17.4382 816.197C-17.0763 816.535 -18.8671 819.435 -21.496 822.558C-29.859 832.932 -32.6021 847.212 -27.9444 855.691C-26.7537 857.808 -20.8958 864.499 -14.8093 870.416C-0.959864 884.028 8.24131 900.087 11.4608 915.924C12.4133 920.942 10.3844 926.298 7.64122 925.738C5.96481 925.515 5.61243 924.288 5.96486 919.714C6.20298 915.364 5.25038 911.574 1.90708 903.539C-3.46505 890.381 -8.36083 883.459 -20.7815 871.412C-26.1537 866.172 -31.4115 860.255 -32.4879 858.476C-38.2219 847.986 -35.1168 831.259 -25.2012 819.097C-22.5723 815.867 -19.2289 814.524 -17.4382 816.197Z" fill="#BF681B"/>
<path fill-rule="evenodd" clip-rule="evenodd" d="M109.262 875.319C138.761 890.933 146.048 893.389 192.978 903.54C204.56 905.996 225.697 915.142 246.118 926.628C266.416 938.008 275.494 940.908 299.02 943.809C310.489 945.143 319.918 948.275 359.571 963.667C363.867 965.34 377.25 972.369 389.423 979.397C415.217 994.229 425.847 999.256 438.982 1002.49C445.554 1004.05 448.659 1005.39 448.897 1006.61C449.374 1009.07 446.03 1009.07 436.601 1006.84C424.542 1003.82 412.474 998.357 390.747 985.75C365.429 971.141 362.562 969.797 341.788 962.324L325.31 956.416L325.91 973.258C326.51 995.679 324.357 1005.49 313.613 1029.36C300.116 1058.81 294.982 1073.87 294.267 1085.92C292.953 1105.22 299.64 1120.17 312.775 1127.98C319.347 1131.88 324.243 1132.11 333.311 1128.87C341.912 1125.75 350.989 1126.53 363.762 1131.32C380.955 1137.69 393.976 1137.01 411.407 1128.65C424.78 1122.18 434.334 1115.37 437.201 1110.13C439.944 1104.89 441.62 1103.66 443.525 1105.44C445.916 1107.68 439.82 1116.6 431.943 1122.51C421.551 1130.2 403.52 1138.46 393.366 1140.02C383.098 1141.69 375.211 1140.58 358.857 1135.11C345.598 1130.53 343.931 1130.42 335.092 1133.54C321.833 1138.11 311.565 1135.77 301.897 1125.73C292.105 1115.58 288.524 1104.42 289.476 1086.69C290.315 1071.07 292.705 1063.38 305.478 1035.38C317.661 1008.61 320.166 999.905 321.004 983.392C321.719 968 320.052 955.055 317.061 953.053C314.794 951.487 303.926 949.263 286.486 946.691C270.483 944.236 264.397 942.118 243.975 931.184C209.818 912.891 202.179 909.875 178.052 905.302C148.201 899.724 133.389 894.261 102.814 877.748C86.8115 869.162 82.63 865.701 87.2878 864.918C88.2402 864.722 98.1559 869.411 109.262 875.319Z" fill="#BF681B"/>
<path fill-rule="evenodd" clip-rule="evenodd" d="M35.0986 906.556C35.5748 907 35.9369 910.906 35.9369 915.257C35.9369 931.432 44.4142 991.443 50.3864 1017.89C54.6822 1037.07 75.8183 1112.14 88.7247 1154.08C93.9826 1171.26 101.984 1197.81 106.518 1212.98C111.051 1228.27 115.833 1243.66 117.147 1247.23C120.015 1255.14 120.129 1257.26 117.624 1257.26C115.233 1257.26 113.442 1252.91 107.594 1234.17C73.1989 1121.51 50.8721 1044.54 45.0142 1017.99C41.6709 1002.93 35.8226 966.006 32.9555 941.584C30.2028 918.264 31.1647 902.872 35.0986 906.556Z" fill="#BF681B"/>
<path fill-rule="evenodd" clip-rule="evenodd" d="M29.0146 1007.05C29.8528 1008.95 30.4433 1014.97 30.4433 1021.89C30.3195 1037.28 27.9383 1045.2 15.2795 1071.64C9.78352 1083.24 4.04949 1095.95 2.74456 1099.98C-2.51328 1115.37 -3.70395 1130.21 -0.360653 1141.81C3.3446 1155.42 10.1455 1162.67 35.1107 1179.52C52.4272 1191.22 56.9612 1195.13 55.6468 1196.92C54.4561 1198.81 52.4178 1198.37 49.1983 1195.58C47.4076 1194.13 39.1683 1188.23 30.5672 1182.43C-0.00828171 1161.79 -6.93291 1151.53 -7.04721 1127.55C-7.04721 1110.04 -3.22769 1097.65 12.06 1066.64C22.5662 1045.11 25.557 1035.07 25.4332 1021.9C25.3093 1016.1 25.1951 1009.86 24.957 1008.07C24.4712 1003.71 27.2239 1003.04 29.0146 1007.05Z" fill="#BF681B"/>
<path fill-rule="evenodd" clip-rule="evenodd" d="M512.431 1029.59C531.776 1035.5 564.857 1048.11 601.995 1063.72C659.193 1087.82 674.957 1092.61 702.313 1093.73C711.152 1094.07 727.269 1095.63 738.137 1097.19C750.081 1098.76 762.978 1099.87 770.979 1099.87C778.142 1099.87 789.61 1100.65 796.297 1101.54C811.699 1103.78 822.929 1103.78 828.425 1101.66C830.692 1100.77 836.788 1097.43 841.798 1094.07C846.818 1090.83 852.542 1087.49 854.581 1086.71C860.905 1084.15 873.926 1083.93 888.023 1086.15C897.939 1087.72 906.292 1088.16 922.418 1088.05C941.888 1087.83 943.678 1087.93 943.316 1089.72C942.478 1093.73 913.579 1094.41 888.385 1090.95C864.62 1087.82 858.41 1088.94 842.77 1099.31C838.588 1102.1 833.092 1105.22 830.587 1106.22C824.739 1108.46 811.004 1108.46 793.801 1106.22C786.639 1105.22 775.056 1104.44 768.122 1104.44C761.197 1104.44 745.909 1103.21 733.965 1101.65C722.144 1100.2 704.942 1098.53 695.75 1097.97C670.909 1096.4 654.069 1091.16 597.823 1067.29C566.295 1053.9 534.529 1041.85 515.06 1035.72C505.03 1032.6 501.687 1031.03 501.925 1029.82C502.401 1027.36 504.906 1027.36 512.431 1029.59Z" fill="#BF681B"/>
<path fill-rule="evenodd" clip-rule="evenodd" d="M521.27 1051.11C524.737 1056.25 527.004 1075.21 525.451 1084.69C523.422 1096.29 513.745 1111.8 505.029 1117.38C501.448 1119.72 500.01 1120.06 499.057 1119.17C497.981 1118.16 499.181 1116.27 504.553 1111.47C508.973 1107.34 512.916 1102.1 515.783 1096.75C519.727 1089.27 520.203 1087.26 520.555 1078.34C520.917 1071.53 520.317 1065.85 519.003 1060.94C517.926 1056.92 516.736 1052.57 516.374 1051.12C515.898 1049.33 516.25 1048.67 517.688 1048.67C518.641 1048.67 520.308 1049.78 521.27 1051.11Z" fill="#BF681B"/>
<path fill-rule="evenodd" clip-rule="evenodd" d="M1039.43 1060.6C1041.11 1062.05 1040.15 1064.17 1037.52 1064.84C1036.09 1065.28 1027.13 1069.07 1017.46 1073.32C999.541 1081.13 986.883 1084.8 972.081 1086.15C964.442 1086.81 963.842 1086.71 963.842 1084.7C963.842 1082.68 965.156 1082.24 974.824 1081.01C989.988 1079.12 998.589 1076.44 1018.77 1067.51C1036.33 1059.82 1038 1059.15 1039.43 1060.6Z" fill="#BF681B"/>
<path fill-rule="evenodd" clip-rule="evenodd" d="M1015.9 1090.49C1017.93 1095.4 1012.2 1109.12 1004.92 1116.7C998.949 1122.84 993.691 1126.07 975.184 1134.99C952.257 1146.15 943.056 1153.29 938.046 1164.55C935.179 1170.91 936.131 1178.61 943.18 1206.71C943.656 1208.72 943.304 1209.28 941.389 1209.28C938.522 1209.28 937.446 1206.71 933.988 1190.98C930.521 1174.92 930.759 1167.67 935.302 1159.3C940.913 1148.81 949.638 1142.12 972.441 1131.08C983.671 1125.62 994.177 1119.7 997.52 1116.8C1003.97 1111.44 1010.06 1101.29 1011.37 1094.04C1012.32 1089.26 1014.71 1087.37 1015.9 1090.49Z" fill="#BF681B"/>
<path fill-rule="evenodd" clip-rule="evenodd" d="M945.094 1108.45C947.961 1111.24 941.275 1127.19 933.988 1134.89C927.178 1142.24 923.958 1139.35 930.521 1131.65C935.302 1126.07 937.446 1122.06 939.951 1114.47C941.989 1108.56 943.418 1106.89 945.094 1108.45Z" fill="#BF681B"/>
<path fill-rule="evenodd" clip-rule="evenodd" d="M916.424 1121.84C917.738 1123.06 917.376 1135.56 915.948 1143.03C914.033 1153.29 892.183 1237.29 890.392 1241.19C887.049 1248.78 882.753 1247.1 885.61 1239.3C888.592 1231.71 909.737 1149.61 911.166 1140.13C911.88 1135.56 912.595 1129.53 912.843 1126.85C913.081 1122.17 914.633 1120.16 916.424 1121.84Z" fill="#BF681B"/>
<path fill-rule="evenodd" clip-rule="evenodd" d="M25.6724 1128.2C27.3488 1132.11 37.9692 1142.81 49.5612 1152.07C56.0097 1157.43 57.3242 1160.21 53.2665 1160.21C50.7614 1160.21 28.3108 1140.8 24.1293 1135.01C20.1859 1129.32 19.2334 1124.52 22.2147 1124.52C23.1672 1124.52 24.7199 1126.19 25.6724 1128.2Z" fill="#BF681B"/>
<path fill-rule="evenodd" clip-rule="evenodd" d="M984.863 1146.15C985.339 1147.38 984.625 1149.05 982.949 1150.72C980.082 1153.51 963.003 1160.54 961.336 1159.53C959.545 1158.53 960.145 1155.74 962.289 1154.96C966.823 1153.51 978.891 1147.93 981.396 1146.15C983.901 1144.48 984.139 1144.48 984.863 1146.15Z" fill="#BF681B"/>
<path fill-rule="evenodd" clip-rule="evenodd" d="M953.448 1172.15C954.163 1173.15 959.059 1192.23 959.059 1193.79C959.059 1195.24 955.83 1195.01 954.763 1193.56C953.572 1191.67 949.505 1176.72 949.505 1173.82C949.505 1171.47 952.258 1170.36 953.448 1172.15Z" fill="#BF681B"/>
<path fill-rule="evenodd" clip-rule="evenodd" d="M71.2853 1182.18C75.1049 1188.32 75.8193 1195.01 72.5998 1195.68C71.171 1195.9 70.5708 1195.34 70.5708 1193.56C70.5708 1192.23 68.8945 1188.32 66.9895 1185.08C64.9607 1181.74 63.6462 1178.62 64.0081 1178.05C65.5512 1175.71 68.0659 1177.17 71.2853 1182.18Z" fill="#BF681B"/>
<path fill-rule="evenodd" clip-rule="evenodd" d="M498.094 1184.53C506.571 1187.21 512.429 1190.11 521.621 1196.13C532.851 1203.49 555.178 1222.68 555.892 1225.58C556.492 1227.59 555.292 1229.81 550.634 1235.17C547.291 1239.08 539.29 1249.45 532.956 1258.37C519.697 1276.78 511.343 1285.71 501.428 1292.06C489.245 1299.75 488.054 1299.98 460.47 1300.87C445.068 1301.43 429.656 1302.65 420.465 1303.99C395.385 1307.89 378.192 1306.77 365.172 1300.64C347.493 1292.16 320.385 1270.86 303.792 1252.34C290.657 1237.62 290.771 1238.95 301.163 1228.03C319.794 1208.28 331.139 1198.69 341.054 1194.12L350.484 1189.77H365.41C378.069 1189.77 382.726 1190.33 394.785 1193.11C406.253 1195.79 411.74 1196.46 422.255 1196.46H435.39L452.707 1189.87C468.709 1183.74 470.862 1183.18 480.768 1182.85C488.778 1182.63 493.198 1183.08 498.094 1184.53ZM455.107 1194.23C445.315 1197.92 434.924 1201.04 430.98 1201.37C421.789 1202.48 409.368 1201.15 392.404 1197.46C374.249 1193.56 357.418 1193.11 347.979 1196.35C338.425 1199.7 327.557 1208.06 313.108 1223.12C297.706 1239.3 297.229 1238.29 320.394 1238.29C337.349 1238.29 343.559 1237.63 379.745 1232.05C408.882 1227.47 411.749 1227.47 471.224 1231.04C507.524 1233.27 517.916 1232.71 535.356 1227.58C548.015 1223.9 548.139 1223.79 543.481 1222C540.976 1221 539.899 1219.88 540.252 1218.88C541.443 1216.09 519.592 1199.47 506.457 1193.11C489.74 1184.98 479.349 1185.2 455.107 1194.23ZM535.594 1232.95L523.773 1236.63L496.303 1236.51C481.139 1236.51 460.241 1235.73 449.726 1234.84C421.665 1232.5 404.11 1232.95 382.85 1236.51C353.827 1241.42 339.978 1242.76 320.509 1242.76H302.116L309.879 1251.34C319.194 1261.94 340.216 1279.79 352.389 1287.6C374.963 1301.99 387.86 1304.34 418.074 1299.54C427.989 1297.97 441.363 1296.98 458.079 1296.42L483.273 1295.75L491.036 1292.18C503.095 1286.6 513.124 1277.23 525.669 1259.73C531.755 1251.36 538.928 1241.66 541.671 1238.31C547.167 1231.5 548.596 1229.39 547.881 1229.39C547.539 1229.37 542.043 1231.05 535.594 1232.95Z" fill="#BF681B"/>
<path fill-rule="evenodd" clip-rule="evenodd" d="M18.6225 1205.5C21.9658 1213.64 28.0524 1218.21 50.2648 1228.81C70.8009 1238.74 78.9258 1243.87 78.9258 1246.77C78.9258 1249.33 75.6967 1248.56 69.734 1244.54C66.505 1242.42 56.4751 1237.29 47.2835 1232.94C27.0998 1223.57 19.3369 1217.99 15.1554 1210.18C11.4501 1203.26 11.212 1200.36 14.3172 1200.36C15.8793 1200.37 17.1937 1201.93 18.6225 1205.5Z" fill="#BF681B"/>
<path fill-rule="evenodd" clip-rule="evenodd" d="M917.024 1226.92C921.682 1240.31 920.368 1247.89 910.1 1267.53C904.489 1278.34 901.384 1281.91 899.117 1279.79C897.927 1278.68 898.165 1277.68 899.717 1275.33C907.118 1264.51 914.881 1246.22 914.881 1239.52C914.881 1237.18 913.805 1232.38 912.49 1228.7C909.985 1222.01 910.1 1219.33 912.852 1219.33C913.681 1219.33 915.472 1222.57 917.024 1226.92Z" fill="#BF681B"/>
<path fill-rule="evenodd" clip-rule="evenodd" d="M134.341 1287.6C143.895 1314.49 150.82 1329.66 160.974 1345.27C170.527 1360.1 195.721 1395.13 205.522 1407.29C224.992 1431.39 256.034 1460.39 281.951 1478.57C346.798 1524.19 388.356 1538.25 465.261 1540.14C529.032 1541.82 576.2 1532.23 630.664 1506.46C658.611 1493.3 694.32 1470.32 722.619 1447.34C730.144 1441.2 742.803 1431.16 750.68 1425.14C779.817 1402.6 805.373 1377.62 837.025 1340.59C848.369 1327.32 858.523 1316.38 859.361 1316.38C864.619 1316.38 861.99 1320.17 834.405 1352.08C808.487 1382.19 782.694 1406.85 754.871 1428.49C748.661 1433.4 736.24 1443.21 727.401 1450.35C682.738 1486.26 641.894 1510.14 598.422 1525.64C555.911 1540.93 522.707 1545.72 467.062 1544.72C386.813 1543.27 345.969 1529.89 280.17 1483.48C254.491 1465.41 228.697 1441.98 208.399 1418.45C187.863 1394.69 153.344 1345.05 144.505 1326.43C137.456 1311.7 130.055 1292.07 130.532 1289.17C130.998 1286.59 133.627 1285.48 134.341 1287.6Z" fill="#BF681B"/>
<path fill-rule="evenodd" clip-rule="evenodd" d="M471.588 1341.03C473.141 1341.59 474.217 1342.6 473.979 1343.27C473.617 1344.16 466.578 1344.6 452.128 1344.72C440.308 1344.94 425.858 1345.38 420 1345.94C410.085 1346.83 409.494 1346.73 409.97 1344.72C410.332 1342.93 412.123 1342.38 422.267 1341.26C436.717 1339.69 467.768 1339.58 471.588 1341.03Z" fill="#BF681B"/>
<path fill-rule="evenodd" clip-rule="evenodd" d="M104.841 1476.12C103.765 1487.95 101.136 1500.88 93.735 1532.12C87.4104 1558.67 85.372 1565.14 82.3907 1566.81C79.6475 1568.48 78.4472 1565.24 80.3617 1561.45C84.067 1554.2 97.0783 1498.1 99.4691 1479.47C100.66 1469.32 101.145 1468.09 103.174 1468.09C105.441 1468.09 105.556 1468.65 104.841 1476.12Z" fill="#BF681B"/>
<path fill-rule="evenodd" clip-rule="evenodd" d="M851.104 1576.73C851.466 1577.62 850.866 1580.97 849.914 1584.2C846.932 1593.24 844.894 1605.74 839.046 1649.91C829.492 1721.19 827.577 1731.34 823.52 1731.34C820.776 1731.34 820.538 1729.66 822.329 1724.53C824.482 1718.51 827.225 1700.21 834.274 1647.12C839.293 1609.19 842.398 1591.34 845.618 1580.52C846.932 1576.29 850.038 1574.17 851.104 1576.73Z" fill="#BF681B"/>
<path fill-rule="evenodd" clip-rule="evenodd" d="M370.316 1623.36C374.374 1633.73 387.033 1645.22 403.159 1652.92C418.923 1660.39 430.143 1664.4 435.163 1664.4C439.944 1664.4 441.249 1665.29 439.459 1667.42C436.83 1670.32 428.714 1668.98 414.855 1663.41C397.424 1656.38 389.776 1652.03 379.746 1643.44C368.64 1633.85 360.162 1617.78 365.658 1616.67C367.097 1616.45 368.287 1618.23 370.316 1623.36Z" fill="#BF681B"/>
</svg>
